SplineFontDB: 3.0
FontName: AX28ScriptMellow
FullName: AX28ScriptMellow
FamilyName: AX28Script
Weight: Mellow
Copyright: Created by Ludi,,, with FontForge 2.0 (http://fontforge.sf.net)
UComments: "2013-10-18: Created." 
Version: 2
ItalicAngle: 0
UnderlinePosition: -100
UnderlineWidth: 50
Ascent: 800
Descent: 200
LayerCount: 2
Layer: 0 0 "Back"  1
Layer: 1 0 "Fore"  0
XUID: [1021 619 1067718245 15906096]
FSType: 0
OS2Version: 0
OS2_WeightWidthSlopeOnly: 0
OS2_UseTypoMetrics: 1
CreationTime: 1382105846
ModificationTime: 1385118041
OS2TypoAscent: 0
OS2TypoAOffset: 1
OS2TypoDescent: 0
OS2TypoDOffset: 1
OS2TypoLinegap: 90
OS2WinAscent: 0
OS2WinAOffset: 1
OS2WinDescent: 0
OS2WinDOffset: 1
HheadAscent: 0
HheadAOffset: 1
HheadDescent: 0
HheadDOffset: 1
OS2Vendor: 'PfEd'
MarkAttachClasses: 1
DEI: 91125
Encoding: ISO8859-1
UnicodeInterp: none
NameList: Adobe Glyph List
DisplaySize: -48
AntiAlias: 1
FitToEm: 1
WidthSeparation: 55
WinInfo: 25 25 10
BeginPrivate: 0
EndPrivate
Grid
-1000 -20 m 0
 2000 -20 l 0
  Named: "rondes-down" 
EndSplineSet
BeginChars: 256 112

StartChar: a
Encoding: 97 97 0
Width: 680
VWidth: 0
Flags: HW
LayerCount: 2
UndoRedoHistory
Layer: 1
Undoes
EndUndoes
Redoes
EndRedoes
EndUndoRedoHistory
Fore
SplineSet
92.796875 300.715820312 m 0
 66.0556640625 250.759765625 51.404296875 193.333984375 57.669921875 137.018554688 c 0
 61.15234375 105.724609375 71.173828125 74.900390625 88.7900390625 48.802734375 c 0
 106.404296875 22.7099609375 131.869140625 1.529296875 161.6484375 -8.685546875 c 0
 182.986328125 -16.0048828125 206.071289062 -17.6083984375 228.459960938 -14.85546875 c 0
 250.849609375 -12.1025390625 272.580078125 -5.0830078125 293.061523438 4.369140625 c 0
 334.025390625 23.275390625 369.762695312 51.5927734375 406.342773438 78 c 0
 415.145507812 84.3544921875 424.061523438 90.6474609375 431.817382812 98.24609375 c 0
 439.572265625 105.844726562 446.189453125 114.892578125 449.4140625 125.260742188 c 0
 451.026367188 130.444335938 451.767578125 135.919921875 451.362304688 141.333984375 c 0
 450.958007812 146.748046875 449.391601562 152.096679688 446.615234375 156.76171875 c 0
 443.83984375 161.427734375 439.837890625 165.390625 435.037109375 167.92578125 c 0
 430.236328125 170.4609375 424.638671875 171.53125 419.26953125 170.728515625 c 0
 412.26171875 169.680664062 406.015625 165.559570312 401.08203125 160.474609375 c 0
 396.147460938 155.388671875 392.346679688 149.338867188 388.453125 143.418945312 c 0
 364.868164062 107.5546875 335.657226562 74.0712890625 297.73828125 53.9541015625 c 0
 277.203125 43.060546875 254.171875 36.3056640625 230.930664062 36.7275390625 c 0
 207.688476562 37.1494140625 184.272460938 45.1005859375 167.01171875 60.669921875 c 0
 148.819335938 77.078125 138.453125 100.901367188 134.83203125 125.131835938 c 0
 131.209960938 149.361328125 133.848632812 174.120117188 138.4140625 198.189453125 c 0
 147.466796875 245.909179688 164.249023438 292.4296875 190.334960938 333.401367188 c 0
 216.420898438 374.373046875 252.012695312 409.671875 294.690429688 432.861328125 c 0
 308.84765625 440.5546875 323.887695312 446.952148438 339.755859375 449.745117188 c 0
 355.624023438 452.538085938 372.428710938 451.55859375 387.150390625 445.010742188 c 0
 398.704101562 439.872070312 408.65625 431.501953125 420.43359375 426.899414062 c 0
 426.322265625 424.59765625 432.705078125 423.275390625 438.987304688 423.98828125 c 0
 445.26953125 424.700195312 451.44140625 427.602539062 455.337890625 432.58203125 c 0
 458.805664062 437.01171875 460.270507812 442.849609375 459.778320312 448.453125 c 0
 459.286132812 454.057617188 456.923828125 459.412109375 453.499023438 463.874023438 c 0
 446.647460938 472.798828125 436.001953125 477.959960938 425.360351562 481.61328125 c 0
 388.163085938 494.385742188 347.041015625 492.217773438 309.165039062 481.626953125 c 0
 215.821289062 455.526367188 135.037109375 379.623046875 92.796875 300.715820312 c 0
441.595703125 43.384765625 m 0
 437.153320312 48.111328125 434.314453125 54.2265625 433.072265625 60.591796875 c 0
 431.830078125 66.9580078125 432.137695312 73.568359375 433.465820312 79.9169921875 c 0
 436.122070312 92.61328125 442.705078125 104.0859375 449.106445312 115.368164062 c 0
 499.3359375 203.893554688 544.235351562 295.635742188 579.301757812 391.1875 c 0
 585.126953125 407.060546875 590.740234375 423.35546875 591.19140625 440.2578125 c 0
 591.416015625 448.708007812 590.31640625 457.248046875 587.38671875 465.177734375 c 0
 584.456054688 473.107421875 579.6484375 480.415039062 573.133789062 485.802734375 c 0
 567.30859375 490.619140625 560.174804688 493.833984375 552.7109375 495.022460938 c 0
 545.24609375 496.209960938 537.470703125 495.369140625 530.427734375 492.625976562 c 0
 523.384765625 489.881835938 517.091796875 485.245117188 512.374023438 479.340820312 c 0
 507.65625 473.435546875 504.5234375 466.27734375 503.373046875 458.807617188 c 0
 502.030273438 450.083984375 503.352539062 441.202148438 503.618164062 432.379882812 c 0
 504.540039062 401.756835938 492.760742188 372.3515625 481.25 343.959960938 c 0
 455.163085938 279.612304688 429.317382812 214.873046875 394.733398438 154.665039062 c 0
 386.05859375 139.561523438 376.807617188 124.69140625 370.249023438 108.556640625 c 0
 363.689453125 92.4208984375 359.901367188 74.705078125 362.709960938 57.515625 c 0
 364.624023438 45.8056640625 369.583007812 34.65234375 376.684570312 25.146484375 c 0
 383.786132812 15.6396484375 392.997070312 7.76953125 403.302734375 1.8896484375 c 0
 423.916015625 -9.87109375 448.522460938 -13.4873046875 472.143554688 -11.203125 c 0
 519.385742188 -6.634765625 561.171875 19.796875 602.827148438 42.5478515625 c 0
 608.19921875 45.4814453125 613.700195312 48.44140625 617.891601562 52.90234375 c 0
 619.986328125 55.1328125 621.725585938 57.73046875 622.7578125 60.611328125 c 0
 623.790039062 63.4921875 624.091796875 66.6669921875 623.381835938 69.6435546875 c 0
 622.822265625 71.9931640625 621.641601562 74.181640625 620.047851562 75.99609375 c 0
 618.453125 77.8095703125 616.452148438 79.2529296875 614.260742188 80.26953125 c 0
 609.87890625 82.3017578125 604.823242188 82.5966796875 600.073242188 81.7158203125 c 0
 590.575195312 79.9541015625 582.5625 73.875 574.3984375 68.7099609375 c 0
 553.467773438 55.4677734375 529.708007812 47.5087890625 506.189453125 39.744140625 c 0
 495.341796875 36.1640625 484.307617188 32.564453125 472.890625 32.1806640625 c 0
 467.182617188 31.9892578125 461.4140625 32.6201171875 455.993164062 34.4208984375 c 0
 450.573242188 36.22265625 445.506835938 39.22265625 441.595703125 43.384765625 c 0
EndSplineSet
EndChar

StartChar: b
Encoding: 98 98 1
Width: 680
VWidth: 0
Flags: HW
LayerCount: 2
UndoRedoHistory
Layer: 1
Undoes
EndUndoes
Redoes
EndRedoes
EndUndoRedoHistory
Fore
SplineSet
349.969726562 6.9365234375 m 0
 324.645507812 -7.2890625 296.653320312 -17.3837890625 267.689453125 -19.5791015625 c 0
 238.7265625 -21.7734375 208.741210938 -15.70703125 184.383789062 0.1171875 c 0
 157.404296875 17.64453125 138.776367188 46.107421875 128.501953125 76.5966796875 c 0
 118.228515625 107.0859375 115.69921875 139.657226562 115.741210938 171.831054688 c 0
 115.909179688 302.810546875 157.39453125 430.854492188 214.75390625 548.606445312 c 0
 253.676757812 628.509765625 301.32421875 706.274414062 369.568359375 763.21484375 c 0
 384.974609375 776.069335938 401.623046875 787.9296875 420.537109375 794.626953125 c 0
 439.450195312 801.32421875 460.995117188 802.42578125 479.252929688 794.104492188 c 0
 497.500976562 785.788085938 510.806640625 768.806640625 518.077148438 750.1171875 c 0
 525.34765625 731.427734375 527.14453125 711.055664062 527.19140625 691.001953125 c 0
 527.427734375 588.31640625 483.875 490.296875 429.764648438 403.024414062 c 0
 342.446289062 262.190429688 225.001953125 139.78515625 86.3232421875 49.08203125 c 0
 78.84765625 44.1923828125 71.1318359375 39.3154296875 62.4501953125 37.21484375 c 0
 58.1083984375 36.1650390625 53.5595703125 35.8388671875 49.158203125 36.6015625 c 0
 44.7578125 37.36328125 40.5107421875 39.248046875 37.2099609375 42.2568359375 c 0
 32.2802734375 46.7509765625 29.76171875 53.5576171875 29.837890625 60.228515625 c 0
 29.9140625 66.8994140625 32.4228515625 73.4033203125 36.2333984375 78.8798828125 c 0
 43.853515625 89.83203125 56.06640625 96.4912109375 67.7119140625 103.001953125 c 0
 122.424804688 133.58984375 174.353515625 169.421875 220.7890625 211.526367188 c 0
 301.915039062 285.0859375 365.204101562 376.918945312 413.29296875 475.3046875 c 0
 450.125976562 550.663085938 478.809570312 633.026367188 473.194335938 716.716796875 c 0
 472.818359375 722.322265625 472.2734375 727.987304688 470.38671875 733.279296875 c 0
 468.499023438 738.571289062 465.122070312 743.520507812 460.220703125 746.267578125 c 0
 457.5546875 747.762695312 454.522460938 748.55859375 451.471679688 748.739257812 c 0
 448.420898438 748.919921875 445.349609375 748.497070312 442.408203125 747.666015625 c 0
 436.525390625 746.004882812 431.224609375 742.762695312 426.15234375 739.350585938 c 0
 393.83203125 717.611328125 367.678710938 687.668945312 346.23046875 655.155273438 c 0
 324.783203125 622.640625 307.779296875 587.440429688 291 552.2890625 c 0
 232.43359375 429.590820312 174.53125 300.18359375 179.30078125 164.30859375 c 0
 179.970703125 145.236328125 181.912109375 126.072265625 187.384765625 107.7890625 c 0
 192.856445312 89.505859375 202.022460938 72.0546875 215.671875 58.716796875 c 0
 229.97265625 44.7431640625 248.8671875 35.7451171875 268.60546875 32.5517578125 c 0
 288.342773438 29.3583984375 308.852539062 31.859375 327.5859375 38.8466796875 c 0
 352.829101562 48.26171875 374.798828125 65.7392578125 390.71875 87.4736328125 c 0
 406.639648438 109.208007812 416.602539062 135.071289062 420.693359375 161.701171875 c 0
 421.204101562 165.028320312 421.626953125 168.384765625 421.55859375 171.750976562 c 0
 421.490234375 175.1171875 420.916015625 178.509765625 419.5078125 181.568359375 c 0
 418.100585938 184.625976562 415.81640625 187.337890625 412.845703125 188.922851562 c 0
 411.361328125 189.71484375 409.716796875 190.219726562 408.0390625 190.34765625 c 0
 406.360351562 190.475585938 404.6484375 190.223632812 403.095703125 189.572265625 c 0
 401.34375 188.8359375 399.818359375 187.6015625 398.646484375 186.103515625 c 0
 397.474609375 184.606445312 396.650390625 182.853515625 396.138671875 181.022460938 c 0
 395.115234375 177.361328125 395.3359375 173.463867188 395.926757812 169.708007812 c 0
 397.978515625 156.676757812 404.385742188 144.595703125 412.786132812 134.424804688 c 0
 421.186523438 124.25390625 431.538085938 115.86328125 442.315429688 108.254882812 c 0
 466.84375 90.9384765625 494.26953125 77.2177734375 523.64453125 71.001953125 c 0
 553.018554688 64.7861328125 584.455078125 66.3916015625 611.969726562 78.4091796875 c 0
 617.841796875 80.9736328125 623.623046875 84.02734375 629.952148438 85.021484375 c 0
 633.1171875 85.5185546875 636.3984375 85.4775390625 639.4765625 84.58984375 c 0
 642.555664062 83.7021484375 645.420898438 81.931640625 647.35546875 79.3779296875 c 0
 649.434570312 76.630859375 650.342773438 73.0849609375 650.135742188 69.646484375 c 0
 649.927734375 66.20703125 648.65234375 62.8798828125 646.756835938 60.0029296875 c 0
 642.966796875 54.2490234375 636.922851562 50.408203125 630.87890625 47.099609375 c 0
 598.329101562 29.2802734375 560.393554688 21.9677734375 523.388671875 24.72265625 c 0
 486.3828125 27.4765625 450.358398438 40.1025390625 418.791015625 59.6083984375 c 0
 399.096679688 71.7783203125 380.864257812 86.8115234375 367.401367188 105.64453125 c 0
 353.938476562 124.478515625 345.470703125 147.352539062 346.200195312 170.4921875 c 0
 346.533203125 181.06640625 348.78515625 191.62109375 353.208007812 201.231445312 c 0
 357.631835938 210.841796875 364.256835938 219.48828125 372.663085938 225.913085938 c 0
 381.116210938 232.373046875 391.385742188 236.532226562 401.994140625 237.3359375 c 0
 412.603515625 238.138671875 423.512695312 235.512695312 432.360351562 229.603515625 c 0
 442.27734375 222.98046875 449.263671875 212.532226562 453.123046875 201.248046875 c 0
 456.982421875 189.96484375 457.897460938 177.852539062 457.416015625 165.936523438 c 0
 456.067382812 132.548828125 443.8359375 99.9765625 424.545898438 72.69140625 c 0
 405.255859375 45.4072265625 379.103515625 23.302734375 349.969726562 6.9365234375 c 0
EndSplineSet
EndChar

StartChar: c
Encoding: 99 99 2
Width: 680
VWidth: 0
Flags: HW
LayerCount: 2
UndoRedoHistory
Layer: 1
Undoes
EndUndoes
Redoes
EndRedoes
EndUndoRedoHistory
Fore
SplineSet
95.2685546875 76.3984375 m 4
 109.700195312 54.9541015625 128.57421875 36.513671875 150.34765625 22.583984375 c 4
 172.16015625 8.6279296875 196.6796875 -0.7373046875 221.799804688 -7.0263671875 c 4
 276.4765625 -20.7177734375 334.025390625 -20.0322265625 389.69921875 -11.23046875 c 4
 445.381835938 -2.4267578125 499.4765625 14.310546875 552.997070312 32.01953125 c 4
 568.780273438 37.2421875 585.178710938 42.951171875 596.729492188 54.908203125 c 4
 602.504882812 60.88671875 606.868164062 68.396484375 608.296875 76.5849609375 c 4
 609.725585938 84.7734375 608.026367188 93.634765625 602.940429688 100.209960938 c 4
 597.85546875 106.78515625 589.737304688 110.6484375 581.46875 111.500976562 c 4
 573.201171875 112.353515625 564.813476562 110.392578125 557.251953125 106.939453125 c 4
 542.130859375 100.033203125 530.395507812 87.5859375 517.212890625 77.4580078125 c 4
 480.489257812 49.24609375 433.056640625 39.447265625 387.068359375 34 c 4
 349.528320312 29.5537109375 311.10546875 27.51171875 274.23828125 35.8701171875 c 4
 237.370117188 44.228515625 201.869140625 64.0849609375 181.263671875 95.7783203125 c 4
 164.8515625 121.022460938 158.939453125 152.116210938 160.657226562 182.177734375 c 4
 162.375 212.239257812 171.302734375 241.47265625 182.638671875 269.368164062 c 4
 207.999023438 331.77734375 246.627929688 389.934570312 300.1484375 430.84375 c 4
 312.420898438 440.223632812 325.489257812 448.700195312 339.69140625 454.775390625 c 4
 353.893554688 460.8515625 369.297851562 464.477539062 384.736328125 463.952148438 c 4
 400.174804688 463.426757812 415.643554688 458.5859375 427.827148438 449.08984375 c 4
 440.010742188 439.592773438 448.649414062 425.274414062 450.049804688 409.891601562 c 4
 451.045898438 398.951171875 448.484375 388.047851562 446.793945312 377.193359375 c 4
 445.102539062 366.337890625 444.352539062 354.82421875 448.7109375 344.739257812 c 4
 451.09375 339.224609375 454.951171875 334.372070312 459.708984375 330.704101562 c 4
 464.466796875 327.036132812 470.109375 324.548828125 476.002929688 323.383789062 c 4
 487.791015625 321.053710938 500.359375 324.135742188 510.3125 330.866210938 c 4
 520.265625 337.596679688 527.658203125 347.772460938 531.94140625 358.998046875 c 4
 536.225585938 370.223632812 537.508789062 382.459960938 536.6796875 394.446289062 c 4
 534.295898438 428.924804688 514.2890625 460.961914062 486.456054688 481.44921875 c 4
 458.623046875 501.935546875 423.668945312 511.46484375 389.11328125 512.01171875 c 4
 333.865234375 512.883789062 279.66015625 491.55078125 235.333984375 458.560546875 c 4
 191.025390625 425.583007812 156.004882812 381.549804688 126.545898438 334.827148438 c 4
 102.100585938 296.056640625 80.830078125 254.198242188 73.7568359375 208.913085938 c 4
 66.734375 163.956054688 74.384765625 116.826171875 95.2685546875 76.3984375 c 4
EndSplineSet
EndChar

StartChar: d
Encoding: 100 100 3
Width: 680
VWidth: 0
Flags: HW
LayerCount: 2
UndoRedoHistory
Layer: 1
Undoes
EndUndoes
Redoes
EndRedoes
EndUndoRedoHistory
Fore
SplineSet
132.14453125 395.624023438 m 4
 97.5634765625 361.509765625 70.02734375 320.286132812 51.755859375 275.27734375 c 4
 33.5185546875 230.352539062 24.5146484375 181.122070312 30.251953125 132.977539062 c 4
 33.9736328125 101.741210938 44.009765625 70.9873046875 61.576171875 44.892578125 c 4
 79.140625 18.80078125 104.50390625 -2.4462890625 134.229492188 -12.7265625 c 4
 155.5546875 -20.1015625 178.6484375 -21.7392578125 201.045898438 -19 c 4
 223.443359375 -16.2607421875 245.181640625 -9.2373046875 265.665039062 0.228515625 c 4
 306.630859375 19.1591796875 342.345703125 47.529296875 378.92578125 73.9580078125 c 4
 387.725585938 80.31640625 396.638671875 86.6103515625 404.393554688 94.208984375 c 4
 412.147460938 101.80859375 418.763671875 110.854492188 421.989257812 121.221679688 c 4
 423.6015625 126.405273438 424.342773438 131.879882812 423.938476562 137.29296875 c 4
 423.53515625 142.70703125 421.969726562 148.055664062 419.194335938 152.720703125 c 4
 416.418945312 157.38671875 412.41796875 161.349609375 407.618164062 163.884765625 c 4
 402.817382812 166.419921875 397.220703125 167.491210938 391.8515625 166.688476562 c 4
 384.84375 165.640625 378.59765625 161.51953125 373.6640625 156.43359375 c 4
 368.73046875 151.34765625 364.928710938 145.296875 361.034179688 139.376953125 c 4
 337.4453125 103.51953125 308.209960938 70.0791015625 270.3203125 49.9130859375 c 4
 249.786132812 38.984375 226.752929688 32.16796875 203.494140625 32.5703125 c 4
 180.235351562 32.9716796875 156.787109375 40.9580078125 139.594726562 56.6279296875 c 4
 121.520507812 73.1015625 111.377929688 96.9658203125 107.837890625 121.163085938 c 4
 104.296875 145.360351562 106.86328125 170.045898438 110.995117188 194.1484375 c 4
 119.470703125 243.58984375 134.725585938 292.295898438 160.361328125 335.413085938 c 4
 185.997070312 378.529296875 222.443359375 415.912109375 267.272460938 438.419921875 c 4
 282.168945312 445.899414062 298.086914062 451.756835938 314.665039062 453.495117188 c 4
 331.2421875 455.233398438 348.573242188 452.631835938 362.93359375 444.168945312 c 4
 374.251953125 437.499023438 383.393554688 427.462890625 395.077148438 421.456054688 c 4
 400.918945312 418.453125 407.4453125 416.506835938 414.004882812 416.87109375 c 4
 417.284179688 417.052734375 420.54296875 417.81640625 423.505859375 419.233398438 c 4
 426.46875 420.649414062 429.130859375 422.727539062 431.120117188 425.340820312 c 4
 434.002929688 429.125976562 435.388671875 433.951171875 435.317382812 438.708007812 c 4
 435.24609375 443.465820312 433.768554688 448.147460938 431.413085938 452.28125 c 4
 426.701171875 460.548828125 418.748046875 466.4453125 410.5703125 471.310546875 c 4
 388.21484375 484.609375 362.491210938 491.98046875 336.521484375 493.458984375 c 4
 310.569335938 494.936523438 284.484375 490.626953125 259.720703125 482.724609375 c 4
 209.971679688 466.84765625 165.046875 436.17578125 132.14453125 395.624023438 c 4
430.336914062 68.9130859375 m 4
 425.573242188 80.3291015625 425.213867188 93.201171875 427.233398438 105.404296875 c 4
 429.252929688 117.608398438 433.538085938 129.3046875 437.84765625 140.899414062 c 4
 508.563476562 331.18359375 592.030273438 517.379882812 643.725585938 713.686523438 c 4
 648.024414062 730.010742188 652.130859375 746.677734375 651.375976562 763.541015625 c 4
 650.999023438 771.973632812 649.3828125 780.396484375 646.081054688 788.1640625 c 4
 642.778320312 795.931640625 637.750976562 803.03125 631.157226562 808.30078125 c 4
 620.032226562 817.190429688 604.5078125 820.310546875 590.83984375 816.310546875 c 4
 577.170898438 812.310546875 565.751953125 801.263671875 561.397460938 787.704101562 c 4
 558.3515625 778.217773438 558.654296875 768.040039062 558.442382812 758.078125 c 4
 557.486328125 712.994140625 545.451171875 668.974609375 533.6796875 625.444335938 c 4
 492.61328125 473.583007812 453.188476562 319.59375 380.274414062 180.1953125 c 4
 370.48046875 161.471679688 360.052734375 142.942382812 353.176757812 122.9609375 c 4
 346.301757812 102.979492188 343.125 81.14453125 348.251953125 60.64453125 c 4
 353.959960938 37.8173828125 369.841796875 18.1787109375 389.815429688 5.7392578125 c 4
 409.788085938 -6.7001953125 433.5703125 -12.2734375 457.098632812 -12.4833984375 c 4
 504.157226562 -12.9033203125 548.701171875 7.0556640625 591.567382812 26.4765625 c 4
 598.725585938 29.71875 606.05078125 33.0703125 611.623046875 38.6103515625 c 4
 614.41015625 41.380859375 616.711914062 44.6875 618.026367188 48.3896484375 c 4
 619.33984375 52.0927734375 619.62890625 56.2041015625 618.5234375 59.974609375 c 4
 616.999023438 65.173828125 612.874023438 69.40625 607.9453125 71.658203125 c 4
 603.017578125 73.9091796875 597.368164062 74.2958984375 592.026367188 73.3896484375 c 4
 581.342773438 71.5771484375 572.204101562 64.9775390625 563.139648438 59.0400390625 c 4
 542.560546875 45.5615234375 519.502929688 34.4296875 494.930664062 33.2734375 c 4
 481.844726562 32.6572265625 468.493164062 34.984375 456.8515625 40.9921875 c 4
 445.209960938 47 435.380859375 56.8232421875 430.336914062 68.9130859375 c 4
EndSplineSet
EndChar

StartChar: e
Encoding: 101 101 4
Width: 680
VWidth: 0
Flags: HW
LayerCount: 2
UndoRedoHistory
Layer: 1
Undoes
EndUndoes
Redoes
EndRedoes
EndUndoRedoHistory
Fore
SplineSet
558.051757812 448.821289062 m 4
 543.724609375 472.350585938 521.41015625 490.91796875 495.668945312 500.729492188 c 4
 469.771484375 510.600585938 441.19921875 511.61328125 413.69140625 508.234375 c 4
 365.829101562 502.354492188 319.950195312 483.486328125 280.189453125 456.202148438 c 4
 240.413085938 428.907226562 206.682617188 393.399414062 178.48046875 354.26171875 c 4
 144.416015625 306.989257812 117.716796875 252.776367188 112.0078125 194.7890625 c 4
 109.38671875 168.159179688 111.276367188 140.9765625 118.762695312 115.287109375 c 4
 126.25 89.59765625 139.420898438 65.4345703125 157.873046875 46.0556640625 c 4
 188.43359375 13.9599609375 231.657226562 -3.40625 275.133789062 -12 c 4
 387.0703125 -34.123046875 503.271484375 -3.337890625 607.341796875 43.4423828125 c 4
 618.8984375 48.63671875 630.75390625 54.3212890625 638.877929688 64.0439453125 c 4
 642.940429688 68.904296875 645.952148438 74.7421875 646.939453125 80.9990234375 c 4
 647.927734375 87.2568359375 646.784179688 93.935546875 643.249023438 99.1923828125 c 4
 639.575195312 104.657226562 633.515625 108.291992188 627.080078125 109.686523438 c 4
 620.64453125 111.080078125 613.8671875 110.356445312 607.595703125 108.34765625 c 4
 595.052734375 104.33203125 584.734375 95.5322265625 574.0859375 87.7802734375 c 4
 529.767578125 55.5166015625 475.438476562 39.375 421.048828125 32.5283203125 c 4
 391.2265625 28.7744140625 360.796875 27.6640625 331.237304688 33.111328125 c 4
 301.676757812 38.5595703125 272.90234375 50.8974609375 250.982421875 71.4638671875 c 4
 223.1796875 97.548828125 208.161132812 135.49609375 205.609375 173.53515625 c 4
 203.057617188 211.573242188 212.188476562 249.705078125 227.033203125 284.8203125 c 4
 255.719726562 352.67578125 306.51953125 411.200195312 370.36328125 447.958984375 c 4
 390.170898438 459.36328125 411.709960938 468.849609375 434.510742188 470.4375 c 4
 445.911132812 471.231445312 457.516601562 469.999023438 468.287109375 466.176757812 c 4
 479.056640625 462.354492188 488.966796875 455.88671875 496.296875 447.119140625 c 4
 503.22265625 438.837890625 507.729492188 428.649414062 509.775390625 418.049804688 c 4
 511.821289062 407.44921875 511.451171875 396.44921875 509.274414062 385.875976562 c 4
 504.919921875 364.728515625 493.552734375 345.642578125 480.4140625 328.509765625 c 4
 424.223632812 255.231445312 336.234375 213.6328125 248.424804688 185.05859375 c 4
 191.223632812 166.444335938 132.497070312 152.138671875 76.9638671875 129.016601562 c 4
 69.849609375 126.0546875 62.765625 122.934570312 56.2294921875 118.853515625 c 4
 49.6923828125 114.771484375 43.685546875 109.67578125 39.3251953125 103.322265625 c 4
 34.96484375 96.96875 32.3291015625 89.28125 32.7685546875 81.587890625 c 4
 32.98828125 77.7412109375 33.9736328125 73.927734375 35.75 70.5087890625 c 4
 37.5263671875 67.0888671875 40.099609375 64.0712890625 43.2626953125 61.87109375 c 4
 49.0244140625 57.86328125 56.416015625 56.767578125 63.4033203125 57.4384765625 c 4
 70.3896484375 58.109375 77.1044921875 60.40234375 83.744140625 62.6806640625 c 4
 225.334960938 111.258789062 370.21875 162.327148438 484.811523438 258.640625 c 4
 512.981445312 282.31640625 539.515625 309.204101562 555.46484375 342.366210938 c 4
 563.444335938 358.956054688 568.646484375 377.028320312 569.31640625 395.424804688 c 4
 569.986328125 413.78515625 566.081054688 432.295898438 558.051757812 448.821289062 c 4
EndSplineSet
EndChar

StartChar: f
Encoding: 102 102 5
Width: 680
VWidth: 0
Flags: HW
LayerCount: 2
UndoRedoHistory
Layer: 1
Undoes
EndUndoes
Redoes
EndRedoes
EndUndoRedoHistory
Fore
SplineSet
45.728515625 -206.4453125 m 4
 38.4267578125 -202.711914062 32.85546875 -195.999023438 29.7939453125 -188.391601562 c 4
 26.7314453125 -180.784179688 26.0693359375 -172.338867188 27.1103515625 -164.205078125 c 4
 29.19140625 -147.935546875 37.72265625 -133.3125 46.0146484375 -119.162109375 c 4
 105.161132812 -18.2197265625 161.274414062 84.591796875 210.850585938 190.563476562 c 4
 272.973632812 323.35546875 324.729492188 460.88671875 389.395507812 592.459960938 c 4
 421.6640625 658.116210938 458.162109375 723.55859375 512.674804688 772.346679688 c 4
 527.727539062 785.818359375 544.348632812 798.063476562 563.395507812 804.791015625 c 4
 572.918945312 808.155273438 582.989257812 810.09375 593.088867188 809.99609375 c 4
 603.188476562 809.899414062 613.318359375 807.734375 622.362304688 803.23828125 c 4
 639.998046875 794.470703125 652.466796875 777.272460938 658.694335938 758.587890625 c 4
 664.921875 739.903320312 665.463867188 719.768554688 663.899414062 700.134765625 c 4
 657.018554688 613.782226562 610.880859375 534.806640625 553.671875 469.7578125 c 4
 487.69921875 394.745117188 406.458007812 334.549804688 321.469726562 282.048828125 c 4
 240.2421875 231.872070312 154.909179688 188.142578125 65.8544921875 153.720703125 c 4
 57.0634765625 150.323242188 47.9306640625 146.96484375 38.5166015625 147.3984375 c 4
 33.80859375 147.616210938 29.0966796875 148.8203125 25.0771484375 151.280273438 c 4
 21.05859375 153.740234375 17.771484375 157.5078125 16.283203125 161.979492188 c 4
 14.7236328125 166.663085938 15.2138671875 171.904296875 17.1708984375 176.436523438 c 4
 19.1279296875 180.96875 22.4775390625 184.818359375 26.408203125 187.805664062 c 4
 34.267578125 193.782226562 44.130859375 196.310546875 53.6435546875 198.958007812 c 4
 138.748046875 222.6484375 216.955078125 266.2109375 291.373046875 313.8125 c 4
 389.461914062 376.553710938 484.000976562 448.393554688 553.200195312 542.038085938 c 4
 572.88671875 568.678710938 590.506835938 597.158203125 601.987304688 628.23046875 c 4
 613.466796875 659.302734375 618.611328125 693.1875 613.1015625 725.850585938 c 4
 611.985351562 732.466796875 610.379882812 739.15625 606.772460938 744.813476562 c 4
 604.967773438 747.641601562 602.668945312 750.177734375 599.899414062 752.071289062 c 4
 597.129882812 753.96484375 593.87890625 755.197265625 590.530273438 755.401367188 c 4
 587.24609375 755.600585938 583.955078125 754.813476562 580.934570312 753.509765625 c 4
 577.913085938 752.20703125 575.13671875 750.399414062 572.4609375 748.484375 c 4
 546.3203125 729.775390625 529.423828125 701.084960938 513.686523438 673.053710938 c 4
 424.442382812 514.102539062 347.649414062 348.533203125 271.208007812 183.04296875 c 4
 239.577148438 114.564453125 207.983398438 46.052734375 174.224609375 -21.40234375 c 4
 154.05078125 -61.7109375 133.045898438 -101.776367188 117.766601562 -144.182617188 c 4
 111.625 -161.227539062 106.137695312 -179.126953125 94.2587890625 -192.806640625 c 4
 88.3203125 -199.646484375 80.7861328125 -205.267578125 72.1630859375 -208.04296875 c 4
 63.541015625 -210.819335938 53.7939453125 -210.568359375 45.728515625 -206.4453125 c 4
130.611328125 45.033203125 m 4
 128.125976562 53.2939453125 129.59375 62.4404296875 133.541992188 70.1103515625 c 4
 137.873046875 78.5224609375 145.126953125 85.3583984375 153.696289062 89.37109375 c 4
 167.1875 95.6884765625 183.10546875 94.8779296875 197.380859375 90.6201171875 c 4
 211.657226562 86.36328125 224.73046875 78.921875 237.965820312 72.0859375 c 4
 289.21875 45.6142578125 345.264648438 27.4130859375 402.82421875 23.5986328125 c 4
 460.3828125 19.7841796875 519.517578125 30.84375 569.608398438 59.4541015625 c 4
 580.719726562 65.80078125 591.747070312 73.125 604.380859375 75.1572265625 c 4
 610.697265625 76.173828125 617.33984375 75.7724609375 623.228515625 73.2705078125 c 4
 629.118164062 70.76953125 634.177734375 66.041015625 636.39453125 60.0390625 c 4
 638.237304688 55.0478515625 638.040039062 49.416015625 636.291015625 44.390625 c 4
 634.541992188 39.365234375 631.30859375 34.9306640625 627.370117188 31.3525390625 c 4
 619.494140625 24.1953125 609.134765625 20.5244140625 599.0078125 17.25390625 c 4
 519.081054688 -8.5595703125 434.587890625 -20.2451171875 350.666015625 -16.80859375 c 4
 289.696289062 -14.3125 229.015625 -3.8603515625 170.909179688 14.7744140625 c 4
 162.572265625 17.447265625 154.194335938 20.333984375 146.834960938 25.076171875 c 4
 139.475585938 29.818359375 133.1328125 36.6494140625 130.611328125 45.033203125 c 4
EndSplineSet
EndChar

StartChar: g
Encoding: 103 103 6
Width: 680
VWidth: 0
Flags: HW
LayerCount: 2
UndoRedoHistory
Layer: 1
Undoes
EndUndoes
Redoes
EndRedoes
EndUndoRedoHistory
Fore
SplineSet
220.766601562 406.501953125 m 4
 251.076171875 432.73828125 287.282226562 452.122070312 325.921875 462.798828125 c 4
 364.428710938 473.438476562 406.303710938 475.264648438 443.861328125 461.645507812 c 4
 454.337890625 457.846679688 464.7734375 452.581054688 471.534179688 443.720703125 c 4
 474.9140625 439.291015625 477.270507812 434.009765625 477.837890625 428.466796875 c 4
 478.404296875 422.922851562 477.102539062 417.129882812 473.838867188 412.61328125 c 4
 470.155273438 407.517578125 464.19140625 404.333007812 457.993164062 403.2734375 c 4
 451.793945312 402.21484375 445.379882812 403.139648438 439.40234375 405.090820312 c 4
 427.446289062 408.993164062 417.17578125 416.807617188 405.651367188 421.842773438 c 4
 390.493164062 428.465820312 373.422851562 430.086914062 357.012695312 428.008789062 c 4
 340.6015625 425.9296875 324.795898438 420.272460938 309.991210938 412.892578125 c 4
 266.729492188 391.328125 231.813476562 355.087890625 206.993164062 313.608398438 c 4
 182.172851562 272.129882812 166.958007812 225.504882812 156.916015625 178.221679688 c 4
 151.702148438 153.671875 147.823242188 128.357421875 151.5390625 103.536132812 c 4
 153.397460938 91.125 157.178710938 78.9375 163.348632812 68.009765625 c 4
 169.518554688 57.0830078125 178.127929688 47.44140625 188.712890625 40.701171875 c 4
 198.62109375 34.390625 210.102539062 30.7177734375 221.778320312 29.4267578125 c 4
 233.454101562 28.1357421875 245.325195312 29.18359375 256.76953125 31.8330078125 c 4
 279.658203125 37.1298828125 300.58203125 48.650390625 320.678710938 60.818359375 c 4
 368.640625 89.8583984375 415.244140625 124.880859375 442.866210938 173.672851562 c 4
 448.083984375 182.889648438 452.655273438 192.635742188 459.748046875 200.500976562 c 4
 463.293945312 204.43359375 467.46875 207.859375 472.248046875 210.140625 c 4
 477.02734375 212.421875 482.436523438 213.518554688 487.68359375 212.807617188 c 4
 491.771484375 212.25390625 495.69140625 210.612304688 499.028320312 208.1875 c 4
 502.365234375 205.763671875 505.122070312 202.567382812 507.142578125 198.971679688 c 4
 511.181640625 191.778320312 512.1953125 183.118164062 510.87109375 174.975585938 c 4
 509.546875 166.833007812 506.00390625 159.170898438 501.46484375 152.282226562 c 4
 496.924804688 145.393554688 491.396484375 139.217773438 485.756835938 133.196289062 c 4
 434.831054688 78.8203125 372.810546875 34.716796875 304.262695312 5.537109375 c 4
 280.688476562 -4.4990234375 256.163085938 -12.828125 230.737304688 -15.9873046875 c 4
 205.311523438 -19.146484375 178.827148438 -16.9228515625 155.393554688 -6.5634765625 c 4
 126.415039062 6.248046875 103.596679688 31.03515625 90.03125 59.6689453125 c 4
 76.4638671875 88.3056640625 71.6875 120.588867188 72.9716796875 152.250976562 c 4
 75.0234375 202.827148438 92.19921875 252.143554688 118.271484375 295.530273438 c 4
 144.388671875 338.994140625 179.510742188 377.020507812 220.766601562 406.501953125 c 4
515.909179688 396.112304688 m 4
 520.315429688 417.063476562 524.131835938 439.014648438 536.747070312 456.313476562 c 4
 543.0546875 464.962890625 551.581054688 472.202148438 561.651367188 475.831054688 c 4
 571.72265625 479.4609375 583.3828125 479.208984375 592.75390625 474.03515625 c 4
 599.75 470.171875 605.185546875 463.770507812 608.505859375 456.501953125 c 4
 611.827148438 449.232421875 613.112304688 441.133789062 612.918945312 433.14453125 c 4
 612.53125 417.166015625 606.450195312 401.950195312 600.595703125 387.078125 c 4
 565.364257812 297.565429688 535.31640625 206.079101562 508.08984375 113.815429688 c 4
 484.751953125 34.7294921875 462.375976562 -47.2001953125 411.939453125 -112.434570312 c 4
 377.505859375 -156.971679688 330.125 -192.1875 276.150390625 -208.192382812 c 4
 222.176757812 -224.197265625 161.704101562 -220.053710938 112.299804688 -193.061523438 c 4
 99.82421875 -186.245117188 87.912109375 -177.875 79.2451171875 -166.607421875 c 4
 74.9111328125 -160.97265625 71.4326171875 -154.646484375 69.3203125 -147.859375 c 4
 67.208984375 -141.072265625 66.484375 -133.819335938 67.5458984375 -126.791015625 c 4
 68.8017578125 -118.48046875 72.65625 -110.471679688 78.853515625 -104.79296875 c 4
 85.05078125 -99.1142578125 93.640625 -95.9375 101.994140625 -96.875 c 4
 106.61328125 -97.3935546875 111.051757812 -99.1201171875 115.01171875 -101.5546875 c 4
 118.971679688 -103.990234375 122.469726562 -107.122070312 125.609375 -110.549804688 c 4
 131.889648438 -117.405273438 136.752929688 -125.420898438 142.532226562 -132.703125 c 4
 158.659179688 -153.024414062 182.0546875 -167.319335938 207.365234375 -173.013671875 c 4
 232.67578125 -178.70703125 259.73046875 -175.873046875 283.5703125 -165.640625 c 4
 304.493164062 -156.659179688 322.830078125 -142.192382812 337.727539062 -124.97265625 c 4
 352.625 -107.752929688 364.17578125 -87.8212890625 373.28125 -66.951171875 c 4
 391.490234375 -25.2119140625 399.981445312 19.974609375 411.625 64 c 4
 441.310546875 176.24609375 492.012695312 282.493164062 515.909179688 396.112304688 c 4
EndSplineSet
EndChar

StartChar: h
Encoding: 104 104 7
Width: 680
VWidth: 0
Flags: HW
LayerCount: 2
UndoRedoHistory
Layer: 1
Undoes
EndUndoes
Redoes
EndRedoes
EndUndoRedoHistory
Fore
SplineSet
218.525390625 392.676757812 m 4
 213.5390625 283.7734375 l 5
 226.21484375 316.0234375 244.305664062 346.137695312 266.82421875 372.474609375 c 4
 281.74609375 389.926757812 298.6953125 405.799804688 318.056640625 418.14453125 c 4
 337.41796875 430.48828125 359.268554688 439.241210938 382.061523438 442.020507812 c 4
 404.854492188 444.80078125 428.596679688 441.422851562 449.013671875 430.916015625 c 4
 469.4296875 420.408203125 486.279296875 402.559570312 494.118164062 380.9765625 c 4
 499.600585938 365.879882812 500.6328125 349.411132812 498.818359375 333.453125 c 4
 497.00390625 317.494140625 492.426757812 301.967773438 486.95703125 286.8671875 c 4
 465.12890625 226.602539062 428.9453125 171.970703125 410.893554688 110.46875 c 4
 406.251953125 94.65234375 402.827148438 78.3076171875 403.123046875 61.826171875 c 4
 403.418945312 45.345703125 407.639648438 28.630859375 417.173828125 15.18359375 c 4
 427.323242188 0.8701171875 443.05859375 -9.001953125 459.974609375 -13.6650390625 c 4
 476.891601562 -18.3271484375 494.923828125 -18.0185546875 512.130859375 -14.5830078125 c 4
 546.545898438 -7.712890625 577.17578125 11.041015625 608.438476562 26.9853515625 c 4
 615.682617188 30.6796875 623.180664062 34.373046875 628.647460938 40.3935546875 c 4
 631.380859375 43.4033203125 633.55078125 46.982421875 634.58203125 50.916015625 c 4
 635.61328125 54.849609375 635.452148438 59.1474609375 633.778320312 62.8525390625 c 4
 631.799804688 67.2294921875 627.803710938 70.5322265625 623.287109375 72.166015625 c 4
 618.770507812 73.7998046875 613.780273438 73.857421875 609.079101562 72.8740234375 c 4
 599.67578125 70.9072265625 591.64453125 65.0595703125 583.581054688 59.837890625 c 4
 573.694335938 53.435546875 563.33203125 47.7890625 552.7421875 42.634765625 c 4
 541.83984375 37.3291015625 530.498046875 32.4853515625 518.470703125 30.94921875 c 4
 512.45703125 30.1806640625 506.30859375 30.259765625 500.37890625 31.5205078125 c 4
 494.448242188 32.78125 488.740234375 35.24609375 483.95703125 38.970703125 c 4
 479.1953125 42.6796875 475.41796875 47.5859375 472.766601562 53.0078125 c 4
 470.114257812 58.4296875 468.567382812 64.359375 467.916992188 70.3603515625 c 4
 466.615234375 82.361328125 468.856445312 94.4755859375 472.005859375 106.12890625 c 4
 486.78125 160.791015625 520.977539062 207.827148438 545.231445312 258.993164062 c 4
 557.357421875 284.576171875 567.107421875 311.610351562 570.26953125 339.745117188 c 4
 573.431640625 367.87890625 569.669921875 397.294921875 556.125976562 422.157226562 c 4
 542.646484375 446.900390625 519.924804688 466.075195312 494.040039062 477.20703125 c 4
 468.155273438 488.338867188 439.2734375 491.686523438 411.228515625 488.958007812 c 4
 355.139648438 483.500976562 304.01171875 454.776367188 257.987304688 422.256835938 c 4
 244.559570312 412.76953125 231.3984375 402.904296875 218.525390625 392.676757812 c 4
132.338867188 60.3076171875 m 4
 156.323242188 143.946289062 190.000976562 224.431640625 223.517578125 304.7265625 c 4
 280.209960938 440.5390625 336.692382812 576.497070312 387.328125 714.680664062 c 4
 392.895507812 729.874023438 398.448242188 745.358398438 399.3828125 761.512695312 c 4
 399.850585938 769.58984375 399.133789062 777.782226562 396.728515625 785.506835938 c 4
 394.322265625 793.231445312 390.184570312 800.479492188 384.360351562 806.094726562 c 4
 374.353515625 815.741210938 359.444335938 819.959960938 345.834960938 817.138671875 c 4
 332.225585938 814.317382812 320.26953125 804.587890625 314.599609375 791.897460938 c 4
 310.036132812 781.682617188 309.471679688 770.211914062 308.443359375 759.071289062 c 4
 304.259765625 713.750976562 291.353515625 669.71875 277.282226562 626.436523438 c 4
 225.758789062 467.959960938 157.837890625 315.299804688 85.4765625 165.1875 c 4
 70.673828125 134.477539062 55.556640625 103.518554688 48.0244140625 70.2685546875 c 4
 44.87890625 56.3857421875 43.115234375 41.7265625 46.982421875 28.02734375 c 4
 48.916015625 21.1767578125 52.275390625 14.671875 57.1357421875 9.47265625 c 4
 61.99609375 4.2734375 68.3984375 0.4296875 75.38671875 -0.9189453125 c 4
 82.9462890625 -2.3779296875 90.9267578125 -0.8662109375 97.7783203125 2.6435546875 c 4
 104.630859375 6.1533203125 110.39453125 11.5751953125 114.924804688 17.7998046875 c 4
 123.984375 30.25 128.094726562 45.5068359375 132.338867188 60.3076171875 c 4
EndSplineSet
EndChar

StartChar: i
Encoding: 105 105 8
Width: 680
VWidth: 0
Flags: HW
LayerCount: 2
UndoRedoHistory
Layer: 1
Undoes
EndUndoes
Redoes
EndRedoes
EndUndoRedoHistory
Fore
SplineSet
302.673828125 89.595703125 m 4
 296.299804688 111.061523438 300.087890625 134.504882812 308.6171875 155.208984375 c 4
 317.146484375 175.913085938 330.143554688 194.411132812 342.833984375 212.860351562 c 4
 365.721679688 246.13671875 388.032226562 280.020507812 405.193359375 316.581054688 c 4
 422.354492188 353.142578125 434.298828125 392.658203125 435.413085938 433.03125 c 4
 435.625 440.73046875 435.439453125 448.483398438 433.999023438 456.049804688 c 4
 432.55859375 463.616210938 429.818359375 471.0234375 425.2734375 477.2421875 c 4
 417.265625 488.201171875 403.662109375 494.77734375 390.09375 494.44140625 c 4
 376.524414062 494.10546875 363.336914062 486.938476562 355.513671875 475.846679688 c 4
 350.916015625 469.329101562 348.146484375 461.671875 346.399414062 453.888671875 c 4
 344.65234375 446.10546875 343.8828125 438.142578125 342.958984375 430.219726562 c 4
 339.577148438 401.227539062 334.041992188 372.329101562 323.791015625 344.999023438 c 4
 303.12890625 289.916992188 264.353515625 243.623046875 238.243164062 190.905273438 c 4
 229.809570312 173.876953125 222.6796875 156.09375 218.684570312 137.515625 c 4
 214.690429688 118.938476562 213.90234375 99.5 218.051757812 80.9560546875 c 4
 224.899414062 50.3515625 245.204101562 23.548828125 271.305664062 6.1650390625 c 4
 297.407226562 -11.2197265625 328.922851562 -19.568359375 360.272460938 -20.421875 c 4
 422.970703125 -22.12890625 482.680664062 4.744140625 538.16796875 33.98828125 c 4
 543.58984375 36.845703125 549.103515625 39.8125 553.284179688 44.294921875 c 4
 555.375 46.5361328125 557.102539062 49.146484375 558.123046875 52.0361328125 c 4
 559.143554688 54.92578125 559.434570312 58.1025390625 558.723632812 61.083984375 c 4
 558.162109375 63.439453125 556.984375 65.63671875 555.393554688 67.4619140625 c 4
 553.801757812 69.2880859375 551.803710938 70.74609375 549.61328125 71.779296875 c 4
 545.232421875 73.8447265625 540.163085938 74.177734375 535.396484375 73.318359375 c 4
 525.862304688 71.599609375 517.818359375 65.4970703125 509.739257812 60.150390625 c 4
 489.029296875 46.4423828125 465.737304688 36.732421875 441.529296875 31.1845703125 c 4
 414.537109375 24.9990234375 385.694335938 24.0810546875 359.592773438 33.33203125 c 4
 346.541992188 37.95703125 334.325195312 45.1103515625 324.331054688 54.693359375 c 4
 314.336914062 64.2763671875 306.615234375 76.322265625 302.673828125 89.595703125 c 4
432.084960938 671.994140625 m 4
 412.03125 699.658203125 413.598632812 747.91015625 435.111328125 774.454101562 c 4
 449.428710938 792.119140625 480.166992188 798.672851562 501.403320312 790.545898438 c 4
 519.55859375 783.59765625 533.91015625 761.8984375 534.412109375 742.46484375 c 4
 535.270507812 709.150390625 513.252929688 669.190429688 482.143554688 657.233398438 c 4
 465.905273438 650.990234375 442.295898438 657.908203125 432.084960938 671.994140625 c 4
151.624023438 165.294921875 m 4
 146.713867188 162.567382812 141.767578125 159.872070312 137.203125 156.599609375 c 4
 132.637695312 153.327148438 128.436523438 149.44140625 125.400390625 144.715820312 c 4
 122.364257812 139.991210938 120.545898438 134.370117188 120.936523438 128.766601562 c 4
 121.130859375 125.965820312 121.876953125 123.194335938 123.194335938 120.71484375 c 4
 124.51171875 118.234375 126.40625 116.051757812 128.727539062 114.470703125 c 4
 131.21484375 112.77734375 134.153320312 111.797851562 137.142578125 111.454101562 c 4
 140.131835938 111.109375 143.172851562 111.385742188 146.10546875 112.05859375 c 4
 151.970703125 113.40625 157.346679688 116.29296875 162.689453125 119.063476562 c 4
 193.756835938 135.166992188 226.338867188 148.278320312 256.971679688 165.196289062 c 4
 277.081054688 176.301757812 296.393554688 189.100585938 313.103515625 204.864257812 c 4
 329.814453125 220.627929688 343.897460938 239.471679688 352.428710938 260.80078125 c 4
 366.774414062 296.669921875 364.1875 338.904296875 345.571289062 372.75390625 c 5
 335.296875 355.036132812 324.940429688 337.365234375 314.502929688 319.743164062 c 4
 303.450195312 301.083007812 292.267578125 282.41796875 278.865234375 265.3671875 c 4
 245.295898438 222.655273438 199.111328125 191.6796875 151.624023438 165.294921875 c 4
EndSplineSet
EndChar

StartChar: j
Encoding: 106 106 9
Width: 680
VWidth: 0
Flags: HW
LayerCount: 2
UndoRedoHistory
Layer: 1
Undoes
EndUndoes
Redoes
EndRedoes
EndUndoRedoHistory
Fore
SplineSet
229.53515625 116.727539062 m 4
 297.741210938 136.888671875 359.811523438 177.692382812 404.776367188 232.798828125 c 4
 419.430664062 250.7578125 432.279296875 270.15625 443.612304688 290.375976562 c 4
 451.508789062 304.463867188 458.677734375 318.959960938 465.080078125 333.786132812 c 5
 469.944335938 216.932617188 l 5
 458.73828125 202.310546875 446.107421875 188.78125 432.288085938 176.598632812 c 4
 377.543945312 128.336914062 306.92578125 103.142578125 239.815429688 74.4658203125 c 4
 231.942382812 71.1015625 223.852539062 67.6201171875 215.293945312 67.3837890625 c 4
 211.014648438 67.265625 206.668945312 67.994140625 202.822265625 69.8720703125 c 4
 198.975585938 71.7509765625 195.655273438 74.828125 193.837890625 78.7041015625 c 4
 191.72265625 83.2109375 191.762695312 88.5693359375 193.44921875 93.2529296875 c 4
 195.135742188 97.9375 198.370117188 101.96875 202.251953125 105.0859375 c 4
 210.013671875 111.322265625 219.987304688 113.905273438 229.53515625 116.727539062 c 4
479.469726562 403.190429688 m 4
 484.016601562 424.067382812 487.873046875 445.951171875 500.44921875 463.223632812 c 4
 506.737304688 471.860351562 515.225585938 479.102539062 525.262695312 482.760742188 c 4
 535.299804688 486.418945312 546.932617188 486.223632812 556.314453125 481.11328125 c 4
 563.344726562 477.284179688 568.822265625 470.897460938 572.17578125 463.62890625 c 4
 575.530273438 456.360351562 576.837890625 448.248046875 576.650390625 440.245117188 c 4
 576.275390625 424.239257812 570.140625 409.00390625 564.15625 394.154296875 c 4
 527.936523438 304.28125 493.936523438 213.448242188 465.250976562 120.89453125 c 4
 440.8515625 42.169921875 419.239257812 -39.94140625 369.100585938 -105.35546875 c 4
 334.833984375 -150.061523438 287.40625 -185.338867188 233.389648438 -201.307617188 c 4
 179.372070312 -217.275390625 118.877929688 -213.016601562 69.4609375 -185.984375 c 4
 56.9892578125 -179.162109375 45.078125 -170.791992188 36.41015625 -159.525390625 c 4
 32.076171875 -153.891601562 28.5966796875 -147.565429688 26.4833984375 -140.779296875 c 4
 24.37109375 -133.993164062 23.6455078125 -126.740234375 24.7060546875 -119.711914062 c 4
 25.9619140625 -111.401367188 29.8173828125 -103.393554688 36.0146484375 -97.71484375 c 4
 42.2119140625 -92.037109375 50.8017578125 -88.8603515625 59.154296875 -89.7978515625 c 4
 63.7744140625 -90.3154296875 68.212890625 -92.041015625 72.1728515625 -94.4755859375 c 4
 76.1328125 -96.91015625 79.6318359375 -100.041992188 82.7724609375 -103.469726562 c 4
 89.052734375 -110.32421875 93.916015625 -118.33984375 99.693359375 -125.624023438 c 4
 115.818359375 -145.956054688 139.206054688 -160.278320312 164.520507812 -165.984375 c 4
 189.834960938 -171.690429688 216.907226562 -168.848632812 240.73046875 -158.561523438 c 4
 261.618164062 -149.541992188 279.891601562 -135.016601562 294.71484375 -117.756835938 c 4
 309.538085938 -100.497070312 321.0078125 -80.5419921875 330.063476562 -59.669921875 c 4
 348.173828125 -17.92578125 356.703125 27.208984375 368.786132812 71.0791015625 c 4
 399.795898438 183.665039062 454.615234375 289.086914062 479.469726562 403.190429688 c 4
553.426757812 657.993164062 m 4
 533.373046875 685.657226562 534.940429688 733.908203125 556.453125 760.452148438 c 4
 570.772460938 778.118164062 601.508789062 784.673828125 622.744140625 776.545898438 c 4
 640.901367188 769.596679688 655.252929688 747.8984375 655.752929688 728.465820312 c 4
 656.612304688 695.1484375 634.594726562 655.188476562 603.485351562 643.231445312 c 4
 587.247070312 636.990234375 563.637695312 643.908203125 553.426757812 657.993164062 c 4
EndSplineSet
EndChar

StartChar: l
Encoding: 108 108 10
Width: 680
VWidth: 0
Flags: HW
LayerCount: 2
UndoRedoHistory
Layer: 1
Undoes
EndUndoes
Redoes
EndRedoes
EndUndoRedoHistory
Fore
SplineSet
547.272460938 810.0234375 m 0
 537.51171875 814.734375 526.6484375 817.141601562 515.811523438 816.993164062 c 0
 504.953125 816.845703125 494.219726562 814.1640625 484.203125 809.971679688 c 0
 464.178710938 801.588867188 447.1796875 787.412109375 431.188476562 772.732421875 c 0
 283.087890625 636.776367188 197.181640625 443.075195312 160.9765625 245.3203125 c 0
 154.389648438 209.337890625 149.299804688 172.693359375 152.436523438 136.248046875 c 0
 155.572265625 99.8017578125 167.52734375 63.2373046875 191.599609375 35.693359375 c 0
 212.256835938 12.0576171875 240.955078125 -3.8251953125 271.33203125 -11.734375 c 0
 301.709960938 -19.642578125 333.731445312 -19.888671875 364.813476562 -15.501953125 c 0
 426.978515625 -6.7294921875 484.9375 19.9404296875 544.51171875 39.74609375 c 0
 553.905273438 42.869140625 563.68359375 46.01171875 570.951171875 52.7333984375 c 0
 574.584960938 56.0947265625 577.490234375 60.33984375 578.791992188 65.1162109375 c 0
 580.092773438 69.8916015625 579.688476562 75.2080078125 577.216796875 79.49609375 c 0
 575.227539062 82.9462890625 571.993164062 85.5986328125 568.34375 87.1923828125 c 0
 564.694335938 88.787109375 560.649414062 89.3623046875 556.670898438 89.19921875 c 0
 548.712890625 88.873046875 541.18359375 85.70703125 533.840820312 82.623046875 c 0
 488.901367188 63.7470703125 443.198242188 46.0927734375 395.60546875 35.5654296875 c 0
 369.19921875 29.7236328125 341.856445312 26.103515625 315.118164062 30.1669921875 c 0
 288.379882812 34.23046875 262.112304688 46.7158203125 245.7421875 68.244140625 c 0
 233.671875 84.1162109375 227.625 103.944335938 225.666992188 123.788085938 c 0
 223.709960938 143.631835938 225.616210938 163.645507812 228.12109375 183.427734375 c 0
 239.361328125 272.209960938 262.681640625 359.295898438 294.94140625 442.76953125 c 0
 338.088867188 554.413085938 398.9140625 661.81640625 488.7421875 740.916015625 c 0
 493.38671875 745.005859375 498.186523438 749.069335938 503.829101562 751.610351562 c 0
 506.650390625 752.880859375 509.668945312 753.75390625 512.75390625 753.98828125 c 0
 515.83984375 754.221679688 518.995117188 753.801757812 521.840820312 752.5859375 c 0
 525.124023438 751.182617188 527.918945312 748.747070312 529.974609375 745.828125 c 0
 532.030273438 742.909179688 533.368164062 739.51953125 534.122070312 736.030273438 c 0
 535.629882812 729.049804688 534.837890625 721.798828125 533.896484375 714.719726562 c 0
 513.133789062 558.46875 423.693359375 418.225585938 313.133789062 305.876953125 c 0
 259.21875 251.08984375 199.530273438 201.400390625 132.533203125 163.719726562 c 0
 120.857421875 157.153320312 108.532226562 150.575195312 100.833984375 139.612304688 c 0
 96.9853515625 134.131835938 94.4521484375 127.596679688 94.408203125 120.899414062 c 0
 94.36328125 114.202148438 96.9814453125 107.375976562 102.030273438 102.974609375 c 0
 105.52734375 99.92578125 110.036132812 98.1416015625 114.643554688 97.595703125 c 0
 119.251953125 97.05078125 123.955078125 97.7041015625 128.373046875 99.1240234375 c 0
 137.208007812 101.963867188 144.764648438 107.715820312 152.11328125 113.383789062 c 0
 223.688476562 168.58984375 294.078125 225.740234375 357.248046875 290.395507812 c 0
 465.732421875 401.434570312 553.501953125 538.1484375 581.056640625 690.919921875 c 0
 584.98828125 712.71875 587.671875 735.192382812 583.462890625 756.939453125 c 0
 581.357421875 767.818359375 577.497070312 778.439453125 571.372070312 787.674804688 c 0
 565.259765625 796.890625 556.922851562 804.62109375 547.272460938 810.0234375 c 0
EndSplineSet
EndChar

StartChar: m
Encoding: 109 109 11
Width: 680
VWidth: 0
Flags: HW
LayerCount: 2
UndoRedoHistory
Layer: 1
Undoes
EndUndoes
Redoes
EndRedoes
EndUndoRedoHistory
Fore
SplineSet
121.12109375 445.42578125 m 0
 122.6015625 436.1171875 127.546875 427.783203125 130.96484375 418.998046875 c 0
 137.94140625 401.063476562 138.5 381.125 135.4765625 362.120117188 c 0
 132.453125 343.115234375 125.999023438 324.842773438 119.249023438 306.822265625 c 0
 90.63671875 230.440429688 56.1572265625 156.416992188 24.212890625 81.3681640625 c 0
 17.8134765625 66.3349609375 11.40625 50.728515625 11.5712890625 34.390625 c 0
 11.654296875 26.2216796875 13.4521484375 17.9814453125 17.4814453125 10.8740234375 c 0
 21.509765625 3.767578125 27.86328125 -2.1396484375 35.5380859375 -4.9404296875 c 0
 43.6357421875 -7.896484375 52.8203125 -7.248046875 60.7919921875 -3.966796875 c 0
 68.763671875 -0.6865234375 75.5625 5.0869140625 80.8330078125 11.908203125 c 0
 91.3740234375 25.55078125 95.787109375 42.798828125 100.321289062 59.4326171875 c 0
 116.69921875 119.516601562 137.827148438 178.221679688 161.060546875 236.001953125 c 0
 180.236328125 283.690429688 200.946289062 331.0546875 213.049804688 381.0078125 c 0
 216.963867188 397.162109375 219.9765625 413.752929688 218.8203125 430.333984375 c 0
 217.6640625 446.915039062 211.994140625 463.6328125 200.481445312 475.62109375 c 0
 193.969726562 482.40234375 185.686523438 487.518554688 176.625976562 490.025390625 c 0
 167.564453125 492.53125 157.744140625 492.381835938 148.853515625 489.326171875 c 0
 139.962890625 486.26953125 132.0625 480.276367188 126.9609375 472.379882812 c 0
 121.859375 464.483398438 119.643554688 454.7109375 121.12109375 445.42578125 c 0
301.358398438 231.049804688 m 0
 301.350585938 231.049804688 l 1
 276.0078125 177.836914062 253.044921875 123.490234375 232.553710938 68.2265625 c 0
 227.712890625 55.171875 222.944335938 41.6708984375 223.409179688 27.755859375 c 0
 223.641601562 20.7978515625 225.23046875 13.8203125 228.586914062 7.7216796875 c 0
 231.943359375 1.623046875 237.134765625 -3.5546875 243.5078125 -6.3564453125 c 0
 251.205078125 -9.7412109375 260.252929688 -9.4609375 268.086914062 -6.408203125 c 0
 275.921875 -3.3564453125 282.580078125 2.3037109375 287.6171875 9.0361328125 c 0
 297.692382812 22.5 301.291015625 39.5712890625 304.881835938 56 c 0
 332.423828125 182.021484375 376.974609375 308.661132812 464.340820312 403.56640625 c 0
 475.901367188 416.124023438 488.543945312 428.323242188 504.243164062 435.022460938 c 0
 512.092773438 438.373046875 520.63671875 440.263671875 529.162109375 439.887695312 c 0
 537.688476562 439.51171875 546.189453125 436.797851562 552.990234375 431.642578125 c 0
 558.83984375 427.208984375 563.309570312 421.076171875 566.17578125 414.319335938 c 0
 569.041992188 407.5625 570.342773438 400.197265625 570.439453125 392.858398438 c 0
 570.634765625 378.180664062 566.125 363.860351562 560.904296875 350.141601562 c 0
 531.015625 271.596679688 476.85546875 204.049804688 447.393554688 125.34375 c 0
 441.219726562 108.850585938 436.127929688 91.744140625 435.154296875 74.16015625 c 0
 434.181640625 56.576171875 437.587890625 38.3623046875 447.28125 23.6591796875 c 0
 457.159179688 8.677734375 473.092773438 -1.79296875 490.336914062 -6.7578125 c 0
 507.580078125 -11.7236328125 526.053710938 -11.451171875 543.639648438 -7.8818359375 c 0
 578.811523438 -0.7451171875 609.916992188 18.87890625 641.74609375 35.4609375 c 0
 648.931640625 39.205078125 656.366210938 42.939453125 661.8046875 48.9453125 c 0
 664.5234375 51.9482421875 666.69140625 55.5068359375 667.744140625 59.4189453125 c 0
 668.797851562 63.3310546875 668.6875 67.607421875 667.084960938 71.328125 c 0
 665.168945312 75.7763671875 661.204101562 79.18359375 656.678710938 80.908203125 c 0
 652.15234375 82.6318359375 647.116210938 82.76171875 642.369140625 81.802734375 c 0
 632.875 79.8837890625 624.793945312 73.9111328125 616.888671875 68.314453125 c 0
 604.887695312 59.818359375 592.512695312 51.833984375 579.649414062 44.7099609375 c 0
 568.879882812 38.74609375 557.532226562 33.3115234375 545.333007812 31.6591796875 c 0
 539.233398438 30.8330078125 532.966796875 30.98046875 526.995117188 32.47265625 c 0
 521.0234375 33.96484375 515.352539062 36.8330078125 510.864257812 41.0458984375 c 0
 503.635742188 47.83203125 499.8828125 57.7294921875 498.98828125 67.603515625 c 0
 498.09375 77.478515625 499.827148438 87.408203125 502.205078125 97.0341796875 c 0
 511.93359375 136.419921875 532.330078125 172.282226562 554.11328125 206.5078125 c 0
 575.895507812 240.733398438 599.411132812 274.098632812 616.430664062 310.924804688 c 0
 629.491210938 339.185546875 638.68359375 370.088867188 636.3515625 401.133789062 c 0
 635.185546875 416.65625 631.092773438 432.041992188 623.619140625 445.696289062 c 0
 616.145507812 459.350585938 605.224609375 471.225585938 591.791015625 479.087890625 c 0
 578.831054688 486.673828125 563.775390625 490.396484375 548.76171875 490.66015625 c 0
 533.747070312 490.922851562 518.774414062 487.802734375 504.748046875 482.439453125 c 0
 476.696289062 471.713867188 452.822265625 452.396484375 430.702148438 432.08203125 c 0
 417.391601562 419.857421875 404.510742188 407.147460938 392.470703125 393.668945312 c 0
 350.747070312 346.959960938 319.407226562 291.024414062 301.358398438 231.049804688 c 0
178.31640625 381.072265625 m 0
 160.939453125 236.22265625 l 1
 180.075195312 295.052734375 209.935546875 350.375976562 248.612304688 398.659179688 c 0
 259.83984375 412.674804688 272.180664062 426.405273438 288.092773438 434.729492188 c 0
 296.048828125 438.891601562 304.833984375 441.61328125 313.803710938 442.0078125 c 0
 322.774414062 442.401367188 331.9296875 440.39453125 339.590820312 435.711914062 c 0
 348.551757812 430.235351562 355.126953125 421.293945312 358.71484375 411.423828125 c 0
 362.303710938 401.553710938 363.041015625 390.798828125 361.9375 380.354492188 c 0
 359.73046875 359.466796875 350.473632812 340.1015625 343.176757812 320.405273438 c 0
 341.647460938 316.278320312 340.189453125 312.072265625 339.7421875 307.693359375 c 0
 339.295898438 303.315429688 339.940429688 298.694335938 342.345703125 295.0078125 c 0
 344.466796875 291.7578125 347.861328125 289.426757812 351.579101562 288.314453125 c 0
 355.297851562 287.202148438 359.315429688 287.265625 363.084960938 288.1875 c 0
 370.624023438 290.032226562 376.948242188 295.112304688 382.427734375 300.610351562 c 0
 399.158203125 317.397460938 410.333007812 339.196289062 416.65625 362.038085938 c 0
 422.98046875 384.880859375 424.5859375 409.4609375 417.995117188 432.228515625 c 0
 411.404296875 454.995117188 395.9921875 475.720703125 374.54296875 485.805664062 c 0
 362.447265625 491.4921875 348.842773438 493.676757812 335.499023438 492.909179688 c 0
 322.15625 492.141601562 309.065429688 488.487304688 296.874023438 483.0078125 c 0
 272.493164062 472.05078125 251.994140625 454.115234375 232.548828125 435.774414062 c 0
 213.8671875 418.153320312 195.776367188 399.905273438 178.31640625 381.072265625 c 0
EndSplineSet
EndChar

StartChar: o
Encoding: 111 111 12
Width: 680
VWidth: 0
Flags: HW
LayerCount: 2
UndoRedoHistory
Layer: 1
Undoes
EndUndoes
Redoes
EndRedoes
EndUndoRedoHistory
Fore
SplineSet
410.079101562 517.9296875 m 0
 350.805664062 514.555664062 293.170898438 491.766601562 245.967773438 455.758789062 c 0
 198.764648438 419.750976562 161.90234375 370.86328125 137.79296875 316.610351562 c 0
 114.983398438 265.283203125 103.353515625 207.990234375 111.58984375 152.430664062 c 0
 119.825195312 96.8701171875 149.321289062 43.4189453125 196.096679688 12.3251953125 c 0
 236.155273438 -14.302734375 286.762695312 -23.1787109375 334.290039062 -15.7646484375 c 0
 381.81640625 -8.3515625 426.209960938 14.62109375 462.600585938 46.076171875 c 0
 521.970703125 97.39453125 560.556640625 171.848632812 569.256835938 249.83984375 c 0
 576.288085938 312.869140625 563.07421875 380.1015625 522.9453125 429.212890625 c 0
 518.112304688 435.127929688 512.890625 440.78125 506.83984375 445.444335938 c 0
 500.790039062 450.107421875 493.86328125 453.768554688 486.392578125 455.36328125 c 0
 478.921875 456.958007812 470.8828125 456.390625 464.014648438 453.045898438 c 0
 457.147460938 449.701171875 451.592773438 443.44140625 449.80078125 436.015625 c 0
 448.3515625 430.01171875 449.384765625 423.571289062 451.959960938 417.95703125 c 0
 454.534179688 412.342773438 458.57421875 407.499023438 463.1328125 403.33203125 c 0
 472.250976562 394.997070312 483.458984375 389.2109375 492.584960938 380.885742188 c 0
 507.409179688 367.360351562 515.788085938 347.825195312 518.815429688 327.98828125 c 0
 521.842773438 308.150390625 519.916992188 287.8828125 516.734375 268.069335938 c 0
 509.833007812 225.100585938 496.983398438 183.0078125 477.686523438 144 c 0
 456.1484375 100.4609375 425.262695312 59.7431640625 382.409179688 36.87109375 c 0
 360.983398438 25.4345703125 336.831054688 18.759765625 312.545898438 19.0693359375 c 0
 288.260742188 19.3798828125 263.89453125 26.8681640625 244.473632812 41.453125 c 0
 225.232421875 55.90234375 211.38671875 76.8154296875 203.188476562 99.4384765625 c 0
 194.990234375 122.061523438 192.201171875 146.372070312 192.47265625 170.43359375 c 0
 193.021484375 219.071289062 205.814453125 266.889648438 223.498046875 312.201171875 c 0
 237.73046875 348.671875 255.572265625 384.465820312 282.456054688 412.924804688 c 0
 295.897460938 427.155273438 311.5390625 439.41796875 329.0390625 448.189453125 c 0
 346.538085938 456.9609375 365.92578125 462.18359375 385.5 462.396484375 c 0
 400.640625 462.561523438 416.095703125 459.795898438 430.74609375 463.625 c 0
 438.0703125 465.5390625 445.096679688 469.197265625 450.063476562 474.911132812 c 0
 452.547851562 477.767578125 454.48828125 481.114257812 455.594726562 484.734375 c 0
 456.701171875 488.354492188 456.959960938 492.249023438 456.201171875 495.958007812 c 0
 455.266601562 500.521484375 452.8046875 504.7109375 449.501953125 507.99609375 c 0
 446.19921875 511.282226562 442.08203125 513.689453125 437.706054688 515.287109375 c 0
 428.953125 518.481445312 419.380859375 518.458984375 410.079101562 517.9296875 c 0
EndSplineSet
EndChar

StartChar: n
Encoding: 110 110 13
Width: 680
VWidth: 0
Flags: HW
LayerCount: 2
UndoRedoHistory
Layer: 1
Undoes
EndUndoes
Redoes
EndRedoes
EndUndoRedoHistory
Fore
SplineSet
164.126953125 446.725585938 m 0
 165.615234375 437.416992188 170.559570312 429.084960938 173.97265625 420.297851562 c 0
 180.939453125 402.36328125 181.474609375 382.42578125 178.443359375 363.42578125 c 0
 175.411132812 344.424804688 168.962890625 326.155273438 162.25390625 308.122070312 c 0
 133.8125 231.672851562 100.139648438 157.297851562 67.220703125 82.6669921875 c 0
 60.345703125 67.08203125 53.376953125 50.91015625 53.4091796875 33.8759765625 c 0
 53.4248046875 25.359375 55.2744140625 16.748046875 59.509765625 9.3583984375 c 0
 63.7451171875 1.9697265625 70.47265625 -4.1201171875 78.54296875 -6.8408203125 c 0
 86.8974609375 -9.6572265625 96.27734375 -8.72265625 104.326171875 -5.1259765625 c 0
 112.375976562 -1.5283203125 119.143554688 4.5859375 124.333007812 11.7138671875 c 0
 134.711914062 25.96875 138.795898438 43.6904296875 143.327148438 60.7314453125 c 0
 159.424804688 121.267578125 183.923828125 179.173828125 207.268554688 237.30078125 c 0
 226.293945312 284.67578125 244.6640625 332.541992188 256.057617188 382.307617188 c 0
 259.76171875 398.48828125 262.733398438 415.049804688 261.614257812 431.611328125 c 0
 260.494140625 448.172851562 254.934570312 464.901367188 243.487304688 476.921875 c 0
 236.99609375 483.73828125 228.712890625 488.883789062 219.643554688 491.403320312 c 0
 210.575195312 493.922851562 200.740234375 493.7734375 191.841796875 490.708007812 c 0
 182.942382812 487.641601562 175.0390625 481.630859375 169.942382812 473.71875 c 0
 164.845703125 465.805664062 162.640625 456.01953125 164.126953125 446.725585938 c 0
236.750976562 388.927734375 m 0
 206.740234375 235.533203125 l 1
 227.799804688 287.004882812 257.708007812 334.841796875 294.758789062 376.314453125 c 0
 319.897460938 404.452148438 349.834960938 430.515625 386.387695312 439.87109375 c 0
 404.6640625 444.548828125 424.286132812 444.759765625 442.224609375 438.916992188 c 0
 460.163085938 433.075195312 476.263671875 420.934570312 485.482421875 404.475585938 c 0
 494.528320312 388.323242188 496.590820312 368.951171875 494.260742188 350.584960938 c 0
 491.931640625 332.219726562 485.4765625 314.639648438 478.321289062 297.565429688 c 0
 453.543945312 238.443359375 419.713867188 182.848632812 402.2578125 121.166992188 c 0
 397.7734375 105.321289062 394.385742188 88.998046875 394.657226562 72.5322265625 c 0
 394.928710938 56.06640625 399.064453125 39.3525390625 408.538085938 25.8818359375 c 0
 418.638671875 11.5205078125 434.370117188 1.6044921875 451.291015625 -3.0771484375 c 0
 468.212890625 -7.759765625 486.259765625 -7.44921875 503.475585938 -4 c 0
 537.90625 2.896484375 568.52734375 21.7158203125 599.801757812 37.6826171875 c 0
 607.044921875 41.3798828125 614.541992188 45.0732421875 620.008789062 51.09375 c 0
 622.7421875 54.103515625 624.913085938 57.681640625 625.944335938 61.615234375 c 0
 626.975585938 65.5478515625 626.81640625 69.845703125 625.142578125 73.55078125 c 0
 623.165039062 77.9287109375 619.168945312 81.2314453125 614.65234375 82.8662109375 c 0
 610.134765625 84.5 605.14453125 84.55859375 600.443359375 83.5751953125 c 0
 591.040039062 81.6083984375 583.0078125 75.7587890625 574.9453125 70.5361328125 c 0
 565.059570312 64.1328125 554.698242188 58.484375 544.106445312 53.3330078125 c 0
 533.205078125 48.03125 521.862304688 43.19921875 509.836914062 41.6669921875 c 0
 503.825195312 40.9013671875 497.677734375 40.9794921875 491.748046875 42.2373046875 c 0
 485.819335938 43.494140625 480.110351562 45.9521484375 475.321289062 49.6669921875 c 0
 470.548828125 53.3701171875 466.756835938 58.2705078125 464.090820312 63.6904296875 c 0
 461.424804688 69.111328125 459.865234375 75.0419921875 459.208007812 81.046875 c 0
 457.892578125 93.0556640625 460.147460938 105.18359375 463.370117188 116.827148438 c 0
 479.270507812 174.274414062 517.88671875 222.333984375 544.19140625 275.822265625 c 0
 557.344726562 302.567382812 567.54296875 331.21875 569.64453125 360.948242188 c 0
 571.74609375 390.676757812 565.192382812 421.677734375 547.490234375 445.655273438 c 0
 533.099609375 465.147460938 511.909179688 479.17578125 488.826171875 486.536132812 c 0
 465.7421875 493.896484375 440.854492188 494.791015625 416.939453125 490.90625 c 0
 369.108398438 483.137695312 326.298828125 457.07421875 287.166992188 428.493164062 c 0
 269.913085938 415.890625 253.09375 402.692382812 236.750976562 388.927734375 c 0
EndSplineSet
EndChar

StartChar: p
Encoding: 112 112 14
Width: 680
VWidth: 0
Flags: HW
LayerCount: 2
UndoRedoHistory
Layer: 1
Undoes
EndUndoes
Redoes
EndRedoes
EndUndoRedoHistory
Fore
SplineSet
117.161132812 -165.514648438 m 4
 140.793945312 -81.5390625 182.53125 -4.0244140625 217.940429688 75.7041015625 c 4
 259.596679688 169.500976562 292.715820312 266.966796875 336.049804688 360 c 4
 343.203125 375.356445312 350.725585938 390.890625 353.098632812 407.6640625 c 4
 354.28515625 416.05078125 354.137695312 424.688476562 351.997070312 432.883789062 c 4
 349.85546875 441.079101562 345.659179688 448.819335938 339.482421875 454.615234375 c 4
 331.052734375 462.524414062 319.014648438 466.430664062 307.55078125 464.953125 c 4
 296.086914062 463.475585938 285.423828125 456.634765625 279.322265625 446.818359375 c 4
 272.717773438 436.192382812 271.610351562 423.193359375 269.966796875 410.791015625 c 4
 263.918945312 365.138671875 248.458007812 321.319335938 232.404296875 278.157226562 c 4
 188.850585938 161.063476562 140.0859375 45.642578125 79.8984375 -63.8349609375 c 4
 62.5791015625 -95.337890625 44.0908203125 -126.9140625 36.0458984375 -161.953125 c 4
 33.1787109375 -174.439453125 31.7080078125 -187.6328125 35.1494140625 -199.973632812 c 4
 36.869140625 -206.143554688 39.8310546875 -212.014648438 44.1025390625 -216.788085938 c 4
 48.375 -221.560546875 53.9892578125 -225.200195312 60.20703125 -226.7421875 c 4
 67.744140625 -228.611328125 75.884765625 -227.315429688 82.84375 -223.869140625 c 4
 89.8017578125 -220.421875 95.6220703125 -214.928710938 100.133789062 -208.608398438 c 4
 109.15625 -195.96875 112.954101562 -180.463867188 117.161132812 -165.514648438 c 4
302.868164062 374.255859375 m 4
 310.567382812 308.091796875 l 5
 316.099609375 321.809570312 323.203125 334.892578125 331.692382812 347.00390625 c 4
 354.262695312 379.205078125 387.60546875 404.6484375 425.899414062 413.587890625 c 4
 445.045898438 418.057617188 465.21875 418.366210938 484.368164062 413.90625 c 4
 503.517578125 409.447265625 521.599609375 400.170898438 535.999023438 386.783203125 c 4
 552.154296875 371.763671875 563.411132812 351.830078125 569.336914062 330.58203125 c 4
 575.26171875 309.334960938 575.987304688 286.8125 572.89453125 264.97265625 c 4
 565.6953125 214.143554688 536.470703125 166.015625 492.489257812 139.538085938 c 4
 466.75 124.04296875 437.059570312 116.153320312 411.028320312 101.155273438 c 4
 398.012695312 93.65625 385.865234375 84.275390625 376.848632812 72.26171875 c 4
 367.83203125 60.2470703125 362.109375 45.416015625 362.655273438 30.404296875 c 4
 363.194335938 15.5634765625 369.887695312 1.2509765625 380.0546875 -9.5732421875 c 4
 390.220703125 -20.3974609375 403.686523438 -27.8447265625 417.954101562 -31.9619140625 c 4
 446.490234375 -40.1962890625 477.104492188 -35.388671875 505.920898438 -28.1943359375 c 4
 514.083007812 -26.1572265625 522.516601562 -23.7666015625 528.810546875 -18.18359375 c 4
 531.95703125 -15.392578125 534.477539062 -11.8134765625 535.6328125 -7.76953125 c 4
 536.788085938 -3.724609375 536.498046875 0.7939453125 534.458007812 4.47265625 c 4
 532.584960938 7.849609375 529.338867188 10.361328125 525.717773438 11.7041015625 c 4
 522.096679688 13.046875 518.124023438 13.27734375 514.294921875 12.7666015625 c 4
 506.638671875 11.7451171875 499.700195312 7.912109375 492.721679688 4.6005859375 c 4
 484.787109375 0.833984375 476.518554688 -2.3466796875 467.896484375 -4.02734375 c 4
 459.275390625 -5.7080078125 450.264648438 -5.8505859375 441.770507812 -3.6123046875 c 4
 433.27734375 -1.375 425.32421875 3.34375 419.913085938 10.2626953125 c 4
 414.501953125 17.1826171875 411.8203125 26.36328125 413.439453125 34.99609375 c 4
 415.126953125 43.9990234375 421.219726562 51.6865234375 428.516601562 57.22265625 c 4
 435.814453125 62.7578125 444.31640625 66.4375 452.6875 70.15625 c 4
 513.321289062 97.0927734375 574.120117188 130.838867188 611.720703125 185.50390625 c 4
 634.866210938 219.153320312 647.987304688 259.9609375 646.771484375 300.784179688 c 4
 645.556640625 341.606445312 629.634765625 382.170898438 601.299804688 411.583007812 c 4
 569.333984375 444.766601562 522.803710938 462.41796875 476.728515625 462.340820312 c 4
 430.65234375 462.264648438 385.348632812 445.227539062 348.33203125 417.791015625 c 4
 331.430664062 405.263671875 316.116210938 390.598632812 302.868164062 374.255859375 c 4
EndSplineSet
EndChar

StartChar: q
Encoding: 113 113 16
Width: 680
VWidth: 0
Flags: HW
LayerCount: 2
UndoRedoHistory
Layer: 1
Undoes
EndUndoes
Redoes
EndRedoes
EndUndoRedoHistory
Fore
SplineSet
65.068359375 191.447265625 m 0
 59.0390625 158.89453125 61.4296875 124.817382812 71.9453125 93.42578125 c 0
 82.431640625 62.123046875 101.372070312 33.1455078125 128.125976562 13.8056640625 c 0
 153.3359375 -4.41796875 184.588867188 -13.419921875 215.6875 -14.1396484375 c 0
 246.778320312 -14.8583984375 277.750976562 -7.5869140625 306.372070312 4.5791015625 c 0
 363.618164062 28.912109375 410.6484375 71.740234375 456.73046875 113.520507812 c 0
 462.899414062 119.11328125 469.1015625 124.732421875 474.31640625 131.223632812 c 0
 479.53125 137.715820312 483.759765625 145.176757812 485.422851562 153.3359375 c 0
 487.084960938 161.495117188 485.978515625 170.411132812 481.325195312 177.31640625 c 0
 478.999023438 180.76953125 475.818359375 183.666015625 472.090820312 185.520507812 c 0
 468.36328125 187.374023438 464.088867188 188.163085938 459.962890625 187.60546875 c 0
 456.563476562 187.146484375 453.31640625 185.79296875 450.458007812 183.897460938 c 0
 447.599609375 182.002929688 445.1171875 179.577148438 442.961914062 176.909179688 c 0
 438.650390625 171.573242188 435.65234375 165.327148438 432.344726562 159.317382812 c 0
 413.758789062 125.5546875 384.8125 98.5546875 353.5703125 75.9873046875 c 0
 324.8671875 55.2548828125 293.006835938 37.4580078125 258.065429688 31.734375 c 0
 240.59375 28.873046875 222.515625 29.125 205.35546875 33.4775390625 c 0
 188.194335938 37.8310546875 171.981445312 46.3720703125 159.37890625 58.8056640625 c 0
 141.70703125 76.2392578125 131.8828125 100.584960938 128.9609375 125.236328125 c 0
 126.0390625 149.887695312 129.59375 174.920898438 135.743164062 198.970703125 c 0
 157.206054688 282.907226562 210.368164062 356.907226562 277.818359375 411.279296875 c 0
 294.772460938 424.946289062 312.927734375 437.627929688 333.43359375 444.956054688 c 0
 353.940429688 452.284179688 377.180664062 453.845703125 397.28125 445.466796875 c 0
 410.041015625 440.147460938 421.272460938 431.012695312 434.767578125 428.01171875 c 0
 441.514648438 426.51171875 448.822265625 426.690429688 455.049804688 429.689453125 c 0
 458.1640625 431.189453125 460.961914062 433.381835938 463.03515625 436.147460938 c 0
 465.108398438 438.912109375 466.439453125 442.255859375 466.674804688 445.703125 c 0
 467.041992188 451.0859375 464.732421875 456.399414062 461.288085938 460.55078125 c 0
 457.842773438 464.702148438 453.33203125 467.827148438 448.7109375 470.610351562 c 0
 429.995117188 481.885742188 408.541015625 488.352539062 386.780273438 490.326171875 c 0
 365.01953125 492.30078125 342.95703125 489.848632812 321.870117188 484.12109375 c 0
 279.702148438 472.666015625 242.030273438 448.477539062 208.146484375 420.885742188 c 0
 172.365234375 391.748046875 139.802734375 358.211914062 114.860351562 319.389648438 c 0
 89.958984375 280.629882812 72.91796875 236.84375 65.068359375 191.447265625 c 0
376.204101562 -150.8125 m 0
 412.409179688 -48.1533203125 448.7421875 54.478515625 487.940429688 156.032226562 c 0
 522.041015625 244.379882812 558.401367188 332.098632812 603.86328125 415.173828125 c 0
 608.267578125 423.221679688 612.78515625 431.290039062 615.56640625 440.032226562 c 0
 618.348632812 448.774414062 619.30078125 458.364257812 616.487304688 467.096679688 c 0
 614.278320312 473.951171875 609.702148438 480.086914062 603.546875 483.827148438 c 0
 597.392578125 487.567382812 589.67578125 488.791992188 582.763671875 486.768554688 c 0
 576.625976562 484.971679688 571.399414062 480.791015625 567.326171875 475.860351562 c 0
 563.252929688 470.9296875 560.215820312 465.2421875 557.2421875 459.580078125 c 0
 493.924804688 338.984375 447.095703125 210.548828125 401.19921875 82.3076171875 c 0
 378.006835938 17.505859375 354.9453125 -47.5 325.296875 -109.61328125 c 0
 321.724609375 -117.096679688 318.048828125 -124.557617188 315.3203125 -132.387695312 c 0
 312.590820312 -140.21875 310.818359375 -148.483398438 311.192382812 -156.767578125 c 0
 311.56640625 -165.051757812 314.206054688 -173.379882812 319.522460938 -179.744140625 c 0
 322.180664062 -182.92578125 325.483398438 -185.5859375 329.220703125 -187.381835938 c 0
 332.95703125 -189.177734375 337.129882812 -190.098632812 341.271484375 -189.90625 c 0
 345.918945312 -189.690429688 350.452148438 -188.081054688 354.381835938 -185.588867188 c 0
 358.311523438 -183.09765625 361.655273438 -179.74609375 364.416992188 -176.000976562 c 0
 369.939453125 -168.509765625 373.109375 -159.588867188 376.204101562 -150.8125 c 0
572.938476562 39.9150390625 m 0
 582.474609375 41.515625 592.502929688 42.7177734375 600.485351562 48.17578125 c 0
 604.4765625 50.904296875 607.831054688 54.71484375 609.458984375 59.267578125 c 0
 610.272460938 61.5439453125 610.645507812 63.9853515625 610.467773438 66.396484375 c 0
 610.290039062 68.8076171875 609.555664062 71.1845703125 608.274414062 73.234375 c 0
 606.892578125 75.4443359375 604.897460938 77.2421875 602.635742188 78.537109375 c 0
 600.374023438 79.83203125 597.850585938 80.6357421875 595.278320312 81.060546875 c 0
 590.135742188 81.9111328125 584.874023438 81.2646484375 579.712890625 80.533203125 c 0
 513.03125 71.087890625 446.48828125 46.1904296875 398.9453125 -1.509765625 c 0
 389.569335938 -10.916015625 381.004882812 -21.12890625 373.376953125 -32 c 5
 374.21484375 -152.004882812 l 1
 378.986328125 -138.942382812 384.111328125 -126.009765625 389.58203125 -113.224609375 c 0
 398.380859375 -92.658203125 408.1328125 -72.3759765625 420.885742188 -53.9970703125 c 0
 455.765625 -3.73046875 512.599609375 29.78515625 572.938476562 39.9150390625 c 0
EndSplineSet
EndChar

StartChar: r
Encoding: 114 114 17
Width: 680
VWidth: 0
Flags: HW
LayerCount: 2
UndoRedoHistory
Layer: 1
Undoes
EndUndoes
Redoes
EndRedoes
EndUndoRedoHistory
Fore
SplineSet
316.693359375 485.584960938 m 0
 311.932617188 484.1953125 307.642578125 481.3984375 304.16015625 477.8671875 c 0
 300.677734375 474.336914062 297.975585938 470.087890625 295.884765625 465.590820312 c 0
 291.702148438 456.596679688 289.940429688 446.708984375 287.541992188 437.083984375 c 0
 278.143554688 399.368164062 258.72265625 365.041992188 239.541992188 331.235351562 c 0
 204.814453125 270.024414062 169.990234375 208.502929688 126.5234375 153.155273438 c 0
 106.322265625 127.432617188 83.53515625 102.528320312 54.142578125 88.1845703125 c 0
 46.822265625 84.61328125 39.03515625 81.6552734375 32.8623046875 76.341796875 c 0
 29.775390625 73.685546875 27.1357421875 70.4384765625 25.5615234375 66.6826171875 c 0
 23.9873046875 62.9267578125 23.53125 58.638671875 24.693359375 54.736328125 c 0
 25.89453125 50.7001953125 28.7802734375 47.26171875 32.365234375 45.05078125 c 0
 35.94921875 42.8408203125 40.189453125 41.8095703125 44.3994140625 41.7392578125 c 0
 52.8203125 41.599609375 60.83984375 45.1357421875 68.3203125 49.005859375 c 0
 104.102539062 67.51953125 134.559570312 95.1064453125 160.67578125 125.783203125 c 0
 186.791015625 156.4609375 208.853515625 190.326171875 230.970703125 224 c 0
 262.771484375 272.416992188 294.896484375 320.73828125 322.298828125 371.774414062 c 0
 324.51953125 375.909179688 326.716796875 380.075195312 329.424804688 383.909179688 c 0
 332.131835938 387.744140625 335.385742188 391.262695312 339.365234375 393.751953125 c 0
 344.62890625 397.044921875 350.854492188 398.37109375 356.950195312 399.5546875 c 0
 383.2265625 404.66015625 410.245117188 408.19921875 436.717773438 404.236328125 c 0
 443.938476562 403.155273438 451.141601562 401.497070312 457.729492188 398.352539062 c 0
 464.317382812 395.20703125 470.293945312 390.481445312 474.055664062 384.224609375 c 0
 476.9296875 379.447265625 478.431640625 373.908203125 478.747070312 368.341796875 c 0
 479.0625 362.776367188 478.216796875 357.180664062 476.638671875 351.833984375 c 0
 473.481445312 341.140625 467.491210938 331.545898438 461.659179688 322.04296875 c 0
 439.83984375 286.48828125 419.30078125 250.15625 399.693359375 213.3359375 c 0
 384.141601562 184.130859375 368.998046875 154.1171875 362.73828125 121.626953125 c 0
 359.608398438 105.381835938 358.764648438 88.6103515625 361.29296875 72.2607421875 c 0
 363.8203125 55.912109375 369.791992188 39.9853515625 379.493164062 26.5849609375 c 0
 393.456054688 7.2978515625 414.740234375 -6.05859375 437.625976562 -12.630859375 c 0
 460.51171875 -19.203125 484.928710938 -19.2978515625 508.415039062 -15.3798828125 c 0
 555.387695312 -7.54296875 598.1171875 15.640625 642.04296875 34.03515625 c 0
 644.436523438 35.037109375 646.848632812 36.0322265625 649.048828125 37.408203125 c 0
 651.249023438 38.7841796875 653.249023438 40.57421875 654.499023438 42.8486328125 c 0
 655.663085938 44.966796875 656.127929688 47.447265625 655.90234375 49.853515625 c 0
 655.677734375 52.259765625 654.7734375 54.5869140625 653.390625 56.5693359375 c 0
 650.625976562 60.5341796875 646.037109375 63.0029296875 641.275390625 63.83203125 c 0
 636.512695312 64.6611328125 631.587890625 63.9697265625 626.962890625 62.5625 c 0
 622.338867188 61.1552734375 617.963867188 59.0498046875 613.592773438 56.9853515625 c 0
 591.583007812 46.5869140625 569.049804688 36.974609375 545.393554688 31.2353515625 c 0
 529.428710938 27.3623046875 512.875 25.2783203125 496.538085938 27 c 0
 480.201171875 28.720703125 464.044921875 34.4189453125 451.341796875 44.8349609375 c 0
 439.020507812 54.9384765625 430.37109375 69.177734375 425.977539062 84.494140625 c 0
 421.583984375 99.810546875 421.322265625 116.15625 424.081054688 131.849609375 c 0
 429.59765625 163.236328125 446.6953125 191.329101562 465.393554688 217.135742188 c 0
 482.965820312 241.389648438 502.267578125 264.420898438 518.473632812 289.608398438 c 0
 534.6796875 314.795898438 547.8671875 342.611328125 551.541992188 372.3359375 c 0
 553.9453125 391.771484375 552.1015625 412.025390625 543.999023438 429.853515625 c 0
 535.897460938 447.682617188 521.157226562 462.860351562 502.693359375 469.384765625 c 0
 490.676757812 473.630859375 477.625 474.137695312 464.9296875 473.028320312 c 0
 452.233398438 471.91796875 439.734375 469.24609375 427.142578125 467.284179688 c 0
 406.834960938 464.120117188 385.393554688 462.924804688 366.341796875 470.634765625 c 0
 358.133789062 473.95703125 350.638671875 478.833984375 342.51953125 482.369140625 c 0
 338.459960938 484.13671875 334.229492188 485.569335938 329.853515625 486.24609375 c 0
 325.477539062 486.922851562 320.943359375 486.825195312 316.693359375 485.584960938 c 0
EndSplineSet
EndChar

StartChar: s
Encoding: 115 115 18
Width: 680
VWidth: 0
Flags: HW
LayerCount: 2
UndoRedoHistory
Layer: 1
Undoes
EndUndoes
Redoes
EndRedoes
EndUndoRedoHistory
Fore
SplineSet
460.97265625 316.154296875 m 0
 478.877929688 293.403320312 496.857421875 270.482421875 510.465820312 244.927734375 c 0
 524.07421875 219.373046875 533.211914062 190.784179688 532.09375 161.853515625 c 0
 531.109375 136.356445312 522.059570312 111.37109375 507.306640625 90.552734375 c 0
 492.553710938 69.734375 472.225585938 53.0595703125 449.362304688 41.73046875 c 0
 403.63671875 19.0732421875 349.104492188 18.3076171875 300.024414062 32.283203125 c 0
 292.188476562 34.5146484375 284.247070312 37.1298828125 276.110351562 36.712890625 c 0
 272.041992188 36.5048828125 267.969726562 35.5078125 264.455078125 33.447265625 c 0
 260.94140625 31.3876953125 258.015625 28.2158203125 256.612304688 24.3916015625 c 0
 255.142578125 20.3857421875 255.416015625 15.84375 256.993164062 11.87890625 c 0
 258.569335938 7.9140625 261.383789062 4.509765625 264.741210938 1.876953125 c 0
 271.458007812 -3.388671875 280.036132812 -5.541015625 288.368164062 -7.38671875 c 0
 359.287109375 -23.0947265625 436.120117188 -25.513671875 502.038085938 5 c 0
 534.997070312 20.2568359375 564.483398438 43.7275390625 584.649414062 73.9326171875 c 0
 604.81640625 104.138671875 615.262695312 141.202148438 611.331054688 177.307617188 c 0
 608.706054688 201.418945312 599.8671875 224.567382812 587.8671875 245.64453125 c 0
 575.8671875 266.721679688 560.744140625 285.858398438 544.8515625 304.1796875 c 0
 518.65625 334.375 489.834960938 363.122070312 471.561523438 398.67578125 c 0
 463.83203125 413.713867188 458.1171875 429.787109375 454.6171875 446.330078125 c 1
 413.372070312 376.51171875 l 1
 429.258789062 356.408203125 445.125 336.2890625 460.97265625 316.154296875 c 0
68.8759765625 64.8916015625 m 0
 70.5615234375 60.1123046875 74.33984375 56.208984375 78.8564453125 53.9130859375 c 0
 83.3740234375 51.6171875 88.5771484375 50.8544921875 93.6298828125 51.2412109375 c 0
 103.734375 52.013671875 112.926757812 57.12890625 121.697265625 62.20703125 c 0
 165.587890625 87.62109375 208.357421875 115.134765625 248.203125 146.512695312 c 0
 319.48046875 202.640625 381.331054688 271.428710938 425.504882812 350.671875 c 0
 450.37109375 395.279296875 470.678710938 444.438476562 509.392578125 477.74609375 c 0
 516.065429688 483.48828125 523.250976562 488.716796875 529.052734375 495.338867188 c 0
 531.954101562 498.649414062 534.495117188 502.306640625 536.2890625 506.326171875 c 0
 538.083007812 510.345703125 539.115234375 514.7421875 538.970703125 519.141601562 c 0
 538.799804688 524.36328125 536.95703125 529.485351562 533.946289062 533.754882812 c 0
 530.936523438 538.025390625 526.788085938 541.450195312 522.125976562 543.80859375 c 0
 512.802734375 548.525390625 501.708984375 548.889648438 491.534179688 546.51171875 c 0
 475.67578125 542.803710938 461.76171875 532.779296875 451.327148438 520.275390625 c 0
 440.892578125 507.771484375 433.690429688 492.873046875 428.028320312 477.603515625 c 0
 420.291992188 456.739257812 415.259765625 434.965820312 407.896484375 413.967773438 c 0
 381.90625 339.856445312 328.23828125 278.870117188 271.33984375 224.735351562 c 0
 220.436523438 176.302734375 165.004882812 131.090820312 100.611328125 102.979492188 c 0
 92.22265625 99.3173828125 83.5 95.8271484375 76.8046875 89.5849609375 c 0
 73.45703125 86.4638671875 70.677734375 82.6630859375 69.13671875 78.353515625 c 0
 67.5966796875 74.0439453125 67.3544921875 69.20703125 68.8759765625 64.8916015625 c 0
EndSplineSet
EndChar

StartChar: t
Encoding: 116 116 19
Width: 680
VWidth: 0
Flags: HW
LayerCount: 2
UndoRedoHistory
Layer: 1
Undoes
EndUndoes
Redoes
EndRedoes
EndUndoRedoHistory
Fore
SplineSet
477.326171875 827.99609375 m 4
 469.198242188 827.883789062 461.115234375 825.55859375 454.155273438 821.359375 c 4
 447.194335938 817.161132812 441.373046875 811.102539062 437.426757812 803.99609375 c 4
 431.365234375 793.077148438 429.88671875 780.302734375 428.077148438 767.946289062 c 4
 421.791015625 725.024414062 410.1796875 683.05078125 396.92578125 641.74609375 c 4
 361.689453125 531.932617188 314.776367188 426.283203125 267.706054688 320.999023438 c 4
 249.236328125 279.685546875 230.587890625 237.963867188 221.676757812 193.595703125 c 4
 214.493164062 157.823242188 214.005859375 119.6953125 227.626953125 85.8466796875 c 4
 237.482421875 61.3544921875 254.466796875 39.982421875 275.221679688 23.666015625 c 4
 295.9765625 7.349609375 320.415039062 -4.0068359375 345.92578125 -10.8037109375 c 4
 389.154296875 -22.3232421875 435.0703125 -20.8466796875 478.974609375 -12.255859375 c 4
 522.87890625 -3.666015625 565.107421875 11.8369140625 606.725585938 28.2470703125 c 4
 616.240234375 31.998046875 626.006835938 35.974609375 633.291992188 43.15234375 c 4
 636.934570312 46.7412109375 639.879882812 51.1142578125 641.380859375 56.0029296875 c 4
 642.881835938 60.8916015625 642.872070312 66.30859375 640.9140625 71.033203125 c 4
 639.671875 74.0302734375 637.674804688 76.6982421875 635.219726562 78.818359375 c 4
 632.763671875 80.9384765625 629.85546875 82.5166015625 626.772460938 83.525390625 c 4
 620.604492188 85.5419921875 613.838867188 85.2578125 607.581054688 83.541015625 c 4
 595.06640625 80.1064453125 584.825195312 71.392578125 574.125976562 64.046875 c 4
 535.544921875 37.556640625 487.625 27.5107421875 440.827148438 26.99609375 c 4
 414.268554688 26.703125 387.248046875 29.3935546875 362.671875 39.466796875 c 4
 338.095703125 49.5400390625 316.056640625 67.6767578125 305.377929688 91.99609375 c 4
 295.903320312 113.573242188 295.944335938 138.05078125 297.778320312 161.545898438 c 4
 309.580078125 312.807617188 387.133789062 449.580078125 450.782226562 587.305664062 c 4
 472.39453125 634.072265625 492.575195312 681.52734375 510.177734375 729.946289062 c 4
 515.849609375 745.546875 521.319335938 761.619140625 521.264648438 778.219726562 c 4
 521.237304688 786.51953125 519.7890625 794.875976562 516.423828125 802.462890625 c 4
 513.05859375 810.05078125 507.71875 816.844726562 500.778320312 821.395507812 c 4
 493.885742188 825.915039062 485.567382812 828.109375 477.326171875 827.99609375 c 4
529.40625 517.768554688 m 4
 479.479492188 504.502929688 427.428710938 501.829101562 375.813476562 499.689453125 c 4
 329.384765625 497.765625 282.358398438 496.268554688 236.967773438 506.219726562 c 4
 223.98046875 509.067382812 210.985351562 512.864257812 197.6953125 512.498046875 c 4
 191.049804688 512.315429688 184.375 511.059570312 178.356445312 508.236328125 c 4
 172.337890625 505.413085938 166.998046875 500.961914062 163.6484375 495.219726562 c 4
 161.022460938 490.719726562 159.66796875 485.512695312 159.580078125 480.302734375 c 4
 159.491210938 475.092773438 160.650390625 469.88671875 162.766601562 465.125 c 4
 167 455.602539062 174.954101562 448.049804688 184.052734375 442.96875 c 4
 194.27734375 437.259765625 205.92578125 434.47265625 217.583984375 433.365234375 c 4
 229.2421875 432.2578125 240.986328125 432.766601562 252.685546875 433.282226562 c 4
 351.112304688 437.61328125 451.192382812 442.586914062 544.063476562 475.47265625 c 4
 551.849609375 478.229492188 559.801757812 481.323242188 565.73828125 487.06640625 c 4
 568.706054688 489.9375 571.10546875 493.458007812 572.337890625 497.399414062 c 4
 573.5703125 501.341796875 573.583007812 505.71484375 572.030273438 509.541992188 c 4
 570.534179688 513.228515625 567.645507812 516.266601562 564.2109375 518.274414062 c 4
 560.776367188 520.282226562 556.819335938 521.298828125 552.850585938 521.57421875 c 4
 544.9140625 522.125 537.095703125 519.811523438 529.40625 517.768554688 c 4
72.5439453125 113.9765625 m 4
 62.859375 109.887695312 52.7255859375 105.87890625 45.4765625 98.2666015625 c 4
 41.8515625 94.4599609375 39.0517578125 89.767578125 37.9951171875 84.619140625 c 4
 36.9384765625 79.470703125 37.734375 73.859375 40.6669921875 69.4970703125 c 4
 43.0283203125 65.984375 46.6640625 63.41796875 50.658203125 62.017578125 c 4
 54.6533203125 60.6162109375 58.98828125 60.3369140625 63.19140625 60.8388671875 c 4
 71.59765625 61.841796875 79.30859375 65.83203125 86.83984375 69.697265625 c 4
 151.3359375 102.790039062 219.978515625 132.892578125 268.60546875 186.655273438 c 4
 281.546875 200.962890625 292.846679688 216.754882812 302.2109375 233.622070312 c 5
 282.94140625 333.467773438 l 5
 273.205078125 318.872070312 264.254882812 303.750976562 256.141601562 288.193359375 c 4
 248.30859375 273.171875 241.249023438 257.73046875 232.62109375 243.150390625 c 4
 197.100585938 183.125 136.799804688 141.106445312 72.5439453125 113.9765625 c 4
EndSplineSet
EndChar

StartChar: u
Encoding: 117 117 20
Width: 680
VWidth: 0
Flags: HW
LayerCount: 2
UndoRedoHistory
Layer: 1
Undoes
EndUndoes
Redoes
EndRedoes
EndUndoRedoHistory
Fore
SplineSet
441.447265625 49.6396484375 m 4
 437.004882812 54.365234375 434.163085938 60.48046875 432.918945312 66.8466796875 c 4
 431.67578125 73.212890625 431.981445312 79.82421875 433.309570312 86.1728515625 c 4
 435.96484375 98.87109375 442.549804688 110.344726562 448.958984375 121.624023438 c 4
 499.254882812 210.123046875 544.646484375 301.678710938 579.154296875 397.444335938 c 4
 584.872070312 413.311523438 590.346679688 429.59765625 590.759765625 446.458984375 c 4
 590.966796875 454.888671875 589.875976562 463.401367188 586.995117188 471.327148438 c 4
 584.11328125 479.252929688 579.396484375 486.579101562 572.985351562 492.057617188 c 4
 567.354492188 496.870117188 560.465820312 500.197265625 553.194335938 501.606445312 c 4
 545.922851562 503.014648438 538.286132812 502.5 531.272460938 500.120117188 c 4
 524.258789062 497.739257812 517.884765625 493.498046875 512.98828125 487.940429688 c 4
 508.090820312 482.383789062 504.684570312 475.524414062 503.225585938 468.262695312 c 4
 501.063476562 457.501953125 503.147460938 446.405273438 503.469726562 435.434570312 c 4
 504.337890625 405.84375 492.41015625 377.573242188 481.1015625 350.21484375 c 4
 454.627929688 286.170898438 430.228515625 220.923828125 395.556640625 160.921875 c 4
 386.818359375 145.799804688 377.409179688 130.974609375 370.661132812 114.865234375 c 4
 363.913085938 98.755859375 359.899414062 81.0322265625 362.5625 63.7705078125 c 4
 364.375 52.0224609375 369.267578125 40.810546875 376.330078125 31.2490234375 c 4
 383.393554688 21.6875 392.594726562 13.765625 402.90625 7.849609375 c 4
 423.52734375 -3.982421875 448.193359375 -7.6064453125 471.854492188 -5.287109375 c 4
 519.177734375 -0.6494140625 560.959960938 25.98828125 602.6796875 48.802734375 c 4
 608.049804688 51.7392578125 613.55078125 54.7001953125 617.741210938 59.16015625 c 4
 619.836914062 61.390625 621.576171875 63.98828125 622.608398438 66.869140625 c 4
 623.640625 69.75 623.943359375 72.923828125 623.234375 75.900390625 c 4
 622.674804688 78.25 621.494140625 80.4384765625 619.900390625 82.2529296875 c 4
 618.306640625 84.068359375 616.305664062 85.51171875 614.114257812 86.52734375 c 4
 609.732421875 88.560546875 604.67578125 88.85546875 599.92578125 87.974609375 c 4
 590.426757812 86.212890625 582.415039062 80.1318359375 574.25 74.966796875 c 4
 553.3203125 61.7236328125 529.561523438 53.7626953125 506.041015625 46 c 4
 495.194335938 42.4189453125 484.16015625 38.8212890625 472.743164062 38.4384765625 c 4
 467.03515625 38.24609375 461.266601562 38.8779296875 455.846679688 40.6787109375 c 4
 450.42578125 42.4794921875 445.359375 45.478515625 441.447265625 49.6396484375 c 4
137.447265625 75.2392578125 m 4
 134.809570312 86.1767578125 135.52734375 97.705078125 137.8984375 108.702148438 c 4
 140.26953125 119.700195312 144.25 130.274414062 148.159179688 140.823242188 c 4
 179.610351562 225.680664062 207.4140625 311.834960938 236.754882812 397.444335938 c 4
 242.224609375 413.40625 247.806640625 429.649414062 248.336914062 446.514648438 c 4
 248.602539062 454.947265625 247.571289062 463.475585938 244.703125 471.409179688 c 4
 241.833984375 479.34375 237.077148438 486.669921875 230.584960938 492.057617188 c 4
 224.782226562 496.874023438 217.654296875 500.068359375 210.203125 501.228515625 c 4
 202.750976562 502.388671875 194.998046875 501.514648438 187.979492188 498.756835938 c 4
 180.9609375 495.998046875 174.693359375 491.366210938 169.970703125 485.487304688 c 4
 165.247070312 479.608398438 162.076171875 472.499023438 160.825195312 465.0625 c 4
 159.360351562 456.352539062 160.49609375 447.448242188 161.069335938 438.634765625 c 4
 163 408.938476562 158.462890625 379.1484375 151.500976562 350.21484375 c 4
 139.43359375 300.055664062 120.092773438 251.848632812 96.986328125 205.721679688 c 4
 85.02734375 181.846679688 71.978515625 158.3203125 63.8994140625 132.869140625 c 4
 55.8193359375 107.41796875 52.99609375 79.3935546875 61.7626953125 54.1708984375 c 4
 69.541015625 31.791015625 86.1806640625 12.9658203125 106.520507812 0.8154296875 c 4
 126.860351562 -11.333984375 150.700195312 -17.03515625 174.390625 -17.3740234375 c 4
 221.770507812 -18.0517578125 266.982421875 1.888671875 308.266601562 25.146484375 c 4
 350.491210938 48.9345703125 390.8828125 76.9375 423.479492188 112.802734375 c 4
 431.318359375 121.427734375 438.927734375 130.975585938 441.2890625 142.388671875 c 4
 442.469726562 148.095703125 442.23828125 154.168945312 440.072265625 159.579101562 c 4
 437.90625 164.989257812 433.709960938 169.668945312 428.327148438 171.900390625 c 4
 423.559570312 173.876953125 418.092773438 173.860351562 413.155273438 172.358398438 c 4
 408.217773438 170.85546875 403.787109375 167.939453125 400.05078125 164.37890625 c 4
 392.577148438 157.258789062 387.8984375 147.791015625 382.54296875 138.966796875 c 4
 363.438476562 107.485351562 334.6953125 82.994140625 304.44140625 62 c 4
 277.295898438 43.162109375 246.984375 26.19921875 213.963867188 25.03125 c 4
 197.454101562 24.447265625 180.599609375 28.0341796875 166.51171875 36.6640625 c 4
 152.424804688 45.2939453125 141.3203125 59.1796875 137.447265625 75.2392578125 c 4
EndSplineSet
EndChar

StartChar: v
Encoding: 118 118 21
Width: 680
VWidth: 0
Flags: HW
LayerCount: 2
UndoRedoHistory
Layer: 1
Undoes
EndUndoes
Redoes
EndRedoes
EndUndoRedoHistory
Fore
SplineSet
141.686523438 472.637695312 m 4
 143.067382812 480.401367188 146.885742188 487.67578125 152.3046875 493.404296875 c 4
 157.724609375 499.131835938 164.70703125 503.3203125 172.23828125 505.65625 c 4
 187.301757812 510.327148438 204.133789062 507.422851562 217.846679688 499.6328125 c 4
 234.85546875 489.96875 247.194335938 473.338867188 254.369140625 455.139648438 c 4
 261.544921875 436.94140625 263.921875 417.182617188 264.400390625 397.626953125 c 4
 265.359375 358.439453125 258.923828125 319.26171875 247.56640625 281.745117188 c 4
 223.123046875 201.000976562 176.623046875 128.938476562 143.286132812 51.4423828125 c 4
 136.40234375 35.4404296875 129.635742188 18.5654296875 116.5 7.1240234375 c 4
 109.931640625 1.4033203125 101.8046875 -2.7412109375 93.1416015625 -3.6474609375 c 4
 88.810546875 -4.1005859375 84.3818359375 -3.7373046875 80.220703125 -2.455078125 c 4
 76.05859375 -1.171875 72.1708984375 1.041015625 69.03515625 4.0634765625 c 4
 64.9501953125 8.001953125 62.224609375 13.240234375 60.9130859375 18.7607421875 c 4
 59.6015625 24.28125 59.66015625 30.07421875 60.6435546875 35.6630859375 c 4
 62.6103515625 46.8388671875 68.134765625 57.0234375 73.578125 66.98046875 c 4
 114.490234375 141.813476562 155.829101562 217.504882812 178.0078125 299.856445312 c 4
 182.456054688 316.370117188 186.129882812 333.225585938 186.515625 350.323242188 c 4
 186.901367188 367.420898438 183.845703125 384.87890625 175.525390625 399.8203125 c 4
 169.720703125 410.244140625 161.561523438 419.134765625 154.73046875 428.916992188 c 4
 150.259765625 435.317382812 146.330078125 442.163085938 143.834960938 449.560546875 c 4
 141.338867188 456.958007812 140.318359375 464.951171875 141.686523438 472.637695312 c 4
134.709960938 53.9462890625 m 0
 203.465820312 35.2294921875 277.5859375 41.607421875 345.133789062 64.2958984375 c 0
 393.403320312 80.5087890625 439.3828125 105.25390625 475.973632812 140.665039062 c 0
 512.563476562 176.076171875 539.326171875 222.65234375 546.392578125 273.080078125 c 0
 552.977539062 320.071289062 542.223632812 368.694335938 519.888671875 410.559570312 c 0
 512.575195312 424.267578125 503.9609375 437.54296875 499.935546875 452.548828125 c 0
 497.922851562 460.052734375 497.109375 467.953125 498.313476562 475.627929688 c 0
 499.516601562 483.302734375 502.8203125 490.74609375 508.258789062 496.29296875 c 0
 513.8203125 501.96484375 521.440429688 505.448242188 529.314453125 506.491210938 c 0
 537.189453125 507.534179688 545.291015625 506.211914062 552.655273438 503.235351562 c 0
 567.384765625 497.283203125 578.7734375 485.12109375 587.725585938 471.997070312 c 0
 616.529296875 429.766601562 623.926757812 375.8203125 618.375976562 325.004882812 c 0
 606.802734375 219.049804688 541.584960938 122.856445312 454.08203125 62 c 0
 353.159179688 -8.1923828125 223.176757812 -33.6357421875 102.366210938 -10.8935546875 c 0
 95.0849609375 -9.5224609375 87.76953125 -7.9658203125 81.0009765625 -4.9521484375 c 0
 74.2314453125 -1.9384765625 67.9755859375 2.66015625 64.13671875 8.998046875 c 0
 60.7646484375 14.5625 59.4228515625 21.283203125 60.146484375 27.7490234375 c 0
 60.87109375 34.21484375 63.6181640625 40.404296875 67.732421875 45.4453125 c 0
 71.8466796875 50.4853515625 77.2958984375 54.3857421875 83.298828125 56.896484375 c 0
 89.3017578125 59.408203125 95.84375 60.5478515625 102.350585938 60.4775390625 c 0
 113.387695312 60.359375 124.059570312 56.845703125 134.709960938 53.9462890625 c 0
EndSplineSet
EndChar

StartChar: x
Encoding: 120 120 22
Width: 680
VWidth: 0
Flags: HW
LayerCount: 2
UndoRedoHistory
Layer: 1
Undoes
EndUndoes
Redoes
EndRedoes
EndUndoRedoHistory
Fore
SplineSet
25.2177734375 51.3369140625 m 0
 27.412109375 46.9248046875 31.33203125 43.482421875 35.8251953125 41.4580078125 c 0
 40.318359375 39.4326171875 45.353515625 38.7705078125 50.2705078125 39.1025390625 c 0
 60.1044921875 39.767578125 69.2255859375 44.234375 78.037109375 48.650390625 c 0
 126.486328125 72.9287109375 174.579101562 98.240234375 219.372070312 128.7421875 c 0
 307.670898438 188.868164062 381.494140625 267.997070312 467.889648438 330.828125 c 0
 514.061523438 364.40625 563.775390625 393.24609375 616.412109375 415.354492188 c 0
 623.715820312 418.421875 631.13671875 421.392578125 637.693359375 425.836914062 c 0
 644.250976562 430.282226562 649.9765625 436.405273438 652.391601562 443.950195312 c 0
 654.571289062 450.759765625 653.86328125 458.35546875 650.9140625 464.869140625 c 0
 647.96484375 471.3828125 642.87109375 476.823242188 636.827148438 480.643554688 c 0
 630.783203125 484.463867188 623.819335938 486.708984375 616.733398438 487.66796875 c 0
 609.6484375 488.627929688 602.432617188 488.329101562 595.354492188 487.319335938 c 0
 577.21484375 484.731445312 559.966796875 477.513671875 544.219726562 468.143554688 c 0
 528.47265625 458.774414062 514.111328125 447.267578125 500.071289062 435.494140625 c 0
 418.943359375 367.463867188 346.763671875 289.337890625 266.081054688 220.780273438 c 0
 205.24609375 169.0859375 138.62890625 122.399414062 63.349609375 95.8251953125 c 0
 52.8505859375 92.119140625 41.8837890625 88.630859375 33.5458984375 81.251953125 c 0
 29.376953125 77.5625 25.9658203125 72.90625 24.2802734375 67.6005859375 c 0
 22.59375 62.2958984375 22.7373046875 56.3212890625 25.2177734375 51.3369140625 c 0
301.98828125 425.44140625 m 0
 295.692382812 438.333007812 288.633789062 450.984375 279.284179688 461.865234375 c 0
 269.93359375 472.747070312 258.119140625 481.840820312 244.455078125 486.213867188 c 0
 234.73828125 489.32421875 224.01953125 489.935546875 214.374023438 486.609375 c 0
 209.55078125 484.946289062 205.045898438 482.3125 201.353515625 478.791992188 c 0
 197.66015625 475.272460938 194.794921875 470.860351562 193.25 465.998046875 c 0
 191.741210938 461.249023438 191.506835938 456.142578125 192.233398438 451.212890625 c 0
 192.959960938 446.283203125 194.62890625 441.522460938 196.829101562 437.052734375 c 0
 201.231445312 428.112304688 207.689453125 420.3828125 213.732421875 412.458007812 c 0
 263.810546875 346.78125 287.009765625 265.032226562 308.065429688 185.169921875 c 0
 319.060546875 143.465820312 329.990234375 101.103515625 351.48828125 63.7138671875 c 0
 362.236328125 45.01953125 375.620117188 27.7041015625 391.998046875 13.6767578125 c 0
 408.376953125 -0.3515625 427.828125 -11.0263671875 448.833007812 -15.908203125 c 0
 478.0390625 -22.6953125 508.854492188 -18.078125 537.430664062 -9 c 0
 566.0078125 0.078125 592.984375 13.484375 620.74609375 24.8125 c 0
 629.92578125 28.5576171875 639.422851562 32.2158203125 646.770507812 38.8720703125 c 0
 650.444335938 42.2001953125 653.515625 46.2685546875 655.271484375 50.904296875 c 0
 657.02734375 55.5400390625 657.409179688 60.76171875 655.900390625 65.484375 c 0
 654.063476562 71.2314453125 649.500976562 75.9091796875 644.051757812 78.4990234375 c 0
 638.602539062 81.08984375 632.34375 81.705078125 626.36328125 80.904296875 c 0
 614.40234375 79.302734375 603.916015625 72.419921875 593.71484375 65.9716796875 c 0
 574.954101562 54.115234375 555.41796875 43.052734375 534.159179688 36.6826171875 c 0
 512.899414062 30.3125 489.620117188 28.8935546875 468.676757812 36.234375 c 0
 449.197265625 43.060546875 432.809570312 57.087890625 420.45703125 73.6240234375 c 0
 408.104492188 90.1611328125 399.491210938 109.176757812 392.12890625 128.459960938 c 0
 355.171875 225.26953125 347.459960938 332.327148438 301.98828125 425.44140625 c 0
EndSplineSet
EndChar

StartChar: y
Encoding: 121 121 23
Width: 680
VWidth: 0
Flags: HW
LayerCount: 2
UndoRedoHistory
Layer: 1
Undoes
EndUndoes
Redoes
EndRedoes
EndUndoRedoHistory
Fore
SplineSet
173.274414062 42.4736328125 m 4
 179.235351562 36.2607421875 186.939453125 31.8369140625 195.159179688 29.27734375 c 4
 203.37890625 26.716796875 212.10546875 25.9765625 220.696289062 26.5458984375 c 4
 237.876953125 27.68359375 254.272460938 33.9228515625 270.169921875 40.537109375 c 4
 312.162109375 58.0078125 353.180664062 78.8037109375 388.673828125 107.243164062 c 4
 424.166992188 135.682617188 454.0546875 172.24609375 469.568359375 215 c 4
 472.36328125 222.703125 474.709960938 230.630859375 478.666992188 237.806640625 c 4
 482.624023438 244.982421875 488.467773438 251.494140625 496.154296875 254.333984375 c 4
 500.739257812 256.028320312 505.805664062 256.328125 510.592773438 255.341796875 c 4
 515.379882812 254.35546875 519.880859375 252.102539062 523.643554688 248.983398438 c 4
 531.169921875 242.74609375 535.543945312 233.1953125 536.573242188 223.474609375 c 4
 537.602539062 213.75390625 535.494140625 203.884765625 531.733398438 194.862304688 c 4
 527.97265625 185.838867188 522.603515625 177.579101562 516.904296875 169.63671875 c 4
 458.895507812 88.806640625 366.890625 39.314453125 273.997070312 3.685546875 c 4
 246.4453125 -6.8828125 217.979492188 -16.5888671875 188.484375 -17.486328125 c 4
 173.736328125 -17.935546875 158.837890625 -16.1298828125 144.912109375 -11.2548828125 c 4
 130.986328125 -6.3798828125 118.051757812 1.6357421875 108.166992188 12.58984375 c 4
 97.4267578125 24.494140625 90.5322265625 39.609375 87.392578125 55.3330078125 c 4
 84.25390625 71.056640625 84.765625 87.376953125 87.681640625 103.143554688 c 4
 93.5146484375 134.674804688 108.63671875 163.591796875 123.2109375 192.155273438 c 4
 150.876953125 246.375 177.31640625 301.423828125 196.928710938 359.047851562 c 4
 204.982421875 382.712890625 211.8828125 406.829101562 216.095703125 431.46875 c 4
 218.149414062 443.484375 219.703125 456.009765625 226.103515625 466.383789062 c 4
 231.763671875 475.557617188 241.151367188 482.41015625 251.670898438 484.756835938 c 4
 262.19140625 487.104492188 273.704101562 484.844726562 282.411132812 478.491210938 c 4
 289.098632812 473.611328125 294.01953125 466.512695312 296.8671875 458.739257812 c 4
 299.71484375 450.966796875 300.553710938 442.541992188 299.962890625 434.28515625 c 4
 298.782226562 417.770507812 292.078125 402.21875 285.37890625 387.078125 c 4
 248.85546875 304.5234375 209.680664062 223.14453125 174.384765625 140.057617188 c 4
 167.625976562 124.1484375 160.936523438 107.891601562 159.19140625 90.6962890625 c 4
 158.319335938 82.09765625 158.71875 73.3203125 160.950195312 64.9716796875 c 4
 163.181640625 56.623046875 167.291015625 48.708984375 173.274414062 42.4736328125 c 4
540.728515625 434.90234375 m 4
 544.099609375 445.3046875 547.534179688 455.848632812 553.517578125 465.001953125 c 4
 556.508789062 469.579101562 560.1328125 473.775390625 564.454101562 477.125976562 c 4
 568.774414062 480.477539062 573.80859375 482.966796875 579.173828125 484.024414062 c 4
 586.780273438 485.522460938 594.865234375 484.047851562 601.66015625 480.314453125 c 4
 608.454101562 476.581054688 613.9609375 470.666015625 617.576171875 463.80859375 c 4
 623.521484375 452.53125 624.313476562 439.108398438 622.268554688 426.525390625 c 4
 620.22265625 413.942382812 615.52734375 401.967773438 610.931640625 390.077148438 c 4
 565.493164062 272.524414062 526.8203125 152.48828125 488.267578125 32.5009765625 c 4
 470.954101562 -21.3828125 452.817382812 -76.8193359375 416.106445312 -119.895507812 c 4
 378.875 -163.583984375 324.028320312 -191.176757812 266.997070312 -197.676757812 c 4
 209.965820312 -204.176757812 151.220703125 -190.069335938 101.918945312 -160.671875 c 4
 89.7548828125 -153.41796875 77.943359375 -145.088867188 69.2158203125 -133.935546875 c 4
 64.8515625 -128.358398438 61.302734375 -122.103515625 59.1162109375 -115.368164062 c 4
 56.9306640625 -108.6328125 56.1298828125 -101.407226562 57.1650390625 -94.4013671875 c 4
 58.392578125 -86.099609375 62.294921875 -78.1201171875 68.50390625 -72.4736328125 c 4
 74.712890625 -66.8271484375 83.2607421875 -63.66796875 91.61328125 -64.4873046875 c 4
 96.2578125 -64.9423828125 100.74609375 -66.580078125 104.770507812 -68.943359375 c 4
 108.793945312 -71.3076171875 112.368164062 -74.384765625 115.557617188 -77.79296875 c 4
 121.934570312 -84.607421875 126.764648438 -92.689453125 132.151367188 -100.311523438 c 4
 150.465820312 -126.229492188 176.010742188 -147.342773438 205.715820312 -158.51171875 c 4
 235.420898438 -169.6796875 269.268554688 -170.498046875 298.7890625 -158.849609375 c 4
 333.931640625 -144.984375 360.637695312 -114.8203125 378.18359375 -81.36328125 c 4
 395.729492188 -47.9052734375 405.2265625 -10.9306640625 415.084960938 25.5390625 c 4
 452.336914062 163.345703125 496.719726562 299.102539062 540.728515625 434.90234375 c 4
EndSplineSet
EndChar

StartChar: C
Encoding: 67 67 24
Width: 680
VWidth: 0
Flags: HW
LayerCount: 2
UndoRedoHistory
Layer: 1
Undoes
EndUndoes
Redoes
EndRedoes
EndUndoRedoHistory
Fore
SplineSet
635.463867188 659.258789062 m 4
 640.78125 665.146484375 644.107421875 672.709960938 645.36328125 680.543945312 c 4
 646.6171875 688.37890625 645.857421875 696.46875 643.6640625 704.09375 c 4
 639.27734375 719.34375 629.408203125 732.421875 618.604492188 744.043945312 c 4
 588.203125 776.748046875 548.581054688 800.831054688 505.48828125 812.52734375 c 4
 462.395507812 824.223632812 415.962890625 823.461914062 373.348632812 810.127929688 c 4
 318.302734375 792.90234375 271.21484375 755.607421875 233.846679688 711.669921875 c 4
 196.478515625 667.732421875 167.931640625 617.106445312 140.303710938 566.474609375 c 4
 95.9716796875 485.2265625 52.724609375 401.133789062 38.6533203125 309.654296875 c 4
 31.6162109375 263.913085938 32.1376953125 216.690429688 43.5439453125 171.83984375 c 4
 54.94921875 126.990234375 77.546875 84.580078125 110.834960938 52.431640625 c 4
 141.619140625 22.7021484375 180.8125 2.38671875 222.08203125 -8.9443359375 c 4
 263.352539062 -20.2744140625 306.69140625 -22.8720703125 349.390625 -20 c 4
 434.791992188 -14.2568359375 517.052734375 12.849609375 600.140625 33.40625 c 4
 610.573242188 35.986328125 621.377929688 38.6298828125 629.864257812 45.2216796875 c 4
 634.107421875 48.517578125 637.671875 52.7978515625 639.631835938 57.7998046875 c 4
 641.59375 62.802734375 641.859375 68.5498046875 639.856445312 73.53515625 c 4
 638.020507812 78.1064453125 634.368164062 81.8359375 630.037109375 84.18359375 c 4
 625.70703125 86.5322265625 620.734375 87.5546875 615.807617188 87.5869140625 c 4
 605.95703125 87.650390625 596.53125 83.91015625 587.34375 80.3515625 c 4
 539.498046875 61.822265625 490.305664062 46.703125 440.169921875 35.7919921875 c 4
 393.934570312 25.7294921875 346.383789062 19.236328125 299.303710938 23.9853515625 c 4
 252.225585938 28.7353515625 205.360351562 45.451171875 170.27734375 77.203125 c 4
 141.8515625 102.927734375 122.219726562 137.625 111.96484375 174.56640625 c 4
 101.7109375 211.504882812 100.55859375 250.625 105.68359375 288.619140625 c 4
 115.934570312 364.604492188 150.405273438 434.893554688 184.791992188 503.424804688 c 4
 220.428710938 574.447265625 257.606445312 646.759765625 315.342773438 701.354492188 c 4
 347.759765625 732.0078125 387.609375 756.890625 431.862304688 762.569335938 c 4
 453.989257812 765.409179688 476.892578125 763.287109375 497.678710938 755.189453125 c 4
 518.465820312 747.09375 537.029296875 732.880859375 549.206054688 714.19140625 c 4
 557.8515625 700.922851562 563.1875 685.709960938 571.9140625 672.495117188 c 4
 576.278320312 665.887695312 581.529296875 659.76953125 587.995117188 655.196289062 c 4
 594.4609375 650.624023438 602.212890625 647.662109375 610.130859375 647.674804688 c 4
 619.69140625 647.690429688 629.055664062 652.163085938 635.463867188 659.258789062 c 4
EndSplineSet
EndChar

StartChar: D
Encoding: 68 68 25
Width: 680
VWidth: 0
Flags: HW
LayerCount: 2
UndoRedoHistory
Layer: 1
Undoes
EndUndoes
Redoes
EndRedoes
EndUndoRedoHistory
Fore
SplineSet
276.98828125 596.69921875 m 4
 262.962890625 572.172851562 250.861328125 546.591796875 239.5234375 520.712890625 c 4
 196.291992188 422.028320312 164.095703125 318.909179688 124.610351562 218.666992188 c 4
 106.33203125 172.265625 86.208984375 125.985351562 56.2900390625 86.0859375 c 4
 47.2548828125 74.0361328125 37.1826171875 62.3017578125 32.251953125 48.0712890625 c 4
 29.7861328125 40.9560546875 28.6923828125 33.2685546875 29.8916015625 25.833984375 c 4
 31.0908203125 18.3994140625 34.701171875 11.2421875 40.5009765625 6.439453125 c 4
 46.40234375 1.552734375 54.29296875 -0.6494140625 61.943359375 -0.234375 c 4
 69.5947265625 0.181640625 76.9921875 3.0908203125 83.3212890625 7.4091796875 c 4
 95.9814453125 16.044921875 104.130859375 29.7490234375 111.314453125 43.28515625 c 4
 124.7109375 68.53125 136.176757812 94.751953125 147.181640625 121.12890625 c 4
 191.251953125 226.759765625 228.149414062 335.321289062 274.053710938 440.168945312 c 4
 293.056640625 483.57421875 313.748046875 526.577148438 341.499023438 564.983398438 c 4
 348.215820312 574.280273438 355.423828125 583.448242188 359.567382812 594.143554688 c 4
 361.638671875 599.490234375 362.908203125 605.194335938 362.821289062 610.928710938 c 4
 362.734375 616.663085938 361.248046875 622.431640625 358.1484375 627.256835938 c 4
 353.424804688 634.610351562 345.129882812 639.325195312 336.47265625 640.53125 c 4
 327.81640625 641.737304688 318.883789062 639.637695312 311.174804688 635.520507812 c 4
 303.46484375 631.403320312 296.911132812 625.3515625 291.389648438 618.576171875 c 4
 285.869140625 611.799804688 281.328125 604.287109375 276.98828125 596.69921875 c 4
170.181640625 732.00390625 m 4
 172.862304688 725.826171875 178.41796875 721.123046875 184.733398438 718.784179688 c 4
 191.048828125 716.4453125 198.052734375 716.337890625 204.643554688 717.725585938 c 4
 217.823242188 720.501953125 229.015625 728.838867188 240.134765625 736.439453125 c 4
 281.223632812 764.52734375 328.280273438 785.450195312 377.875 789.638671875 c 4
 427.469726562 793.827148438 479.729492188 779.893554688 516.16796875 745.989257812 c 4
 547.6953125 716.655273438 565.32421875 674.750976562 572.475585938 632.28515625 c 4
 579.626953125 589.819335938 577.140625 546.369140625 573.745117188 503.439453125 c 4
 567.162109375 420.204101562 556.904296875 335.916015625 524.48046875 258.97265625 c 4
 508.268554688 220.500976562 486.518554688 184.15234375 458.4140625 153.28125 c 4
 430.309570312 122.41015625 395.720703125 97.109375 356.83984375 81.90625 c 4
 314.381835938 65.3056640625 268.141601562 61.0732421875 222.568359375 59.9423828125 c 4
 176.994140625 58.8115234375 131.231445312 60.6044921875 85.947265625 55.349609375 c 4
 74.64453125 54.0380859375 62.953125 52.1220703125 53.5791015625 45.6728515625 c 4
 48.8916015625 42.4482421875 44.900390625 38.0927734375 42.5947265625 32.8916015625 c 4
 40.2880859375 27.6904296875 39.7607421875 21.6201171875 41.6484375 16.25390625 c 4
 43.1220703125 12.064453125 46.001953125 8.4375 49.5400390625 5.75390625 c 4
 53.078125 3.0693359375 57.25390625 1.296875 61.5703125 0.2490234375 c 4
 70.2021484375 -1.845703125 79.2314453125 -1.0908203125 88.0947265625 -0.50390625 c 4
 182.305664062 5.7236328125 279.806640625 -8.2822265625 369.2890625 21.8408203125 c 4
 461.755859375 52.9677734375 534.33984375 129.07421875 577.888671875 216.380859375 c 4
 621.4375 303.6875 638.739257812 401.762695312 646.98828125 498.978515625 c 4
 651.318359375 550.008789062 653.264648438 601.7578125 643.973632812 652.122070312 c 4
 634.682617188 702.486328125 613.350585938 751.799804688 576.62890625 787.499023438 c 4
 552.291015625 811.158203125 521.822265625 828.184570312 489.348632812 838.061523438 c 4
 456.875976562 847.939453125 422.440429688 850.779296875 388.614257812 847.975585938 c 4
 320.961914062 842.3671875 256.842773438 814.611328125 198.783203125 779.435546875 c 4
 190.125 774.190429688 181.373046875 768.594726562 175.268554688 760.520507812 c 4
 172.215820312 756.482421875 169.880859375 751.849609375 168.857421875 746.892578125 c 4
 167.833984375 741.935546875 168.166015625 736.646484375 170.181640625 732.00390625 c 4
EndSplineSet
EndChar

StartChar: E
Encoding: 69 69 26
Width: 680
VWidth: 0
Flags: HW
LayerCount: 2
UndoRedoHistory
Layer: 1
Undoes
EndUndoes
Redoes
EndRedoes
EndUndoRedoHistory
Fore
SplineSet
465.225585938 818.995117188 m 2
 465.221679688 818.995117188 l 2
 477.124023438 819.075195312 489.013671875 818.126953125 500.770507812 816.095703125 c 0
 535.37109375 810.119140625 568.213867188 795.055664062 596.12109375 773.74609375 c 0
 608.374023438 764.389648438 619.958007812 753.498046875 626.622070312 739.595703125 c 0
 629.953125 732.643554688 632.005859375 725.002929688 632.022460938 717.294921875 c 0
 632.041015625 709.586914062 630 701.791015625 625.770507812 695.346679688 c 0
 622.0859375 689.727539062 616.745117188 685.1953125 610.571289062 682.545898438 c 0
 604.396484375 679.895507812 597.391601562 679.13671875 590.822265625 680.545898438 c 0
 585.32421875 681.723632812 580.19921875 684.34765625 575.721679688 687.74609375 c 0
 571.243164062 691.143554688 567.396484375 695.327148438 563.920898438 699.74609375 c 0
 556.97265625 708.583007812 551.4921875 718.520507812 544.221679688 727.095703125 c 0
 527.38671875 746.952148438 501.517578125 758.114257812 475.521484375 759.495117188 c 0
 449.526367188 760.876953125 423.544921875 753.034179688 401.071289062 739.895507812 c 0
 361.000976562 716.471679688 332.004882812 676.796875 315.822265625 633.294921875 c 0
 305.903320312 606.634765625 300.411132812 577.997070312 302.721679688 549.645507812 c 0
 305.03125 521.29296875 315.477539062 493.221679688 334.471679688 472.044921875 c 0
 335.810546875 470.552734375 337.213867188 469.114257812 338.622070312 467.6953125 c 1
 359.609375 470.208007812 380.814453125 470.728515625 401.970703125 468.946289062 c 0
 415.133789062 467.836914062 428.775390625 465.690429688 439.721679688 458.294921875 c 0
 445.194335938 454.599609375 449.852539062 449.591796875 452.622070312 443.595703125 c 0
 455.391601562 437.599609375 456.146484375 430.59765625 454.170898438 424.294921875 c 0
 452.017578125 417.426757812 446.77734375 411.829101562 440.622070312 408.095703125 c 0
 434.466796875 404.362304688 427.43359375 402.346679688 420.37109375 400.946289062 c 0
 390.251953125 394.970703125 358.279296875 399.805664062 330.721679688 413.346679688 c 0
 327.026367188 415.16015625 323.451171875 417.186523438 319.920898438 419.294921875 c 1
 312.344726562 416.141601562 304.802734375 412.883789062 297.37109375 409.395507812 c 0
 232.188476562 378.807617188 171.265625 332.0234375 141.421875 266.495117188 c 0
 126.499023438 233.731445312 119.924804688 196.86328125 125.170898438 161.245117188 c 0
 130.418945312 125.62890625 147.865234375 91.48046875 175.321289062 68.1953125 c 0
 194.877929688 51.6103515625 218.916015625 40.8486328125 243.822265625 34.74609375 c 0
 268.727539062 28.642578125 294.532226562 27.072265625 320.170898438 27.4951171875 c 0
 405.885742188 28.912109375 489.880859375 52.287109375 570.071289062 82.595703125 c 0
 579.241210938 86.0615234375 588.619140625 89.6953125 598.421875 89.595703125 c 0
 603.323242188 89.546875 608.291992188 88.5439453125 612.622070312 86.2451171875 c 0
 616.950195312 83.9462890625 620.626953125 80.294921875 622.571289062 75.794921875 c 0
 624.850585938 70.5302734375 624.604492188 64.37109375 622.474609375 59.044921875 c 0
 620.344726562 53.7197265625 616.454101562 49.1845703125 611.825195312 45.794921875 c 0
 602.569335938 39.0166015625 590.905273438 36.6953125 579.674804688 34.3466796875 c 0
 516.181640625 21.064453125 454.0078125 1.607421875 390.125976562 -9.6533203125 c 0
 326.243164062 -20.9169921875 259.303710938 -23.6806640625 197.526367188 -3.904296875 c 0
 166.625 5.9873046875 137.4140625 21.50390625 112.975585938 42.845703125 c 0
 88.537109375 64.1865234375 68.986328125 91.455078125 58.17578125 122.044921875 c 0
 44.1630859375 161.6953125 45.228515625 205.864257812 57.474609375 246.095703125 c 0
 69.72265625 286.325195312 92.7470703125 322.779296875 120.92578125 353.995117188 c 0
 163.198242188 400.826171875 218.477539062 436.03515625 278.575195312 454.794921875 c 1
 273.236328125 461.197265625 268.372070312 467.9921875 264.025390625 475.095703125 c 0
 247.998046875 501.28515625 238.977539062 531.568359375 236.775390625 562.1953125 c 0
 234.57421875 592.821289062 239.073242188 623.779296875 248.674804688 652.946289062 c 0
 265.732421875 704.7578125 299.484375 751.3203125 344.825195312 781.645507812 c 0
 380.248046875 805.3359375 422.712890625 818.70703125 465.225585938 818.995117188 c 2
EndSplineSet
EndChar

StartChar: P
Encoding: 80 80 27
Width: 680
VWidth: 0
Flags: HW
LayerCount: 2
UndoRedoHistory
Layer: 1
Undoes
EndUndoes
Redoes
EndRedoes
EndUndoRedoHistory
Fore
SplineSet
280.290039062 580.77734375 m 4
 284.62890625 588.365234375 289.170898438 595.876953125 294.69140625 602.653320312 c 4
 300.211914062 609.4296875 306.765625 615.48046875 314.475585938 619.59765625 c 4
 322.185546875 623.71484375 331.1171875 625.814453125 339.7734375 624.608398438 c 4
 348.430664062 623.40234375 356.724609375 618.688476562 361.44921875 611.334960938 c 4
 364.548828125 606.509765625 366.03515625 600.741210938 366.122070312 595.006835938 c 4
 366.208984375 589.2734375 364.939453125 583.569335938 362.868164062 578.221679688 c 4
 358.725585938 567.526367188 351.517578125 558.359375 344.80078125 549.0625 c 4
 317.05078125 510.655273438 296.359375 467.65234375 277.356445312 424.24609375 c 4
 231.452148438 319.3984375 194.5546875 210.836914062 150.482421875 105.20703125 c 4
 139.477539062 78.830078125 128.01171875 52.6103515625 114.615234375 27.3642578125 c 4
 107.431640625 13.828125 99.2822265625 0.123046875 86.623046875 -8.5126953125 c 4
 80.2939453125 -12.8310546875 72.896484375 -15.7412109375 65.2451171875 -16.15625 c 4
 57.59375 -16.572265625 49.7041015625 -14.3701171875 43.802734375 -9.4833984375 c 4
 38.001953125 -4.6806640625 34.3916015625 2.4765625 33.1923828125 9.9111328125 c 4
 31.9931640625 17.345703125 33.0869140625 25.033203125 35.552734375 32.1484375 c 4
 40.4833984375 46.3798828125 50.5556640625 58.1142578125 59.5908203125 70.1630859375 c 4
 89.5107421875 110.0625 109.633789062 156.342773438 127.911132812 202.743164062 c 4
 167.397460938 302.986328125 199.592773438 406.10546875 242.825195312 504.791015625 c 4
 254.162109375 530.669921875 266.264648438 556.250976562 280.290039062 580.77734375 c 4
155.657226562 671.137695312 m 4
 152.624023438 665.682617188 149.765625 659.977539062 148.873046875 653.80078125 c 4
 148.426757812 650.711914062 148.487304688 647.530273438 149.263671875 644.506835938 c 4
 150.040039062 641.484375 151.55078125 638.625 153.763671875 636.42578125 c 4
 157.243164062 632.967773438 162.310546875 631.341796875 167.2109375 631.5625 c 4
 172.111328125 631.783203125 176.833984375 633.73046875 180.83984375 636.561523438 c 4
 188.852539062 642.221679688 193.91796875 651.032226562 199.349609375 659.201171875 c 4
 227.928710938 702.184570312 273.178710938 733.370117188 323.06640625 746.6171875 c 4
 377.551757812 761.0859375 438.6953125 753.686523438 485.0234375 721.56640625 c 4
 510.747070312 703.731445312 531.346679688 678.893554688 545.4375 650.943359375 c 4
 559.529296875 622.993164062 567.211914062 591.999023438 569.287109375 560.766601562 c 4
 572.84375 507.243164062 559.361328125 451.890625 527.348632812 408.84765625 c 4
 511.341796875 387.327148438 490.875976562 369.051757812 467.358398438 356.15625 c 4
 443.840820312 343.260742188 417.2734375 335.80859375 390.458007812 335.255859375 c 4
 380.478515625 335.049804688 370.17578125 335.735351562 360.83203125 332.223632812 c 4
 356.16015625 330.467773438 351.8125 327.624023438 348.806640625 323.639648438 c 4
 345.80078125 319.655273438 344.244140625 314.466796875 345.149414062 309.55859375 c 4
 345.770507812 306.194335938 347.510742188 303.08203125 349.875976562 300.610351562 c 4
 352.240234375 298.138671875 355.2109375 296.288085938 358.385742188 295.013671875 c 4
 364.735351562 292.462890625 371.74609375 292.196289062 378.587890625 292.219726562 c 4
 436.270507812 292.413085938 493.7890625 311.405273438 540.05078125 345.860351562 c 4
 586.311523438 380.31640625 621.025390625 430.088867188 637.061523438 485.498046875 c 4
 650.6484375 532.443359375 650.842773438 583.30078125 636.826171875 630.120117188 c 4
 622.809570312 676.939453125 594.524414062 719.505859375 556.276367188 749.9296875 c 4
 498.517578125 795.873046875 420.037109375 812.174804688 347.208984375 800.219726562 c 4
 307.903320312 793.767578125 269.782226562 779.479492188 236.538085938 757.538085938 c 4
 203.294921875 735.59765625 175.014648438 705.94921875 155.657226562 671.137695312 c 4
EndSplineSet
EndChar

StartChar: R
Encoding: 82 82 29
Width: 680
VWidth: 0
Flags: HW
LayerCount: 2
UndoRedoHistory
Layer: 1
Undoes
EndUndoes
Redoes
EndRedoes
EndUndoRedoHistory
Fore
SplineSet
265.936523438 569.762695312 m 4
 270.275390625 577.349609375 274.817382812 584.862304688 280.337890625 591.638671875 c 4
 285.858398438 598.415039062 292.412109375 604.465820312 300.122070312 608.583007812 c 4
 307.83203125 612.701171875 316.764648438 614.799804688 325.421875 613.59375 c 4
 334.078125 612.387695312 342.373046875 607.672851562 347.096679688 600.318359375 c 4
 350.196289062 595.493164062 351.682617188 589.724609375 351.76953125 583.991210938 c 4
 351.856445312 578.256835938 350.5859375 572.552734375 348.514648438 567.206054688 c 4
 344.372070312 556.510742188 337.1640625 547.342773438 330.447265625 538.046875 c 4
 302.696289062 499.639648438 282.005859375 456.635742188 263.001953125 413.23046875 c 4
 217.098632812 308.383789062 180.19921875 199.823242188 136.12890625 94.1923828125 c 4
 125.124023438 67.81640625 113.658203125 41.5947265625 100.26171875 16.349609375 c 4
 93.078125 2.8134765625 84.9287109375 -10.890625 72.26953125 -19.52734375 c 4
 65.9404296875 -23.8447265625 58.54296875 -26.7548828125 50.892578125 -27.169921875 c 4
 43.2412109375 -27.5859375 35.3515625 -25.3837890625 29.4501953125 -20.4970703125 c 4
 23.6494140625 -15.6943359375 20.0390625 -8.537109375 18.83984375 -1.1025390625 c 4
 17.640625 6.33203125 18.734375 14.01953125 21.2001953125 21.134765625 c 4
 26.1318359375 35.3662109375 36.203125 47.099609375 45.2392578125 59.1494140625 c 4
 75.158203125 99.0478515625 95.28125 145.328125 113.55859375 191.728515625 c 4
 153.045898438 291.970703125 185.243164062 395.088867188 228.47265625 493.774414062 c 4
 239.809570312 519.654296875 251.911132812 545.235351562 265.936523438 569.762695312 c 4
198.706054688 706.786132812 m 4
 195.458007812 701.399414062 192.478515625 695.676757812 191.584960938 689.44921875 c 4
 191.138671875 686.3359375 191.231445312 683.125 192.068359375 680.092773438 c 4
 192.905273438 677.060546875 194.506835938 674.213867188 196.811523438 672.07421875 c 4
 200.35546875 668.78515625 205.401367188 667.362304688 210.223632812 667.723632812 c 4
 215.044921875 668.0859375 219.640625 670.114257812 223.55859375 672.948242188 c 4
 231.39453125 678.616210938 236.486328125 687.196289062 242.397460938 694.850585938 c 4
 254.109375 710.015625 269.59765625 722.03125 286.53125 730.998046875 c 4
 303.463867188 739.96484375 321.841796875 745.967773438 340.513671875 750.266601562 c 4
 370.219726562 757.10546875 401.102539062 759.703125 431.30859375 755.6015625 c 4
 461.514648438 751.500976562 491.044921875 740.516601562 515.270507812 722.014648438 c 4
 540.512695312 702.736328125 559.456054688 675.594726562 569.932617188 645.610351562 c 4
 580.409179688 615.625976562 582.524414062 582.91796875 577.134765625 551.616210938 c 4
 568.727539062 502.791992188 541.69140625 457.331054688 502.522460938 426.995117188 c 4
 463.352539062 396.659179688 412.389648438 381.842773438 363.106445312 386.90625 c 4
 350.909179688 388.16015625 338.521484375 390.5703125 326.510742188 388.110351562 c 4
 320.504882812 386.879882812 314.670898438 384.3828125 310.084960938 380.314453125 c 4
 305.5 376.24609375 302.249023438 370.520507812 301.796875 364.40625 c 4
 301.39453125 358.962890625 303.225585938 353.465820312 306.431640625 349.047851562 c 4
 309.637695312 344.629882812 314.153320312 341.25390625 319.109375 338.96484375 c 4
 329.020507812 334.385742188 340.319335938 334.109375 351.235351562 334.267578125 c 4
 410.932617188 335.1328125 471.16796875 346.952148438 524.047851562 374.668945312 c 4
 576.928710938 402.384765625 622.048828125 446.793945312 644.909179688 501.947265625 c 4
 662.317382812 543.946289062 666.358398438 591.41015625 656.04296875 635.6875 c 4
 645.727539062 679.96484375 621.067382812 720.821289062 586.5234375 750.37890625 c 4
 556.708984375 775.889648438 520.005859375 792.834960938 481.682617188 801.267578125 c 4
 443.359375 809.700195312 403.446289062 809.794921875 364.65625 803.8671875 c 4
 331.931640625 798.8671875 299.6328125 789.515625 270.583984375 773.639648438 c 4
 241.534179688 757.763671875 215.797851562 735.137695312 198.706054688 706.786132812 c 4
349.573242188 326.07421875 m 4
 364.845703125 318.47265625 376.58984375 304.975585938 384.703125 289.967773438 c 4
 392.815429688 274.959960938 397.595703125 258.403320312 401.768554688 241.861328125 c 4
 414.13671875 192.831054688 421.674804688 142.71875 428.227539062 92.578125 c 4
 430.290039062 76.802734375 432.2734375 60.9287109375 436.836914062 45.6875 c 4
 441.400390625 30.4462890625 448.721679688 15.7138671875 460.112304688 4.6064453125 c 4
 471.3515625 -6.3525390625 486.181640625 -13.3203125 501.623046875 -16.1474609375 c 4
 517.064453125 -18.9736328125 533.090820312 -17.7841796875 548.29296875 -13.8701171875 c 4
 578.697265625 -6.0400390625 605.256835938 12.1943359375 630.399414062 30.9990234375 c 4
 636.225585938 35.3564453125 642.123046875 39.875 646.198242188 45.90234375 c 4
 648.236328125 48.916015625 649.787109375 52.2900390625 650.47265625 55.8623046875 c 4
 651.158203125 59.435546875 650.953125 63.2119140625 649.625 66.5986328125 c 4
 647.731445312 71.423828125 643.609375 75.216796875 638.81640625 77.1904296875 c 4
 634.0234375 79.1650390625 628.619140625 79.408203125 623.53515625 78.3974609375 c 4
 613.366210938 76.3759765625 604.821289062 69.6953125 596.969726562 62.923828125 c 4
 586.188476562 53.6240234375 575.709960938 43.6279296875 562.9609375 37.28515625 c 4
 556.586914062 34.1142578125 549.671875 31.9052734375 542.5703125 31.4072265625 c 4
 535.46875 30.9091796875 528.168945312 32.1787109375 521.918945312 35.587890625 c 4
 514.58984375 39.5849609375 509.028320312 46.3212890625 505.227539062 53.75390625 c 4
 501.426757812 61.1865234375 499.25390625 69.3359375 497.435546875 77.4833984375 c 4
 487.17578125 123.461914062 487.44140625 171.112304688 480.452148438 217.700195312 c 4
 476.958007812 240.994140625 471.607421875 264.139648438 462.431640625 285.833984375 c 4
 453.255859375 307.528320312 440.12890625 327.790039062 422.55078125 343.469726562 c 4
 402.978515625 360.928710938 378.500976562 372.189453125 353.237304688 379.235351562 c 4
 344.103515625 381.783203125 334.471679688 383.818359375 325.196289062 381.84765625 c 4
 320.55859375 380.86328125 316.090820312 378.849609375 312.543945312 375.703125 c 4
 308.998046875 372.556640625 306.421875 368.236328125 305.73828125 363.544921875 c 4
 304.98828125 358.395507812 306.547851562 353.067382812 309.424804688 348.731445312 c 4
 312.302734375 344.395507812 316.418945312 340.989257812 320.901367188 338.34765625 c 4
 329.868164062 333.063476562 340.256835938 330.711914062 349.573242188 326.07421875 c 4
EndSplineSet
EndChar

StartChar: F
Encoding: 70 70 30
Width: 680
VWidth: 0
Flags: HW
LayerCount: 2
UndoRedoHistory
Layer: 1
Undoes
EndUndoes
Redoes
EndRedoes
EndUndoRedoHistory
Fore
SplineSet
289.830078125 616.55078125 m 4
 293.4296875 630.216796875 296.772460938 644.290039062 304.528320312 656.104492188 c 4
 308.407226562 662.010742188 313.389648438 667.271484375 319.439453125 670.923828125 c 4
 325.489257812 674.575195312 332.645507812 676.55078125 339.680664062 675.889648438 c 4
 347.568359375 675.147460938 354.970703125 671.099609375 360.389648438 665.321289062 c 4
 365.807617188 659.54296875 369.314453125 652.126953125 371.065429688 644.400390625 c 4
 374.567382812 628.94921875 371.241210938 612.825195312 367.19921875 597.505859375 c 4
 339.974609375 494.323242188 281.10546875 402.916015625 233.778320312 307.270507812 c 4
 191.049804688 220.91796875 157.455078125 130.366210938 125.733398438 39.392578125 c 4
 121.206054688 26.40625 116.575195312 13.146484375 108.129882812 2.2919921875 c 4
 103.90625 -3.134765625 98.7392578125 -7.8935546875 92.6982421875 -11.1796875 c 4
 86.6572265625 -14.46484375 79.7158203125 -16.2314453125 72.8603515625 -15.689453125 c 4
 63.0078125 -14.9111328125 53.8486328125 -9.3271484375 47.7802734375 -1.5263671875 c 4
 41.7109375 6.2734375 38.583984375 16.1142578125 37.9345703125 25.9755859375 c 4
 36.634765625 45.69921875 44.71484375 64.7001953125 52.7578125 82.755859375 c 4
 88.2216796875 162.372070312 126.172851562 240.856445312 164.927734375 318.923828125 c 4
 212.857421875 415.473632812 262.374023438 512.313476562 289.830078125 616.55078125 c 4
85.97265625 636.384765625 m 4
 77.9892578125 638.786132812 71.0556640625 644.2265625 66.3525390625 651.109375 c 4
 61.6494140625 657.9921875 59.1201171875 666.25 58.58984375 674.569335938 c 4
 57.5283203125 691.208007812 64.2529296875 707.485351562 73.3623046875 721.44921875 c 4
 87.7177734375 743.456054688 108.178710938 761.19140625 131.243164062 773.77734375 c 4
 154.307617188 786.364257812 179.92578125 793.916992188 205.948242188 797.555664062 c 4
 266.499023438 806.021484375 327.719726562 793.619140625 388.337890625 785.650390625 c 4
 448.95703125 777.680664062 513.125 774.63671875 568.700195312 800.124023438 c 4
 577.642578125 804.224609375 586.301757812 809.043945312 595.65625 812.09375 c 4
 605.009765625 815.143554688 615.357421875 816.3203125 624.622070312 813.008789062 c 4
 629.431640625 811.2890625 633.846679688 808.357421875 637.053710938 804.380859375 c 4
 640.260742188 800.405273438 642.2109375 795.369140625 642.204101562 790.26171875 c 4
 642.196289062 784.428710938 639.676757812 778.8046875 636.083984375 774.209960938 c 4
 632.490234375 769.615234375 627.868164062 765.939453125 623.131835938 762.534179688 c 4
 589.338867188 738.240234375 548.048828125 725.963867188 506.66015625 721.58984375 c 4
 465.270507812 717.21484375 423.475585938 720.345703125 382.060546875 724.465820312 c 4
 340.197265625 728.629882812 297.958984375 733.803710938 256.20703125 728.65234375 c 4
 235.330078125 726.076171875 214.673828125 720.883789062 195.609375 711.994140625 c 4
 176.545898438 703.10546875 159.091796875 690.436523438 145.768554688 674.158203125 c 4
 140.51953125 667.744140625 135.931640625 660.807617188 130.629882812 654.436523438 c 4
 125.329101562 648.064453125 119.186523438 642.1796875 111.708007812 638.60546875 c 4
 103.759765625 634.806640625 94.408203125 633.846679688 85.97265625 636.384765625 c 4
423.999023438 420.918945312 m 4
 431.109375 422.724609375 438.383789062 424.599609375 445.686523438 423.905273438 c 4
 449.337890625 423.55859375 452.958984375 422.55078125 456.114257812 420.680664062 c 4
 459.26953125 418.810546875 461.940429688 416.045898438 463.423828125 412.69140625 c 4
 465.01171875 409.099609375 465.17578125 404.958007812 464.196289062 401.155273438 c 4
 463.216796875 397.352539062 461.140625 393.881835938 458.49609375 390.978515625 c 4
 453.208007812 385.172851562 445.879882812 381.706054688 438.657226562 378.623046875 c 4
 375.107421875 351.497070312 305.19921875 343.234375 236.213867188 339.321289062 c 4
 224.51171875 338.658203125 212.75390625 338.111328125 201.087890625 339.239257812 c 4
 189.420898438 340.366210938 177.776367188 343.23046875 167.578125 349.008789062 c 4
 158.534179688 354.133789062 150.645507812 361.703125 146.431640625 371.206054688 c 4
 144.325195312 375.958007812 143.162109375 381.146484375 143.228515625 386.34375 c 4
 143.294921875 391.541015625 144.60546875 396.741210938 147.173828125 401.259765625 c 4
 150.47265625 407.063476562 155.771484375 411.607421875 161.780273438 414.518554688 c 4
 167.788085938 417.4296875 174.481445312 418.767578125 181.154296875 418.989257812 c 4
 194.5 419.431640625 207.551757812 415.545898438 220.494140625 412.259765625 c 4
 237.940429688 407.829101562 255.676757812 404.424804688 273.607421875 402.840820312 c 4
 324.149414062 398.374023438 374.823242188 408.423828125 423.999023438 420.918945312 c 4
EndSplineSet
EndChar

StartChar: T
Encoding: 84 84 31
Width: 567
VWidth: 0
Flags: HW
LayerCount: 2
UndoRedoHistory
Layer: 1
Undoes
EndUndoes
Redoes
EndRedoes
EndUndoRedoHistory
Fore
SplineSet
380.494140625 614.474609375 m 4
 384.09375 628.141601562 387.436523438 642.21484375 395.193359375 654.028320312 c 4
 399.072265625 659.935546875 404.0546875 665.197265625 410.104492188 668.848632812 c 4
 416.154296875 672.5 423.311523438 674.4765625 430.346679688 673.814453125 c 4
 438.234375 673.072265625 445.63671875 669.024414062 451.055664062 663.24609375 c 4
 456.473632812 657.466796875 459.98046875 650.05078125 461.731445312 642.325195312 c 4
 465.233398438 626.874023438 461.907226562 610.749023438 457.865234375 595.430664062 c 4
 430.641601562 492.248046875 371.76953125 400.841796875 324.443359375 305.196289062 c 4
 281.71484375 218.842773438 248.123046875 128.290039062 216.400390625 37.31640625 c 4
 211.872070312 24.330078125 207.241210938 11.0712890625 198.794921875 0.216796875 c 4
 194.572265625 -5.2099609375 189.405273438 -9.96875 183.364257812 -13.25390625 c 4
 177.323242188 -16.5400390625 170.381835938 -18.3056640625 163.526367188 -17.763671875 c 4
 153.673828125 -16.9853515625 144.515625 -11.4013671875 138.447265625 -3.6005859375 c 4
 132.377929688 4.19921875 129.250976562 14.0390625 128.6015625 23.9013671875 c 4
 127.301757812 43.6240234375 135.381835938 62.6240234375 143.423828125 80.6796875 c 4
 178.88671875 160.295898438 216.837890625 238.780273438 255.591796875 316.84765625 c 4
 303.521484375 413.397460938 353.038085938 510.237304688 380.494140625 614.474609375 c 4
77.8818359375 649.622070312 m 4
 70.35546875 651.744140625 63.7802734375 656.788085938 59.36328125 663.240234375 c 4
 54.9462890625 669.692382812 52.6376953125 677.482421875 52.3173828125 685.294921875 c 4
 51.6767578125 700.919921875 58.78515625 716.012695312 68.4736328125 728.287109375 c 4
 83.724609375 747.609375 105.381835938 761.251953125 128.559570312 769.541015625 c 4
 151.73828125 777.830078125 176.4609375 781.025390625 201.057617188 781.993164062 c 4
 259.823242188 784.306640625 318.268554688 774.231445312 376.842773438 768.95703125 c 4
 435.416015625 763.682617188 496.102539062 763.491210938 551.009765625 784.561523438 c 4
 560.579101562 788.233398438 569.953125 792.544921875 579.897460938 795.029296875 c 4
 589.841796875 797.513671875 600.618164062 798.059570312 610.1328125 794.24609375 c 4
 614.842773438 792.358398438 619.166992188 789.401367188 622.36328125 785.459960938 c 4
 625.559570312 781.518554688 627.583007812 776.571289062 627.71484375 771.498046875 c 4
 627.89453125 764.616210938 624.615234375 757.983398438 619.991210938 752.883789062 c 4
 615.3671875 747.783203125 609.473632812 744.020507812 603.514648438 740.572265625 c 4
 551.385742188 710.403320312 489.900390625 700.197265625 429.686523438 698.807617188 c 4
 369.47265625 697.41796875 309.383789062 704.28125 249.170898438 705.705078125 c 4
 232.720703125 706.094726562 216.186523438 706.072265625 199.913085938 703.631835938 c 4
 183.640625 701.19140625 167.551757812 696.244140625 153.678710938 687.396484375 c 4
 145.01953125 681.874023438 137.369140625 674.939453125 129.4453125 668.405273438 c 4
 121.522460938 661.87109375 113.16015625 655.638671875 103.6171875 651.842773438 c 4
 95.4716796875 648.6015625 86.3193359375 647.244140625 77.8818359375 649.622070312 c 4
EndSplineSet
EndChar

StartChar: M
Encoding: 77 77 32
Width: 680
VWidth: 0
Flags: HW
LayerCount: 2
UndoRedoHistory
Layer: 1
Undoes
EndUndoes
Redoes
EndRedoes
EndUndoRedoHistory
Fore
SplineSet
547.7734375 -0.7900390625 m 0
 551.532226562 7.330078125 551.844726562 16.681640625 550.501953125 25.5283203125 c 0
 549.16015625 34.375 546.258789062 42.8955078125 543.793945312 51.4970703125 c 0
 529.924804688 99.890625 529.830078125 151.479492188 537.748046875 201.194335938 c 0
 545.665039062 250.91015625 561.381835938 299.044921875 578.787109375 346.282226562 c 0
 620.692382812 460.009765625 673.48828125 573.350585938 676.744140625 694.509765625 c 0
 677.330078125 716.314453125 676.15625 738.73828125 667.478515625 758.75 c 0
 663.139648438 768.755859375 656.920898438 778.02734375 648.784179688 785.290039062 c 0
 640.6484375 792.552734375 630.546875 797.744140625 619.766601562 799.40234375 c 0
 611.165039062 800.724609375 602.288085938 799.790039062 593.971679688 797.2265625 c 0
 585.654296875 794.663085938 577.880859375 790.501953125 570.795898438 785.448242188 c 0
 556.626953125 775.33984375 545.305664062 761.828125 534.063476562 748.540039062 c 0
 499.354492188 707.516601562 463.705078125 666.985351562 434.809570312 621.678710938 c 0
 415.122070312 590.80859375 398.739257812 557.978515625 381.20703125 525.833984375 c 0
 357.85546875 483.020507812 332.091796875 440.533203125 320.978515625 393.048828125 c 0
 318.815429688 383.80859375 317.2265625 374.162109375 319.141601562 364.8671875 c 0
 320.098632812 360.219726562 321.948242188 355.71875 324.827148438 351.946289062 c 0
 327.705078125 348.173828125 331.641601562 345.155273438 336.15234375 343.680664062 c 0
 341.025390625 342.087890625 346.413085938 342.352539062 351.263671875 344.015625 c 0
 356.114257812 345.677734375 360.44140625 348.685546875 364.020507812 352.356445312 c 0
 371.178710938 359.698242188 375.279296875 369.421875 379.006835938 378.974609375 c 0
 409.370117188 456.7890625 425.591796875 539.921875 428.676757812 623.392578125 c 0
 430.27734375 666.693359375 427.987304688 711.69921875 408.40234375 750.350585938 c 0
 403.015625 760.98046875 396.306640625 771.064453125 387.584960938 779.184570312 c 0
 378.86328125 787.303710938 368.016601562 793.392578125 356.254882812 795.302734375 c 0
 347.497070312 796.725585938 338.431640625 795.8046875 329.961914062 793.161132812 c 0
 321.4921875 790.517578125 313.603515625 786.181640625 306.491210938 780.877929688 c 0
 292.264648438 770.270507812 281.260742188 755.994140625 270.801757812 741.658203125 c 0
 163.517578125 594.599609375 94.6171875 422.654296875 46.0693359375 247.21484375 c 0
 27.3291015625 179.494140625 11.4228515625 110.76171875 4.279296875 40.8603515625 c 0
 2.8515625 26.89453125 1.853515625 12.318359375 6.982421875 -0.7490234375 c 0
 9.546875 -7.283203125 13.6767578125 -13.2958984375 19.30859375 -17.4853515625 c 0
 24.939453125 -21.6748046875 32.130859375 -23.9267578125 39.08984375 -23.013671875 c 0
 44.47265625 -22.30859375 49.533203125 -19.755859375 53.6064453125 -16.1669921875 c 0
 57.6796875 -12.578125 60.798828125 -7.9853515625 63.0546875 -3.046875 c 0
 67.5654296875 6.8291015625 68.6484375 17.8701171875 69.7763671875 28.669921875 c 0
 88.4658203125 207.737304688 136.158203125 384.02734375 213.37109375 546.669921875 c 0
 238.166992188 598.901367188 265.997070312 649.74609375 297.834960938 698.008789062 c 0
 301.920898438 704.203125 306.158203125 710.44921875 311.903320312 715.14453125 c 0
 314.775390625 717.4921875 318.013671875 719.426757812 321.532226562 720.604492188 c 0
 325.05078125 721.782226562 328.856445312 722.184570312 332.506835938 721.520507812 c 0
 336.48828125 720.796875 340.169921875 718.83203125 343.33203125 716.306640625 c 0
 346.493164062 713.782226562 349.169921875 710.705078125 351.666992188 707.520507812 c 0
 367.021484375 687.940429688 376.009765625 663.877929688 380.034179688 639.323242188 c 0
 384.057617188 614.767578125 383.307617188 589.646484375 380.659179688 564.905273438 c 0
 375.36328125 515.422851562 362.517578125 466.345703125 365.297851562 416.658203125 c 0
 365.502929688 413.002929688 365.782226562 409.256835938 364.73828125 405.748046875 c 0
 364.215820312 403.993164062 363.35546875 402.3203125 362.100585938 400.98828125 c 0
 360.845703125 399.655273438 359.1796875 398.678710938 357.37109375 398.3984375 c 0
 355.897460938 398.170898438 354.36328125 398.411132812 353.004882812 399.02734375 c 0
 351.647460938 399.643554688 350.466796875 400.62890625 349.571289062 401.821289062 c 0
 347.78125 404.206054688 347.1796875 407.350585938 347.541015625 410.311523438 c 0
 347.90234375 413.271484375 349.159179688 416.064453125 350.7734375 418.572265625 c 0
 352.38671875 421.080078125 354.357421875 423.334960938 356.294921875 425.6015625 c 0
 407.384765625 485.366210938 440.03515625 558.533203125 485.787109375 622.475585938 c 0
 509.987304688 656.297851562 537.778320312 687.423828125 566.9921875 717.022460938 c 0
 570.47265625 720.549804688 574.040039062 724.10546875 578.39453125 726.469726562 c 0
 580.571289062 727.65234375 582.934570312 728.521484375 585.387695312 728.864257812 c 0
 587.841796875 729.206054688 590.389648438 729.006835938 592.706054688 728.129882812 c 0
 594.966796875 727.2734375 596.961914062 725.791015625 598.588867188 724.001953125 c 0
 600.215820312 722.213867188 601.486328125 720.124023438 602.516601562 717.936523438 c 0
 605.327148438 711.970703125 606.365234375 705.2890625 606.375976562 698.694335938 c 0
 606.38671875 692.098632812 605.407226562 685.545898438 604.348632812 679.036132812 c 0
 591.157226562 597.8984375 565.434570312 519.357421875 537.74609375 441.958007812 c 0
 502.8671875 344.459960938 464.330078125 246.497070312 456.006835938 143.284179688 c 0
 452.404296875 98.6103515625 455.025390625 51.74609375 476.177734375 12.234375 c 0
 480.122070312 4.8671875 484.731445312 -2.240234375 490.75390625 -8.033203125 c 0
 496.776367188 -13.826171875 504.321289062 -18.2607421875 512.575195312 -19.56640625 c 0
 519.624023438 -20.6806640625 527.025390625 -19.4375 533.322265625 -16.0791015625 c 0
 539.619140625 -12.720703125 544.775390625 -7.2666015625 547.7734375 -0.7900390625 c 0
381.551757812 413.872070312 m 0
 381.551757812 413.892578125 381.551757812 413.924804688 381.551757812 413.9453125 c 0
 381.551757812 435.625976562 371.24609375 453.22265625 358.546875 453.22265625 c 0
 345.84765625 453.22265625 335.541992188 435.625976562 335.541992188 413.9453125 c 0
 335.541992188 413.924804688 335.541992188 413.892578125 335.541992188 413.872070312 c 0
 335.541992188 413.852539062 335.541992188 413.8203125 335.541992188 413.799804688 c 0
 335.541992188 392.119140625 345.84765625 374.522460938 358.546875 374.522460938 c 0
 371.24609375 374.522460938 381.551757812 392.119140625 381.551757812 413.799804688 c 0
 381.551757812 413.8203125 381.551757812 413.852539062 381.551757812 413.872070312 c 0
EndSplineSet
EndChar

StartChar: N
Encoding: 78 78 33
Width: 680
VWidth: 0
Flags: HW
LayerCount: 2
UndoRedoHistory
Layer: 1
Undoes
EndUndoes
Redoes
EndRedoes
EndUndoRedoHistory
Fore
SplineSet
294.559570312 774.450195312 m 4
 298.498046875 783.864257812 302.631835938 793.440429688 309.489257812 800.998046875 c 4
 312.916992188 804.77734375 317.014648438 808.000976562 321.672851562 810.08203125 c 4
 326.331054688 812.1640625 331.568359375 813.067382812 336.608398438 812.275390625 c 4
 340.7265625 811.627929688 344.64453125 809.861328125 347.946289062 807.31640625 c 4
 351.248046875 804.772460938 353.936523438 801.463867188 355.883789062 797.779296875 c 4
 359.778320312 790.408203125 360.640625 781.682617188 359.372070312 773.443359375 c 4
 356.8359375 756.96484375 346.493164062 742.956054688 337.6328125 728.83203125 c 4
 316.337890625 694.885742188 302.336914062 656.9765625 288.311523438 619.438476562 c 4
 230.46875 464.625976562 169.595703125 310.693359375 123.309570312 152.041992188 c 4
 114.674804688 122.4453125 106.549804688 92.6884765625 99.6591796875 62.6376953125 c 4
 96.0556640625 46.9248046875 92.5126953125 30.525390625 82.54296875 17.8583984375 c 4
 77.5576171875 11.5244140625 70.96484375 6.3046875 63.3134765625 3.76953125 c 4
 55.6630859375 1.2333984375 46.927734375 1.56640625 39.8779296875 5.474609375 c 4
 34.884765625 8.2421875 30.9072265625 12.6748046875 28.2890625 17.748046875 c 4
 25.671875 22.8212890625 24.37109375 28.5126953125 24.06640625 34.2138671875 c 4
 23.45703125 45.615234375 26.72265625 56.8310546875 30.0615234375 67.7490234375 c 4
 52.859375 142.286132812 80.634765625 215.192382812 108.568359375 287.959960938 c 4
 148.88671875 392.989257812 189.5859375 497.876953125 228.80078125 603.323242188 c 4
 250.103515625 660.603515625 270.975585938 718.0703125 294.559570312 774.450195312 c 4
585.047851562 775.141601562 m 4
 588.333984375 783.873046875 591.698242188 792.72265625 597.220703125 800.2421875 c 4
 599.982421875 804.002929688 603.27734375 807.400390625 607.133789062 810.026367188 c 4
 610.989257812 812.65234375 615.420898438 814.489257812 620.05078125 815.061523438 c 4
 624.473632812 815.607421875 629.018554688 814.987304688 633.184570312 813.405273438 c 4
 637.350585938 811.823242188 641.137695312 809.291015625 644.29296875 806.143554688 c 4
 650.602539062 799.848632812 654.270507812 791.209960938 655.497070312 782.381835938 c 4
 656.72265625 773.553710938 655.633789062 764.526367188 653.412109375 755.895507812 c 4
 651.190429688 747.263671875 647.856445312 738.96484375 644.522460938 730.69921875 c 4
 587.744140625 589.890625 528.458984375 450.010742188 477.524414062 306.984375 c 4
 447.516601562 222.719726562 420.438476562 137.447265625 392.64453125 52.4267578125 c 4
 388.952148438 41.1318359375 385.073242188 29.5244140625 377.350585938 20.4921875 c 4
 373.490234375 15.9755859375 368.678710938 12.19140625 363.15234375 10.0107421875 c 4
 357.625 7.8291015625 351.359375 7.3251953125 345.693359375 9.1171875 c 4
 339.66796875 11.0234375 334.591796875 15.4482421875 331.34375 20.8701171875 c 4
 328.095703125 26.2919921875 326.595703125 32.6513671875 326.444335938 38.9697265625 c 4
 326.142578125 51.607421875 331 63.7265625 335.705078125 75.458984375 c 4
 388.310546875 206.654296875 431.706054688 341.311523438 477.461914062 475.049804688 c 4
 511.861328125 575.596679688 547.616210938 675.68359375 585.047851562 775.141601562 c 4
367.534179688 751.166015625 m 4
 365.534179688 523.69921875 382.124023438 296.463867188 384.52734375 69 c 4
 384.688476562 53.7890625 384.61328125 37.84375 377.42578125 24.4375 c 4
 373.831054688 17.734375 368.423828125 11.869140625 361.596679688 8.5166015625 c 4
 354.76953125 5.1640625 346.478515625 4.5224609375 339.51171875 7.57421875 c 4
 335.692382812 9.2470703125 332.369140625 11.95703125 329.743164062 15.1953125 c 4
 327.1171875 18.4345703125 325.173828125 22.1923828125 323.783203125 26.123046875 c 4
 321.001953125 33.984375 320.423828125 42.427734375 319.893554688 50.7490234375 c 4
 304.8671875 286.57421875 308.658203125 523.13671875 304.591796875 759.405273438 c 4
 304.412109375 769.822265625 304.251953125 780.473632812 307.533203125 790.362304688 c 4
 309.173828125 795.305664062 311.686523438 800.004882812 315.216796875 803.834960938 c 4
 318.747070312 807.666015625 323.328125 810.59765625 328.397460938 811.793945312 c 4
 335.19140625 813.397460938 342.541015625 811.763671875 348.4375 808.030273438 c 4
 354.334960938 804.295898438 358.834960938 798.592773438 361.801757812 792.275390625 c 4
 367.735351562 779.638671875 367.65625 765.125976562 367.534179688 751.166015625 c 4
EndSplineSet
EndChar

StartChar: O
Encoding: 79 79 34
Width: 680
VWidth: 0
Flags: HW
LayerCount: 2
UndoRedoHistory
Layer: 1
Undoes
EndUndoes
Redoes
EndRedoes
EndUndoRedoHistory
Fore
SplineSet
497.50390625 785.44921875 m 0
 499.0390625 789.846679688 498.740234375 794.787109375 497.0390625 799.123046875 c 0
 495.336914062 803.458984375 492.293945312 807.202148438 488.626953125 810.07421875 c 0
 481.29296875 815.819335938 471.821289062 818.0234375 462.586914062 819.249023438 c 0
 424.5078125 824.30078125 385.428710938 815.109375 351.06640625 797.94140625 c 0
 316.704101562 780.772460938 286.6875 755.942382812 259.474609375 728.83203125 c 0
 162.168945312 631.891601562 98.60546875 504.657226562 63.2109375 371.944335938 c 0
 46.2314453125 308.283203125 35.361328125 241.682617188 45.12890625 176.524414062 c 0
 50.013671875 143.9453125 60.109375 111.998046875 76.380859375 83.3544921875 c 0
 92.65234375 54.7099609375 115.209960938 29.43359375 142.80859375 11.4453125 c 0
 180.615234375 -13.197265625 227.029296875 -23.392578125 272.03125 -20 c 0
 317.032226562 -16.6064453125 360.564453125 -0.0654296875 398.330078125 24.6416015625 c 0
 473.859375 74.0556640625 524.680664062 153.529296875 562.283203125 235.581054688 c 0
 608.338867188 336.077148438 638.141601562 445.204101562 638.555664062 555.75 c 0
 638.696289062 593.385742188 634.877929688 632.784179688 614.49609375 664.423828125 c 0
 597.606445312 690.643554688 570.642578125 709.1328125 541.810546875 721.02734375 c 0
 535.609375 723.584960938 529.22265625 725.888671875 522.559570312 726.665039062 c 0
 515.895507812 727.440429688 508.873046875 726.5859375 503.099609375 723.170898438 c 4
 499.221679688 720.876953125 496.012695312 717.470703125 493.939453125 713.470703125 c 0
 491.866210938 709.469726562 490.932617188 704.888671875 491.258789062 700.39453125 c 0
 491.672851562 694.68359375 494.086914062 689.23046875 497.51953125 684.646484375 c 0
 500.952148438 680.0625 505.37109375 676.293945312 510.076171875 673.029296875 c 0
 519.486328125 666.500976562 530.186523438 661.821289062 538.872070312 654.35546875 c 0
 549.2421875 645.44140625 556.1328125 632.994140625 560.190429688 619.936523438 c 0
 564.249023438 606.87890625 565.645507812 593.149414062 566.439453125 579.499023438 c 0
 574.10546875 447.643554688 527.381835938 318.30859375 466.762695312 200.962890625 c 0
 440.333984375 149.802734375 409.995117188 98.736328125 364.369140625 63.60546875 c 0
 341.556640625 46.0400390625 315.087890625 32.8291015625 286.813476562 27.39453125 c 0
 258.5390625 21.9599609375 228.430664062 24.580078125 202.397460938 36.876953125 c 0
 180.109375 47.4052734375 161.330078125 64.7353515625 147.662109375 85.2490234375 c 0
 133.994140625 105.76171875 125.313476562 129.374023438 120.793945312 153.60546875 c 0
 111.75390625 202.069335938 119.115234375 252.040039062 129.25 300.286132812 c 0
 156.189453125 428.518554688 203.81640625 554.39453125 284.20703125 657.8671875 c 0
 305.875 685.754882812 330.046875 712.091796875 358.903320312 732.452148438 c 0
 387.758789062 752.8125 421.650390625 767.010742188 456.919921875 768.83203125 c 0
 464.708984375 769.234375 472.6328125 769.052734375 480.149414062 771.13671875 c 0
 483.907226562 772.178710938 487.538085938 773.798828125 490.620117188 776.188476562 c 0
 493.702148438 778.578125 496.217773438 781.766601562 497.50390625 785.44921875 c 0
EndSplineSet
EndChar

StartChar: I
Encoding: 73 73 35
Width: 680
VWidth: 0
Flags: HW
LayerCount: 2
UndoRedoHistory
Layer: 1
Undoes
EndUndoes
Redoes
EndRedoes
EndUndoRedoHistory
Fore
SplineSet
227.8828125 140.467773438 m 4
 268.868164062 243.676757812 290.325195312 353.359375 316.52734375 461.2734375 c 4
 339.381835938 555.405273438 366.00390625 648.692382812 398.8046875 739.836914062 c 4
 405.178710938 757.545898438 412.188476562 775.8046875 425.73828125 788.868164062 c 4
 434.409179688 797.228515625 445.892578125 803.133789062 457.936523438 803.286132812 c 4
 463.958007812 803.36328125 470.026367188 801.987304688 475.301757812 799.083007812 c 4
 480.578125 796.1796875 485.032226562 791.7265625 487.703125 786.328125 c 4
 491.393554688 778.869140625 491.524414062 770.053710938 489.759765625 761.920898438 c 4
 487.995117188 753.788085938 484.46484375 746.1640625 481.037109375 738.580078125 c 4
 410.850585938 583.299804688 373.84375 415.52734375 324.450195312 252.436523438 c 4
 306.8125 194.19921875 287.504882812 136.3203125 262.254882812 80.9560546875 c 4
 252.47265625 59.5087890625 241.595703125 38.1484375 225.571289062 20.859375 c 4
 205.322265625 -0.9873046875 177.423828125 -15.2666015625 148.08984375 -20.4462890625 c 4
 140.154296875 -21.84765625 132.01953125 -22.609375 124.0390625 -21.490234375 c 4
 116.059570312 -20.37109375 108.19921875 -17.2548828125 102.36328125 -11.69921875 c 4
 97.619140625 -7.18359375 94.369140625 -1.181640625 92.8916015625 5.1982421875 c 4
 91.4130859375 11.5791015625 91.67578125 18.3173828125 93.357421875 24.646484375 c 4
 96.7216796875 37.306640625 105.600585938 47.9970703125 116.25 55.6240234375 c 4
 134.895507812 68.9794921875 158.743164062 73.5859375 181.64453125 72.33203125 c 4
 204.544921875 71.0791015625 226.784179688 64.384765625 248.448242188 56.85546875 c 4
 270.112304688 49.326171875 291.553710938 40.888671875 313.947265625 35.9326171875 c 4
 336.33984375 30.9755859375 360.048828125 29.634765625 381.9921875 36.30859375 c 4
 387.936523438 38.1162109375 393.795898438 40.515625 399.993164062 40.951171875 c 4
 403.091796875 41.1689453125 406.2578125 40.8779296875 409.169921875 39.7958984375 c 4
 412.08203125 38.71484375 414.731445312 36.80859375 416.434570312 34.2119140625 c 4
 417.973632812 31.865234375 418.694335938 29.025390625 418.650390625 26.220703125 c 4
 418.606445312 23.4150390625 417.818359375 20.646484375 416.547851562 18.1455078125 c 4
 414.006835938 13.142578125 409.655273438 9.3017578125 405.086914062 6.0439453125 c 4
 387.666015625 -6.3798828125 366.012695312 -11.8681640625 344.629882812 -12.6572265625 c 4
 323.247070312 -13.4462890625 301.953125 -9.802734375 281.022460938 -5.3564453125 c 4
 243.6484375 2.5830078125 206.586914062 13.2216796875 172.43359375 30.3525390625 c 4
 168.57421875 32.2890625 164.629882812 34.34375 160.330078125 34.7373046875 c 4
 158.1796875 34.93359375 155.96484375 34.6943359375 153.982421875 33.8388671875 c 4
 152 32.9833984375 150.263671875 31.4853515625 149.310546875 29.5478515625 c 4
 148.272460938 27.4375 148.228515625 24.8779296875 149.127929688 22.705078125 c 4
 150.028320312 20.5322265625 151.842773438 18.76953125 154.014648438 17.8671875 c 4
 156.051757812 17.021484375 158.360351562 16.9208984375 160.510742188 17.412109375 c 4
 162.661132812 17.9033203125 164.657226562 18.96484375 166.387695312 20.33203125 c 4
 169.848632812 23.0673828125 172.208984375 26.92578125 174.458007812 30.720703125 c 4
 195.225585938 65.755859375 212.8515625 102.614257812 227.8828125 140.467773438 c 4
542.879882812 815.172851562 m 4
 550.48046875 816.763671875 558.193359375 818.520507812 565.9296875 817.85546875 c 4
 569.798828125 817.522460938 573.642578125 816.569335938 577.083007812 814.770507812 c 4
 580.524414062 812.97265625 583.55078125 810.301757812 585.502929688 806.9453125 c 4
 587.876953125 802.865234375 588.5625 797.904296875 587.748046875 793.25390625 c 4
 586.93359375 788.603515625 584.678710938 784.266601562 581.622070312 780.669921875 c 4
 575.5078125 773.474609375 566.5234375 769.375 557.538085938 766.4765625 c 4
 525.500976562 756.140625 490.975585938 758.478515625 457.337890625 759.782226562 c 4
 423.700195312 761.086914062 388.635742188 760.95703125 358.294921875 746.374023438 c 4
 346.637695312 740.771484375 335.983398438 733.15625 324.025390625 728.227539062 c 4
 318.046875 725.763671875 311.731445312 723.985351562 305.276367188 723.606445312 c 4
 298.8203125 723.228515625 292.206054688 724.297851562 286.458984375 727.262695312 c 4
 279.619140625 730.791015625 274.249023438 736.940429688 271.296875 744.047851562 c 4
 268.345703125 751.15625 267.763671875 759.163085938 269.254882812 766.713867188 c 4
 271.447265625 777.8125 278.03125 787.796875 286.688476562 795.081054688 c 4
 295.344726562 802.365234375 305.975585938 807.065429688 316.974609375 809.713867188 c 4
 345.78125 816.6484375 375.829101562 809.864257812 405.288085938 806.692382812 c 4
 451.163085938 801.75390625 497.71875 805.715820312 542.879882812 815.172851562 c 4
190.7890625 29.3896484375 m 4
 190.7890625 29.38671875 190.7890625 29.3828125 190.7890625 29.3798828125 c 4
 190.7890625 20.552734375 177.580078125 13.3876953125 161.305664062 13.3876953125 c 4
 145.030273438 13.3876953125 131.821289062 20.552734375 131.821289062 29.3798828125 c 4
 131.821289062 29.3828125 131.821289062 29.38671875 131.821289062 29.3896484375 c 4
 131.821289062 29.392578125 131.821289062 29.3974609375 131.821289062 29.400390625 c 4
 131.821289062 38.2275390625 145.030273438 45.3916015625 161.305664062 45.3916015625 c 4
 177.580078125 45.3916015625 190.7890625 38.2275390625 190.7890625 29.400390625 c 4
 190.7890625 29.3974609375 190.7890625 29.392578125 190.7890625 29.3896484375 c 4
EndSplineSet
EndChar

StartChar: A
Encoding: 65 65 36
Width: 680
VWidth: 0
Flags: HW
LayerCount: 2
UndoRedoHistory
Layer: 1
Undoes
EndUndoes
Redoes
EndRedoes
EndUndoRedoHistory
Fore
SplineSet
116.47265625 321.872070312 m 4
 127.225585938 320.016601562 137.21875 315.260742188 147.486328125 311.568359375 c 4
 185.837890625 297.775390625 227.829101562 298.888671875 268.424804688 302.508789062 c 4
 309.020507812 306.127929688 349.865234375 312.081054688 390.349609375 307.383789062 c 4
 411.770507812 304.8984375 432.719726562 299.463867188 453.717773438 294.551757812 c 4
 484.297851562 287.3984375 516.26953125 280.817382812 541.228515625 261.754882812 c 4
 547.33203125 257.09375 552.989257812 251.647460938 556.775390625 244.96484375 c 4
 560.561523438 238.283203125 562.337890625 230.234375 560.46875 222.78515625 c 4
 559.30859375 218.161132812 556.782226562 213.915039062 553.405273438 210.548828125 c 4
 550.029296875 207.182617188 545.822265625 204.6875 541.309570312 203.149414062 c 4
 532.284179688 200.075195312 522.2578125 200.87109375 513.225585938 203.927734375 c 4
 495.162109375 210.041992188 481.295898438 224.319335938 465.662109375 235.240234375 c 4
 426.646484375 262.493164062 376.455078125 268.587890625 328.946289062 265.7890625 c 4
 281.436523438 262.990234375 234.685546875 252.198242188 187.1953125 249.096679688 c 4
 172.904296875 248.1640625 158.495117188 247.93359375 144.319335938 249.970703125 c 4
 130.143554688 252.0078125 116.153320312 256.385742188 104.103515625 264.125976562 c 4
 95.2197265625 269.833007812 87.251953125 277.688476562 83.796875 287.666015625 c 4
 82.0693359375 292.655273438 81.5341796875 298.09765625 82.5927734375 303.270507812 c 4
 83.65234375 308.443359375 86.3505859375 313.3203125 90.3916015625 316.716796875 c 4
 93.89453125 319.661132812 98.2958984375 321.427734375 102.8125 322.165039062 c 4
 107.328125 322.903320312 111.963867188 322.650390625 116.47265625 321.872070312 c 4
501.112304688 816.155273438 m 4
 505.217773438 814.293945312 508.447265625 810.743164062 510.296875 806.631835938 c 4
 512.145507812 802.521484375 512.670898438 797.88671875 512.2109375 793.40234375 c 4
 511.29296875 784.43359375 506.643554688 776.325195312 501.874023438 768.674804688 c 4
 488.711914062 747.5625 473.84375 727.575195312 459.557617188 707.20703125 c 4
 420.750976562 651.876953125 386.2109375 593.696289062 351.858398438 535.49609375 c 4
 285.952148438 423.833007812 220.419921875 311.537109375 168.459960938 192.741210938 c 4
 149.774414062 150.01953125 132.860351562 106.482421875 119.114257812 61.9248046875 c 4
 113.95703125 45.2119140625 108.897460938 27.71875 97.12109375 14.787109375 c 4
 91.232421875 8.3212890625 83.67578125 3.197265625 75.1865234375 1.095703125 c 4
 66.697265625 -1.005859375 57.2626953125 0.1279296875 50.01171875 5.0166015625 c 4
 44.6904296875 8.60546875 40.740234375 14.046875 38.4814453125 20.0546875 c 4
 36.2216796875 26.0615234375 35.59765625 32.611328125 36.1484375 39.005859375 c 4
 37.2490234375 51.794921875 42.873046875 63.7041015625 48.578125 75.203125 c 4
 69.9287109375 118.235351562 93.6953125 160.015625 116.532226562 202.278320312 c 4
 158.64453125 280.213867188 197.611328125 359.823242188 240.083007812 437.565429688 c 4
 302.634765625 552.063476562 372.668945312 662.291992188 443.704101562 771.729492188 c 4
 452.208984375 784.833984375 460.895507812 798.119140625 472.75390625 808.290039062 c 4
 476.690429688 811.666015625 481.020507812 814.70703125 485.92578125 816.391601562 c 4
 490.830078125 818.075195312 496.388671875 818.295898438 501.112304688 816.155273438 c 4
493.624023438 75.7587890625 m 4
 495.517578125 71.11328125 498.599609375 66.98046875 502.3984375 63.7041015625 c 4
 506.197265625 60.427734375 510.700195312 58 515.47265625 56.455078125 c 4
 525.017578125 53.3642578125 535.466796875 53.8369140625 545.153320312 56.4521484375 c 4
 564.524414062 61.681640625 580.575195312 74.8369140625 597.827148438 85.083984375 c 4
 605.559570312 89.6767578125 614.013671875 93.8232421875 623.006835938 93.79296875 c 4
 627.50390625 93.7783203125 632.049804688 92.666015625 635.83203125 90.234375 c 4
 639.614257812 87.8017578125 642.578125 83.994140625 643.61328125 79.6181640625 c 4
 644.374023438 76.3974609375 644.08203125 72.9716796875 643.022460938 69.8369140625 c 4
 641.962890625 66.7021484375 640.15625 63.849609375 637.961914062 61.373046875 c 4
 633.572265625 56.419921875 627.743164062 53.0107421875 622.015625 49.6953125 c 4
 582.979492188 27.09375 541.9609375 4.283203125 496.940429688 1.4921875 c 4
 483.893554688 0.6826171875 470.575195312 1.634765625 458.248046875 5.9873046875 c 4
 445.920898438 10.33984375 434.615234375 18.3037109375 427.741210938 29.4228515625 c 4
 421.71875 39.1640625 419.354492188 50.8203125 419.22265625 62.2724609375 c 4
 419.090820312 73.7236328125 421.07421875 85.0849609375 423.188476562 96.3408203125 c 4
 441.982421875 196.360351562 471.698242188 293.963867188 495.048828125 393.017578125 c 4
 514.893554688 477.201171875 530.209960938 563.743164062 522.451171875 649.884765625 c 4
 519.477539062 682.89453125 512.483398438 717.036132812 491.8671875 742.987304688 c 4
 486.881835938 749.260742188 481.181640625 754.944335938 476.293945312 761.294921875 c 4
 471.407226562 767.645507812 467.282226562 774.854492188 466.1171875 782.783203125 c 4
 465.076171875 789.862304688 466.51171875 797.265625 470.032226562 803.495117188 c 4
 473.552734375 809.724609375 479.123046875 814.754882812 485.634765625 817.721679688 c 4
 493.7734375 821.4296875 503.219726562 821.875 511.880859375 819.647460938 c 4
 520.541992188 817.418945312 528.428710938 812.623046875 534.9296875 806.481445312 c 4
 547.931640625 794.198242188 555.202148438 777.114257812 560.92578125 760.16796875 c 4
 575.986328125 715.576171875 582.729492188 668.456054688 584.115234375 621.41015625 c 4
 586.77734375 531.002929688 569.950195312 441.23046875 551.17578125 352.754882812 c 4
 534.133789062 272.44140625 515.424804688 192.481445312 495.095703125 112.935546875 c 4
 493.532226562 106.818359375 491.954101562 100.671875 491.37109375 94.3837890625 c 4
 490.788085938 88.0966796875 491.240234375 81.6064453125 493.624023438 75.7587890625 c 4
EndSplineSet
EndChar

StartChar: B
Encoding: 66 66 37
Width: 680
VWidth: 0
Flags: HW
LayerCount: 2
UndoRedoHistory
Layer: 1
Undoes
EndUndoes
Redoes
EndRedoes
EndUndoRedoHistory
Fore
SplineSet
280.557617188 603.588867188 m 4
 268.497070312 577.501953125 256.502929688 551.381835938 245.098632812 525.001953125 c 4
 201.4609375 424.061523438 166.419921875 319.25 115.837890625 221.604492188 c 4
 91.80859375 175.21875 64.3798828125 130.669921875 35.8349609375 86.91796875 c 4
 26.994140625 73.3681640625 17.83984375 59.392578125 15.017578125 43.4619140625 c 4
 13.60546875 35.4970703125 13.8740234375 27.1396484375 16.572265625 19.513671875 c 4
 19.271484375 11.888671875 24.515625 5.048828125 31.5927734375 1.130859375 c 4
 39.625 -3.31640625 49.5517578125 -3.7197265625 58.302734375 -0.9404296875 c 4
 67.0537109375 1.837890625 74.6689453125 7.58984375 80.6357421875 14.568359375 c 4
 92.5693359375 28.5244140625 97.9423828125 46.724609375 104.538085938 63.861328125 c 4
 119.284179688 102.173828125 141.307617188 137.162109375 161.466796875 172.922851562 c 4
 210.002929688 259.026367188 248.159179688 350.53125 284.780273438 442.337890625 c 4
 302.846679688 487.62890625 320.771484375 533.447265625 347.760742188 574.05859375 c 4
 355.387695312 585.536132812 363.830078125 596.78515625 368.081054688 609.893554688 c 4
 370.20703125 616.447265625 371.229492188 623.427734375 370.415039062 630.26953125 c 4
 369.600585938 637.111328125 366.874023438 643.809570312 362.188476562 648.861328125 c 4
 355.887695312 655.65625 346.359375 659.024414062 337.09765625 658.713867188 c 4
 327.836914062 658.403320312 318.888671875 654.646484375 311.489257812 649.069335938 c 4
 296.689453125 637.915039062 288.334960938 620.41015625 280.557617188 603.588867188 c 4
253.79296875 780.830078125 m 4
 249.010742188 775.60546875 244.560546875 769.829101562 242.458007812 763.065429688 c 4
 241.40625 759.684570312 240.96875 756.086914062 241.418945312 752.57421875 c 4
 241.869140625 749.061523438 243.229492188 745.638671875 245.498046875 742.919921875 c 4
 248.696289062 739.087890625 253.56640625 736.848632812 258.529296875 736.323242188 c 4
 263.4921875 735.797851562 268.53515625 736.884765625 273.120117188 738.85546875 c 4
 282.291992188 742.795898438 289.55859375 750.028320312 297.484375 756.095703125 c 4
 315.801757812 770.118164062 338.141601562 778.139648438 360.81640625 782.383789062 c 4
 412.640625 792.083984375 468.26953125 782.192382812 512.431640625 753.391601562 c 4
 537.381835938 737.12109375 558.591796875 715.000976562 573.169921875 689.026367188 c 4
 587.748046875 663.05078125 595.599609375 633.233398438 594.98046875 603.453125 c 4
 594.049804688 558.690429688 573.392578125 514.748046875 539.71484375 485.247070312 c 4
 506.038085938 455.745117188 459.89453125 441.05859375 415.330078125 445.366210938 c 4
 403.921875 446.46875 392.204101562 448.7265625 381.177734375 445.599609375 c 4
 375.6640625 444.036132812 370.44140625 441.057617188 366.8671875 436.578125 c 4
 365.081054688 434.337890625 363.724609375 431.743164062 363.00390625 428.969726562 c 4
 362.283203125 426.196289062 362.20703125 423.24609375 362.880859375 420.4609375 c 4
 363.676757812 417.171875 365.504882812 414.172851562 367.899414062 411.782226562 c 4
 370.294921875 409.390625 373.241210938 407.590820312 376.377929688 406.321289062 c 4
 382.65234375 403.780273438 389.5546875 403.344726562 396.319335938 403.122070312 c 4
 453.342773438 401.241210938 511.622070312 412.772460938 560.62890625 441.985351562 c 4
 609.63671875 471.19921875 648.563476562 519.056640625 661.21875 574.689453125 c 4
 669.830078125 612.544921875 666.127929688 652.897460938 652.073242188 689.086914062 c 4
 638.018554688 725.276367188 613.8125 757.26953125 583.685546875 781.754882812 c 4
 520.978515625 832.71875 433.900390625 849.375 354.805664062 832.837890625 c 4
 317.12109375 824.958984375 279.787109375 809.227539062 253.79296875 780.830078125 c 4
363.96484375 431.975585938 m 4
 361.612304688 427.604492188 360.795898438 422.46875 361.421875 417.544921875 c 4
 362.047851562 412.620117188 364.08203125 407.916015625 367.036132812 403.926757812 c 4
 372.9453125 395.94921875 382.28125 391.038085938 391.928710938 388.6953125 c 4
 411.22265625 384.010742188 431.657226562 388.708984375 451.271484375 385.625976562 c 4
 469.474609375 382.764648438 486.291992188 373.141601562 499.15625 359.948242188 c 4
 512.01953125 346.754882812 521.06640625 330.133789062 526.725585938 312.59765625 c 4
 540.688476562 269.325195312 533.840820312 220.620117188 511.998046875 180.741210938 c 4
 490.154296875 140.861328125 454.208984375 109.623046875 413.370117188 89.6318359375 c 4
 360.620117188 63.8095703125 300.807617188 56.232421875 242.102539062 54.4521484375 c 4
 183.3984375 52.671875 124.502929688 56.3056640625 65.9892578125 51.2509765625 c 4
 55.07421875 50.3076171875 43.7666015625 48.923828125 34.4736328125 43.1220703125 c 4
 29.8271484375 40.220703125 25.7958984375 36.2109375 23.34375 31.3125 c 4
 20.8916015625 26.4150390625 20.109375 20.599609375 21.6904296875 15.3544921875 c 4
 22.982421875 11.068359375 25.7900390625 7.3154296875 29.3125 4.552734375 c 4
 32.8349609375 1.7900390625 37.046875 -0.015625 41.40234375 -1.0517578125 c 4
 50.11328125 -3.1220703125 59.2158203125 -2.1728515625 68.13671875 -1.4052734375 c 4
 180.223632812 8.234375 296.3984375 -12.48828125 403.600585938 21.6318359375 c 4
 453.58203125 37.5400390625 499.970703125 65.3525390625 536.194335938 103.287109375 c 4
 572.418945312 141.22265625 598.234375 189.346679688 607.954101562 240.890625 c 4
 612.256835938 263.703125 613.428710938 287.288085938 609.298828125 310.1328125 c 4
 605.16796875 332.9765625 595.55078125 355.081054688 580.045898438 372.357421875 c 4
 560.950195312 393.634765625 534.154296875 406.485351562 506.940429688 415.2421875 c 4
 479.725585938 423.999023438 451.456054688 429.1875 424.306640625 438.143554688 c 4
 413.80859375 441.606445312 403.260742188 445.673828125 392.208984375 445.92578125 c 4
 386.68359375 446.052734375 381.080078125 445.1875 376.048828125 442.900390625 c 4
 371.016601562 440.61328125 366.583007812 436.842773438 363.96484375 431.975585938 c 4
EndSplineSet
EndChar

StartChar: S
Encoding: 83 83 38
Width: 680
VWidth: 0
Flags: HW
LayerCount: 2
UndoRedoHistory
Layer: 1
Undoes
EndUndoes
Redoes
EndRedoes
EndUndoRedoHistory
Fore
SplineSet
647.696289062 708.821289062 m 0
 647.380859375 702.829101562 644.911132812 697.01953125 641.04296875 692.432617188 c 0
 637.174804688 687.845703125 631.953125 684.467773438 626.275390625 682.526367188 c 0
 614.920898438 678.641601562 602.176757812 680.55078125 591.266601562 685.549804688 c 0
 580.973632812 690.265625 572.060546875 697.544921875 563.913085938 705.408203125 c 0
 555.766601562 713.270507812 548.266601562 721.787109375 540.016601562 729.541015625 c 0
 520.155273438 748.208984375 495.7890625 762.348632812 469.290039062 768.732421875 c 0
 442.791015625 775.116210938 414.173828125 773.508789062 389.155273438 762.690429688 c 0
 362.48046875 751.155273438 340.689453125 729.4609375 327.30859375 703.663085938 c 0
 313.928710938 677.864257812 308.739257812 648.1796875 310.622070312 619.178710938 c 0
 312.6328125 588.202148438 322.473632812 558.10546875 336.172851562 530.25 c 0
 349.87109375 502.39453125 367.385742188 476.600585938 385.514648438 451.40234375 c 0
 421.772460938 401.006835938 461.55078125 350.990234375 478.715820312 291.327148438 c 0
 499.455078125 219.239257812 483.038085938 137.775390625 437 78.5537109375 c 0
 390.961914062 19.3310546875 316.713867188 -16.5576171875 241.705078125 -17.13671875 c 0
 202.499023438 -17.439453125 163.06640625 -8.4638671875 128.568359375 10.1640625 c 0
 94.0703125 28.7919921875 64.6748046875 57.193359375 46.216796875 91.783203125 c 0
 40.990234375 101.577148438 36.615234375 111.899414062 34.2177734375 122.73828125 c 0
 31.8203125 133.578125 31.451171875 144.975585938 34.1435546875 155.745117188 c 0
 36.8369140625 166.514648438 42.7138671875 176.622070312 51.39453125 183.541992188 c 0
 60.07421875 190.461914062 71.626953125 193.966796875 82.568359375 192.090820312 c 0
 92.8662109375 190.32421875 102.025390625 183.986328125 108.57421875 175.845703125 c 0
 115.123046875 167.705078125 119.255859375 157.857421875 122.067382812 147.794921875 c 0
 127.690429688 127.670898438 128.395507812 106.109375 136.875976562 87.0126953125 c 0
 147.666992188 62.7109375 170.438476562 44.93359375 195.671875 36.5517578125 c 0
 220.905273438 28.1689453125 248.384765625 28.458984375 274.522460938 33.3408203125 c 0
 304.154296875 38.8740234375 332.875 50.3251953125 357.109375 68.251953125 c 0
 381.34375 86.1787109375 400.948242188 110.7265625 411.3515625 139.018554688 c 0
 422.75390625 170.025390625 422.801757812 204.474609375 415.34765625 236.659179688 c 0
 407.892578125 268.84375 393.243164062 298.979492188 375.939453125 327.122070312 c 0
 341.33203125 383.407226562 295.65625 433.077148438 268.139648438 493.1484375 c 0
 245.717773438 542.09765625 236.256835938 597.532226562 245.224609375 650.620117188 c 0
 254.192382812 703.708007812 282.284179688 754.053710938 325.25390625 786.493164062 c 0
 370.65234375 820.766601562 430.861328125 833.459960938 486.939453125 823.927734375 c 0
 543.018554688 814.395507812 594.607421875 783.53125 632.346679688 740.970703125 c 0
 636.391601562 736.408203125 640.315429688 731.674804688 643.229492188 726.319335938 c 0
 646.143554688 720.963867188 648.017578125 714.91015625 647.696289062 708.821289062 c 0
EndSplineSet
EndChar

StartChar: Q
Encoding: 81 81 39
Width: 680
VWidth: 0
Flags: HW
LayerCount: 2
UndoRedoHistory
Layer: 1
Undoes
EndUndoes
Redoes
EndRedoes
EndUndoRedoHistory
Fore
SplineSet
497.501953125 788.818359375 m 4
 499.037109375 793.216796875 498.739257812 798.15625 497.037109375 802.4921875 c 4
 495.3359375 806.828125 492.29296875 810.571289062 488.625976562 813.443359375 c 4
 481.291992188 819.188476562 471.821289062 821.393554688 462.5859375 822.618164062 c 4
 424.5078125 827.670898438 385.427734375 818.48046875 351.065429688 801.311523438 c 4
 316.703125 784.142578125 286.686523438 759.311523438 259.474609375 732.200195312 c 4
 162.169921875 635.258789062 98.60546875 508.026367188 63.2099609375 375.3125 c 4
 46.2314453125 311.65234375 35.361328125 245.05078125 45.1298828125 179.892578125 c 4
 50.013671875 147.313476562 60.109375 115.366210938 76.3818359375 86.72265625 c 4
 92.654296875 58.0791015625 115.211914062 32.8017578125 142.810546875 14.8134765625 c 4
 180.6171875 -9.828125 227.03125 -20.0234375 272.032226562 -16.6298828125 c 4
 317.033203125 -13.236328125 360.565429688 3.3046875 398.330078125 28.01171875 c 4
 473.860351562 77.42578125 524.680664062 156.897460938 562.283203125 238.94921875 c 4
 608.338867188 339.4453125 638.140625 448.573242188 638.555664062 559.118164062 c 4
 638.696289062 596.75390625 634.877929688 636.153320312 614.49609375 667.79296875 c 4
 597.606445312 694.012695312 570.641601562 712.500976562 541.810546875 724.395507812 c 4
 535.608398438 726.954101562 529.22265625 729.2578125 522.55859375 730.033203125 c 4
 515.895507812 730.809570312 508.873046875 729.955078125 503.099609375 726.540039062 c 4
 499.220703125 724.24609375 496.012695312 720.838867188 493.939453125 716.838867188 c 4
 491.866210938 712.837890625 490.93359375 708.2578125 491.258789062 703.763671875 c 4
 491.673828125 698.051757812 494.087890625 692.599609375 497.520507812 688.015625 c 4
 500.953125 683.431640625 505.37109375 679.663085938 510.076171875 676.3984375 c 4
 519.486328125 669.869140625 530.186523438 665.189453125 538.872070312 657.723632812 c 4
 549.241210938 648.810546875 556.131835938 636.36328125 560.190429688 623.3046875 c 4
 564.248046875 610.247070312 565.64453125 596.518554688 566.438476562 582.8671875 c 4
 574.103515625 451.01171875 527.381835938 321.677734375 466.763671875 204.33203125 c 4
 440.334960938 153.170898438 409.99609375 102.104492188 364.370117188 66.9736328125 c 4
 341.556640625 49.408203125 315.087890625 36.197265625 286.813476562 30.7626953125 c 4
 258.5390625 25.328125 228.430664062 27.9482421875 202.397460938 40.24609375 c 4
 180.109375 50.7734375 161.330078125 68.1044921875 147.662109375 88.6181640625 c 4
 133.994140625 109.130859375 125.313476562 132.743164062 120.793945312 156.974609375 c 5
 111.163085938 205.4375 119.087890625 255.408203125 129.25 303.654296875 c 5
 156.189453125 431.887695312 203.814453125 557.763671875 284.206054688 661.235351562 c 4
 305.874023438 689.124023438 330.045898438 715.459960938 358.90234375 735.8203125 c 4
 387.758789062 756.180664062 421.649414062 770.37890625 456.91796875 772.200195312 c 4
 464.708007812 772.603515625 472.631835938 772.420898438 480.1484375 774.505859375 c 4
 483.90625 775.547851562 487.537109375 777.16796875 490.619140625 779.557617188 c 4
 493.701171875 781.947265625 496.216796875 785.13671875 497.501953125 788.818359375 c 4
227.0078125 175.96875 m 4
 219.333984375 175.87890625 211.436523438 175.469726562 204.45703125 172.27734375 c 4
 200.967773438 170.680664062 197.760742188 168.383789062 195.370117188 165.381835938 c 4
 192.979492188 162.37890625 191.438476562 158.649414062 191.326171875 154.813476562 c 4
 191.1796875 149.8203125 193.478515625 144.931640625 196.986328125 141.375 c 4
 200.495117188 137.818359375 205.123046875 135.510742188 209.938476562 134.1796875 c 4
 219.569335938 131.51953125 229.787109375 132.6015625 239.747070312 131.80859375 c 4
 262.478515625 129.999023438 283.3828125 118.416992188 301.301757812 104.314453125 c 4
 324.138671875 86.3427734375 343.208007812 64.1142578125 364.387695312 44.216796875 c 4
 385.567382812 24.3203125 409.818359375 6.2841796875 438.087890625 -0.4443359375 c 4
 464.93359375 -6.8330078125 493.408203125 -2.4482421875 519.397460938 6.8251953125 c 4
 545.387695312 16.0986328125 569.392578125 30.0693359375 593.530273438 43.443359375 c 4
 599.880859375 46.962890625 606.446289062 50.6103515625 610.833007812 56.3955078125 c 4
 613.026367188 59.2880859375 614.61328125 62.6953125 615.047851562 66.2998046875 c 4
 615.483398438 69.9033203125 614.706054688 73.7041015625 612.58984375 76.6533203125 c 4
 611.163085938 78.6435546875 609.170898438 80.2001953125 606.953125 81.23828125 c 4
 604.735351562 82.2763671875 602.296875 82.806640625 599.8515625 82.931640625 c 4
 592.37890625 83.3134765625 585.265625 80.015625 578.530273438 76.7587890625 c 4
 563.500976562 69.490234375 548.501953125 62.0146484375 532.661132812 56.7470703125 c 4
 516.819335938 51.478515625 499.969726562 48.458984375 483.387695312 50.3876953125 c 4
 457.880859375 53.3544921875 435.122070312 67.6689453125 415.07421875 83.71484375 c 4
 381.891601562 110.2734375 352.60546875 143.05859375 313.813476562 160.424804688 c 4
 286.771484375 172.530273438 256.633789062 176.31640625 227.0078125 175.96875 c 4
EndSplineSet
EndChar

StartChar: U
Encoding: 85 85 40
Width: 680
VWidth: 0
Flags: HW
LayerCount: 2
UndoRedoHistory
Layer: 1
Undoes
EndUndoes
Redoes
EndRedoes
EndUndoRedoHistory
Fore
SplineSet
443.678710938 130.046875 m 4
 486.295898438 234.981445312 534.017578125 337.879882812 572.881835938 444.26171875 c 4
 605.236328125 532.821289062 631.34765625 623.508789062 658.76171875 713.720703125 c 4
 662.068359375 724.600585938 665.40234375 735.510742188 667.302734375 746.72265625 c 4
 669.203125 757.93359375 669.637695312 769.524414062 667.149414062 780.619140625 c 4
 664.661132812 791.71484375 659.0859375 802.315429688 650.391601562 809.643554688 c 4
 646.043945312 813.307617188 640.956054688 816.118164062 635.48828125 817.67578125 c 4
 630.01953125 819.232421875 624.172851562 819.518554688 618.61328125 818.329101562 c 4
 611.89453125 816.890625 605.720703125 813.323242188 600.73828125 808.591796875 c 4
 595.755859375 803.860351562 591.928710938 797.997070312 589.099609375 791.735351562 c 4
 583.440429688 779.212890625 581.748046875 765.327148438 579.87890625 751.712890625 c 4
 570.112304688 680.578125 553.71875 610.461914062 533.524414062 541.55859375 c 4
 494.99609375 410.104492188 442.688476562 283.075195312 385.985351562 158.37890625 c 4
 378.20703125 141.2734375 370.303710938 124.094726562 365.616210938 105.8984375 c 4
 360.928710938 87.701171875 359.591796875 68.2236328125 364.994140625 50.2265625 c 4
 371.2421875 29.41015625 386.34375 11.7978515625 404.952148438 0.5693359375 c 4
 423.560546875 -10.66015625 445.459960938 -15.787109375 467.190429688 -16.19921875 c 4
 493.693359375 -16.701171875 519.995117188 -10.41796875 544.6796875 -0.7529296875 c 4
 569.36328125 8.9111328125 592.58984375 21.9111328125 615.458007812 35.318359375 c 4
 619.97265625 37.9658203125 624.493164062 40.6416015625 628.583984375 43.90625 c 4
 632.674804688 47.169921875 636.346679688 51.0625 638.778320312 55.6962890625 c 4
 641.209960938 60.3310546875 642.333984375 65.7578125 641.286132812 70.884765625 c 4
 640.762695312 73.4482421875 639.701171875 75.91015625 638.126953125 78.0009765625 c 4
 636.552734375 80.0908203125 634.461914062 81.8017578125 632.06640625 82.853515625 c 4
 629.7734375 83.8603515625 627.235351562 84.25390625 624.733398438 84.1572265625 c 4
 622.231445312 84.060546875 619.762695312 83.484375 617.411132812 82.6220703125 c 4
 612.709960938 80.8984375 608.51171875 78.068359375 604.264648438 75.4140625 c 4
 581.086914062 60.9248046875 555.252929688 51.0888671875 528.892578125 43.8564453125 c 4
 512.365234375 39.322265625 495.138671875 35.7568359375 478.163085938 38.1240234375 c 4
 469.67578125 39.3076171875 461.341796875 42.001953125 454.06640625 46.529296875 c 4
 446.791015625 51.0576171875 440.60546875 57.466796875 436.858398438 65.173828125 c 4
 431.952148438 75.26171875 431.43359375 87.0390625 433.346679688 98.091796875 c 4
 435.259765625 109.14453125 439.458007812 119.653320312 443.678710938 130.046875 c 4
92.720703125 96.0888671875 m 4
 85.390625 111.04296875 83.19921875 128.131835938 84.189453125 144.756835938 c 4
 85.1796875 161.381835938 89.2177734375 177.671875 93.8310546875 193.674804688 c 4
 122.315429688 292.483398438 172.901367188 383.244140625 212.40234375 478.1875 c 4
 248.686523438 565.40234375 275.85546875 657.387695312 281.1796875 751.69921875 c 4
 282.098632812 767.966796875 282.224609375 784.970703125 275.200195312 799.670898438 c 4
 271.688476562 807.021484375 266.362304688 813.6171875 259.448242188 817.926757812 c 4
 252.53515625 822.235351562 243.98046875 824.115234375 236.033203125 822.327148438 c 4
 229.973632812 820.962890625 224.473632812 817.54296875 220.177734375 813.057617188 c 4
 215.880859375 808.573242188 212.749023438 803.057617188 210.5859375 797.236328125 c 4
 206.259765625 785.592773438 205.763671875 772.942382812 204.87890625 760.552734375 c 4
 202.521484375 727.54296875 197.078125 694.806640625 189.931640625 662.494140625 c 4
 158.944335938 522.3671875 96.5 391.599609375 42.658203125 258.5703125 c 4
 30.771484375 229.201171875 19.212890625 199.408203125 13.962890625 168.163085938 c 4
 8.712890625 136.916992188 10.1376953125 103.77734375 23.4365234375 75.01953125 c 4
 35.0146484375 49.9814453125 55.236328125 29.345703125 79.16015625 15.6123046875 c 4
 103.083984375 1.87890625 130.567382812 -5.1337890625 158.12109375 -6.4521484375 c 4
 213.23046875 -9.087890625 267.109375 10.45703125 316.318359375 35.4052734375 c 4
 356.6484375 55.8525390625 396.030273438 81.029296875 422.552734375 117.651367188 c 4
 426.462890625 123.05078125 430.087890625 128.703125 432.685546875 134.841796875 c 4
 435.283203125 140.98046875 436.830078125 147.647460938 436.463867188 154.303710938 c 4
 436.096679688 160.958984375 433.71875 167.602539062 429.227539062 172.529296875 c 4
 426.982421875 174.9921875 424.231445312 177.004882812 421.166015625 178.314453125 c 4
 418.1015625 179.623046875 414.72265625 180.220703125 411.401367188 179.94921875 c 4
 407.748046875 179.651367188 404.219726562 178.314453125 401.125976562 176.350585938 c 4
 398.032226562 174.385742188 395.357421875 171.809570312 393.045898438 168.96484375 c 4
 388.423828125 163.275390625 385.259765625 156.575195312 381.6171875 150.21484375 c 4
 369.419921875 128.916992188 351.60546875 111.166015625 331.505859375 97.08203125 c 4
 311.40625 82.998046875 289.026367188 72.4443359375 266.114257812 63.6484375 c 4
 235.891601562 52.046875 203.634765625 43.3017578125 171.426757812 46.564453125 c 4
 155.323242188 48.1953125 139.422851562 52.890625 125.537109375 61.2080078125 c 4
 111.651367188 69.525390625 99.845703125 81.5546875 92.720703125 96.0888671875 c 4
EndSplineSet
EndChar

StartChar: G
Encoding: 71 71 41
Width: 680
VWidth: 0
Flags: HW
LayerCount: 2
UndoRedoHistory
Layer: 1
Undoes
EndUndoes
Redoes
EndRedoes
EndUndoRedoHistory
Fore
SplineSet
486.279296875 396.28515625 m 4
 447.53125 269.213867188 395.333984375 146.719726562 349.780273438 21.9267578125 c 4
 339.682617188 -5.7353515625 329.8203125 -33.7099609375 314.87890625 -59.0849609375 c 4
 299.9375 -84.4599609375 279.357421875 -107.39453125 252.78125 -120.077148438 c 4
 234.982421875 -128.571289062 214.826171875 -132.181640625 195.2265625 -129.99609375 c 4
 175.626953125 -127.810546875 156.659179688 -119.783203125 141.701171875 -106.930664062 c 4
 133.513671875 -99.896484375 126.548828125 -91.498046875 118.099609375 -84.78125 c 4
 113.875 -81.421875 109.268554688 -78.48828125 104.235351562 -76.5390625 c 4
 99.203125 -74.5888671875 93.7216796875 -73.650390625 88.3642578125 -74.3037109375 c 4
 80.5751953125 -75.2529296875 73.3662109375 -79.6083984375 68.4443359375 -85.7197265625 c 4
 63.5234375 -91.830078125 60.8291015625 -99.5888671875 60.31640625 -107.418945312 c 4
 59.4111328125 -121.225585938 65.1650390625 -134.927734375 74.0888671875 -145.501953125 c 4
 83.0126953125 -156.075195312 94.8955078125 -163.790039062 107.34765625 -169.821289062 c 4
 147.935546875 -189.479492188 195.932617188 -192.087890625 239.288085938 -179.672851562 c 4
 282.642578125 -167.2578125 321.284179688 -140.375976562 350.30859375 -105.860351562 c 4
 398.9296875 -48.0419921875 419.614257812 27.373046875 446.458007812 97.9873046875 c 4
 482.921875 193.908203125 532.685546875 284.4140625 567.764648438 380.850585938 c 4
 572.659179688 394.3046875 577.32421875 408.24609375 576.803710938 422.552734375 c 4
 576.543945312 429.70703125 574.946289062 436.872070312 571.60546875 443.203125 c 4
 568.264648438 449.534179688 563.122070312 454.99609375 556.723632812 458.206054688 c 4
 548.70703125 462.228515625 539.078125 462.493164062 530.528320312 459.782226562 c 4
 521.978515625 457.072265625 514.479492188 451.553710938 508.588867188 444.790039062 c 4
 496.80859375 431.262695312 491.510742188 413.443359375 486.279296875 396.28515625 c 4
621.12890625 726.563476562 m 4
 623.177734375 729.712890625 624.045898438 733.561523438 623.83203125 737.313476562 c 4
 623.619140625 741.064453125 622.361328125 744.716796875 620.467773438 747.961914062 c 4
 616.6796875 754.453125 610.533203125 759.198242188 604.268554688 763.349609375 c 4
 559.299804688 793.145507812 502.03125 799.717773438 448.630859375 792.072265625 c 4
 362.513671875 779.743164062 283.61328125 732.704101562 223.517578125 669.801757812 c 4
 163.421875 606.900390625 121.005859375 528.845703125 90.1220703125 447.517578125 c 4
 73.8095703125 404.560546875 60.443359375 360.026367188 56.9794921875 314.20703125 c 4
 53.515625 268.387695312 60.4521484375 220.956054688 82.7001953125 180.75 c 4
 100.951171875 147.766601562 129.217773438 120.504882812 162.572265625 102.94140625 c 4
 195.927734375 85.3779296875 234.228515625 77.5048828125 271.849609375 79.904296875 c 4
 309.469726562 82.3046875 346.31640625 94.90625 377.853515625 115.557617188 c 4
 409.390625 136.208984375 435.586914062 164.819335938 453.901367188 197.768554688 c 4
 459.026367188 206.990234375 463.54296875 216.53515625 468.001953125 226.096679688 c 4
 470.149414062 230.701171875 472.291992188 235.331054688 473.749023438 240.198242188 c 4
 475.20703125 245.065429688 475.963867188 250.212890625 475.280273438 255.247070312 c 4
 474.596679688 260.282226562 472.379882812 265.206054688 468.592773438 268.591796875 c 4
 466.698242188 270.28515625 464.432617188 271.57421875 461.985351562 272.254882812 c 4
 459.538085938 272.935546875 456.91015625 272.999023438 454.453125 272.352539062 c 4
 450.42578125 271.293945312 447.077148438 268.41015625 444.619140625 265.049804688 c 4
 442.16015625 261.689453125 440.475585938 257.83984375 438.73046875 254.059570312 c 4
 417.692382812 208.5078125 383.62109375 167.625 338.412109375 145.860351562 c 4
 315.807617188 134.977539062 290.693359375 129.0625 265.616210938 129.788085938 c 4
 240.5390625 130.512695312 215.547851562 137.995117188 194.7734375 152.05859375 c 4
 175.663085938 164.995117188 160.40234375 183.260742188 149.859375 203.788085938 c 4
 139.317382812 224.315429688 133.3984375 247.056640625 131.236328125 270.032226562 c 4
 126.913085938 315.982421875 137.38671875 362.069335938 151.27734375 406.08203125 c 4
 171.14453125 469.038085938 198.375976562 530.091796875 236.59765625 583.91796875 c 4
 274.8203125 637.744140625 324.390625 684.231445312 383.22265625 714.1796875 c 4
 409.216796875 727.411132812 437.05859375 737.409179688 465.946289062 741.439453125 c 4
 494.834960938 745.469726562 524.830078125 743.377929688 552.165039062 733.202148438 c 4
 566.622070312 727.821289062 580.497070312 720.171875 595.793945312 718.1796875 c 4
 600.451171875 717.573242188 605.248046875 717.514648438 609.77734375 718.752929688 c 4
 614.307617188 719.991210938 618.568359375 722.626953125 621.12890625 726.563476562 c 4
EndSplineSet
EndChar

